<?xml version="1.0" standalone="no"?>
<!DOCTYPE svg PUBLIC "-//W3C//DTD SVG 1.1//EN" "http://www.w3.org/Graphics/SVG/1.1/DTD/svg11.dtd" >
<svg>
<metadata>
Created by FontForge 20090914 at Tue Feb 24 12:08:32 2015
 By www-data
2009 published by FontShop International GmbH
</metadata>
<defs>
<font id="WebFontFont" horiz-adv-x="277" >
  <font-face 
    font-family="WebFontFont"
    font-weight="400"
    font-stretch="condensed"
    units-per-em="1000"
    panose-1="2 11 5 6 2 1 1 1 1 2"
    ascent="764"
    descent="-236"
    x-height="509"
    cap-height="712"
    bbox="-70 -220 945 933"
    underline-thickness="44"
    underline-position="-68"
    unicode-range="U+0020-U+FEFF"
  />
<missing-glyph horiz-adv-x="373" 
d="M62 712h249v-712h-249v712zM267 44v624h-161v-624h161z" />
    <glyph glyph-name=".notdef" horiz-adv-x="373" 
d="M62 712h249v-712h-249v712zM267 44v624h-161v-624h161z" />
    <glyph glyph-name="space" unicode=" " horiz-adv-x="194" 
 />
    <glyph glyph-name="exclam" unicode="!" horiz-adv-x="227" 
d="M100 187v525h56v-525h-56zM90 0v75h75v-75h-75z" />
    <glyph glyph-name="quotedbl" unicode="&#x22;" horiz-adv-x="352" 
d="M62 529v183h65v-183h-65zM226 529v183h64v-183h-64z" />
    <glyph glyph-name="numbersign" unicode="#" horiz-adv-x="500" 
d="M365 444l-20 -163h73v-51h-81l-29 -230h-54l29 230h-102l-29 -230h-54l29 230h-72v51h79l21 163h-73v50h80l28 218h54l-28 -218h102l28 218h54l-28 -218h72v-50h-79zM209 444l-21 -163h102l21 163h-102z" />
    <glyph glyph-name="dollar" unicode="$" horiz-adv-x="404" 
d="M351 186c0 -38 -3.33301 -69.167 -10 -93.5s-18 -44.5 -34 -60.5c-20 -20 -47 -32 -81 -36v-110h-53v109c-38 3.33301 -67.667 15.666 -89 36.999c-8 8 -14.667 16.5 -20 25.5s-9.66602 19.167 -12.999 30.5s-5.66602 24.333 -6.99902 39s-2 31.667 -2 51h59
c0 -28 1.83301 -49.833 5.5 -65.5s11.167 -29.167 22.5 -40.5c12 -12 26.667 -19.333 44 -22v298l-32 13c-18 7.33301 -33.167 15.833 -45.5 25.5s-22 21.334 -29 35.001s-12 30 -15 49s-4.5 41.833 -4.5 68.5c0 30.667 4 58 12 82s20.333 43.667 37 59
c21.333 20 47 32 77 36v90h53v-90c33.333 -4 60.333 -16.333 81 -37c17.333 -17.333 28.833 -36.833 34.5 -58.5s8.5 -48.167 8.5 -79.5h-59c0 22.667 -1.83301 41.667 -5.5 57s-10.834 29 -21.501 41c-10.667 11.333 -23.334 19 -38.001 23v-273l33 -13
c19.333 -8 35 -17.5 47 -28.5s21.333 -24.167 28 -39.5s11.167 -33 13.5 -53s3.5 -43 3.5 -69zM292 184c0 21.333 -1.00195 39.5 -3.00195 54.5s-5.5 28 -10.5 39s-11.667 20.333 -20 28s-19.166 14.5 -32.499 20.5v-275c16.667 4 29.334 11 38.001 21
c11.333 12.667 18.833 27.5 22.5 44.5s5.5 39.5 5.5 67.5zM172.998 662c-14.667 -4 -26.667 -10.667 -36 -20c-11.333 -11.333 -19.333 -25.666 -24 -42.999s-7 -37 -7 -59c0 -19.333 0.833008 -35.833 2.5 -49.5s5 -25.334 10 -35.001s11.833 -18 20.5 -25
s20 -13.5 34 -19.5v251z" />
    <glyph glyph-name="percent" unicode="%" horiz-adv-x="617" 
d="M252 446c0 -30.667 -9.33301 -55 -28 -73s-42.334 -27 -71.001 -27s-52.167 9 -70.5 27s-27.5 42.333 -27.5 73v175c0 30.667 9.16699 54.834 27.5 72.501s41.833 26.5 70.5 26.5s52.334 -8.83301 71.001 -26.5s28 -41.834 28 -72.501v-175zM562 92
c0 -30.667 -9.16699 -55 -27.5 -73s-41.833 -27 -70.5 -27s-52.167 9 -70.5 27s-27.5 42.333 -27.5 73v174c0 30.667 9.16699 55 27.5 73s41.833 27 70.5 27s52.167 -9 70.5 -27s27.5 -42.333 27.5 -73v-174zM208 0h-47l248 712h47zM514 266
c0 17.333 -4.33301 31.166 -13 41.499s-21 15.5 -37 15.5s-28.333 -5.16699 -37 -15.5s-13 -24.166 -13 -41.499v-174c0 -17.333 4.33301 -31.166 13 -41.499s21 -15.5 37 -15.5s28.333 5.16699 37 15.5s13 24.166 13 41.499v174zM203 620
c0 17.333 -4.33301 31.166 -13 41.499s-21 15.5 -37 15.5s-28.167 -5.16699 -36.5 -15.5s-12.5 -24.166 -12.5 -41.499v-174c0 -17.333 4.16699 -31.166 12.5 -41.499s20.5 -15.5 36.5 -15.5s28.333 5.16699 37 15.5s13 24.166 13 41.499v174z" />
    <glyph glyph-name="ampersand" unicode="&#x26;" horiz-adv-x="486" 
d="M417 0l-55 84.001c-11.333 -14 -22.5 -26.667 -33.5 -38s-23 -21 -36 -29s-27.333 -14.167 -43 -18.5s-33.5 -6.5 -53.5 -6.5c-22 0 -42.667 3.83301 -62 11.5s-36 18.834 -50 33.501s-25.167 32.667 -33.5 54s-12.5 45.666 -12.5 72.999c0 22 2.5 42.333 7.5 61
s12.5 36.834 22.5 54.501s22.833 35.334 38.5 53.001s34.167 36.167 55.5 55.5l-43 61.5c-11.333 17 -20.5 32.5 -27.5 46.5s-12 27.167 -15 39.5s-4.5 25.5 -4.5 39.5c0 18.667 2.83301 36.667 8.5 54s14 32.666 25 45.999s24.833 23.833 41.5 31.5s36 11.5 58 11.5
c44 0 77.333 -12.5 100 -37.5s34 -57.167 34 -96.5c0 -21.333 -2 -40.333 -6 -57s-10.5 -32.834 -19.5 -48.501s-20.333 -31.334 -34 -47.001s-30.167 -32.5 -49.5 -50.5l132 -199c12.667 20.667 23.167 46.667 31.5 78s13.5 61.333 15.5 90h54
c-3.33301 -40.667 -10.833 -80 -22.5 -118s-27.167 -71.333 -46.5 -100l87 -132h-64zM191 344.001c-33.333 -32.667 -57.8311 -62.499 -73.498 -89.499s-23.5 -55.5 -23.5 -85.5c0 -16.667 2.33301 -32.5 7 -47.5s11.667 -28.333 21 -40s20.666 -20.834 33.999 -27.501
s28.666 -10 45.999 -10c26 0 49.333 8 70 24s40.667 36.667 60 62zM285.002 582.002c0 25.333 -7.33203 45.834 -21.999 61.501s-33.667 23.5 -57 23.5c-14 0 -26 -2.66699 -36 -8s-18.167 -12.333 -24.5 -21s-11 -18.334 -14 -29.001s-4.5 -21.334 -4.5 -32.001
c0 -10 1.16699 -19.667 3.5 -29s6.16602 -19.666 11.499 -30.999s12.833 -24.333 22.5 -39l36.5 -53l35 36.5c10.667 11.667 19.5 23.5 26.5 35.5s12.5 24.833 16.5 38.5s6 29.167 6 46.5z" />
    <glyph glyph-name="quotesingle" unicode="'" horiz-adv-x="189" 
d="M62 529v183h65v-183h-65z" />
    <glyph glyph-name="parenleft" unicode="(" horiz-adv-x="222" 
d="M143 -94c-13.333 13.333 -25.668 26.6758 -37.001 40.0088s-20.666 26.666 -27.999 39.999c-8.66699 16 -14.167 31.833 -16.5 47.5s-3.5 32.167 -3.5 49.5v546c0 17.333 1.16699 33.833 3.5 49.5s7.83301 31.5 16.5 47.5c8 15.333 17.5 29.166 28.5 41.499
s23.167 25.166 36.5 38.499l38 -38l-29 -29.5c-9.33301 -9.66699 -17 -20.834 -23 -33.501c-5.33301 -10.667 -9.16602 -22.834 -11.499 -36.501s-3.5 -28.834 -3.5 -45.501v-534c0 -16.667 1.16699 -31.834 3.5 -45.501s6.16602 -25.834 11.499 -36.501
c6 -12.667 13.667 -23.834 23 -33.501l29 -29.5z" />
    <glyph glyph-name="parenright" unicode=")" horiz-adv-x="222" 
d="M164 83c0 -17.333 -1.16699 -33.8398 -3.5 -49.5068s-7.83301 -31.5 -16.5 -47.5c-7.33301 -13.333 -16.833 -26.666 -28.5 -39.999s-24.167 -26.666 -37.5 -39.999l-38 38l29.5 29.5c9.66699 9.66699 17.5 20.834 23.5 33.501
c5.33301 10.667 9.16602 22.834 11.499 36.501s3.5 28.834 3.5 45.501v534c0 16.667 -1.16699 31.834 -3.5 45.501s-6.16602 25.834 -11.499 36.501c-6 12.667 -13.833 23.834 -23.5 33.501l-29.5 29.5l38 38c15.333 -15.333 28.333 -28.833 39 -40.5
s19.667 -24.834 27 -39.501c8.66699 -16 14.167 -31.833 16.5 -47.5s3.5 -32.167 3.5 -49.5v-546z" />
    <glyph glyph-name="asterisk" unicode="*" horiz-adv-x="369" 
d="M296 465l-91 55l2 -127h-45l3 127l-92 -55l-22 40l93 50l-93 50l22 40l92 -55l-3 127h45l-2 -127l91 55l22 -40l-93 -50l93 -50z" />
    <glyph glyph-name="plus" unicode="+" horiz-adv-x="431" 
d="M242 251v-141h-53v141h-140v53h140v140h53v-140h141v-53h-141z" />
    <glyph glyph-name="comma" unicode="," horiz-adv-x="184" 
d="M58 -99v176h69v-125z" />
    <glyph glyph-name="hyphen" unicode="-" horiz-adv-x="301" 
d="M55 251v53h191v-53h-191z" />
    <glyph glyph-name="period" unicode="." horiz-adv-x="199" 
d="M62 0v75h75v-75h-75z" />
    <glyph glyph-name="slash" unicode="/" horiz-adv-x="246" 
d="M59 -74h-57l185 860h57z" />
    <glyph glyph-name="zero" unicode="0" horiz-adv-x="361" 
d="M307 128c0 -24.667 -3.16699 -44.834 -9.5 -60.501s-15.166 -29.167 -26.499 -40.5c-10.667 -10.667 -24.167 -19.167 -40.5 -25.5s-33.166 -9.5 -50.499 -9.5s-34 3.16699 -50 9.5s-29.333 14.833 -40 25.5c-11.333 11.333 -20.166 24.833 -26.499 40.5
s-9.5 35.834 -9.5 60.501v456c0 24.667 3.16699 44.834 9.5 60.501s15.166 29.167 26.499 40.5c10.667 10.667 24 19.167 40 25.5s32.667 9.5 50 9.5s34.166 -3.16699 50.499 -9.5s29.833 -14.833 40.5 -25.5c11.333 -11.333 20.166 -24.833 26.499 -40.5
s9.5 -35.834 9.5 -60.501v-456zM251 587c0 28 -7 48.833 -21 62.5s-30.667 20.5 -50 20.5s-35.833 -6.83301 -49.5 -20.5s-20.5 -34.5 -20.5 -62.5v-462c0 -28 6.83301 -48.833 20.5 -62.5s30.167 -20.5 49.5 -20.5s36 6.83301 50 20.5s21 34.5 21 62.5v462z" />
    <glyph glyph-name="one" unicode="1" horiz-adv-x="361" 
d="M165 0v646l-102 -88v67l102 87h56v-712h-56z" />
    <glyph glyph-name="two" unicode="2" horiz-adv-x="361" 
d="M51 0l0.000976562 47l170 390c8.66699 19.333 16.5 41.5 23.5 66.5s10.5 52.833 10.5 83.5c0 28 -6.83301 48.833 -20.5 62.5s-30.167 20.5 -49.5 20.5s-36 -6.83301 -50 -20.5s-21 -34.5 -21 -62.5v-51h-56v50c0 23.333 3.16699 42.833 9.5 58.5
s15.166 29.167 26.499 40.5c10.667 10.667 24.167 19.167 40.5 25.5s33.166 9.5 50.499 9.5s33.833 -3 49.5 -9s28.834 -14.333 39.501 -25c11.333 -11.333 20.333 -25 27 -41s10 -36.333 10 -61c0 -27.333 -4.16699 -55.5 -12.5 -84.5s-17.833 -55.833 -28.5 -80.5
l-159 -369h200v-50h-260z" />
    <glyph glyph-name="three" unicode="3" horiz-adv-x="361" 
d="M307 196c0 -24.667 -0.665039 -45.8301 -1.99805 -63.4971s-3.5 -32.834 -6.5 -45.501s-7 -23.667 -12 -33s-11.5 -18.333 -19.5 -27c-10.667 -10.667 -24.167 -19.167 -40.5 -25.5s-33.166 -9.5 -50.499 -9.5s-34 3 -50 9s-29.333 14.333 -40 25
c-11.333 11.333 -20.333 24.666 -27 39.999s-10 35.666 -10 60.999v49h56v-50c0 -28 7 -49 21 -63s30.667 -21 50 -21c21.333 0 37.666 7 48.999 21c4.66699 5.33301 8.66699 11.166 12 17.499s6 14.5 8 24.5s3.5 22.333 4.5 37s1.5 32.667 1.5 54
c0 24.667 -0.333008 45 -1 61s-2 29 -4 39s-4.66699 17.833 -8 23.5s-7.33301 11.167 -12 16.5c-13.333 14 -30 21 -50 21h-41v49h41c20.667 0 35.667 5.66699 45 17c9.33301 9.33301 15.666 22.166 18.999 38.499s5 41.833 5 76.5c0 17.333 -0.5 32.166 -1.5 44.499
s-2.33301 22.833 -4 31.5s-3.83398 15.834 -6.50098 21.501s-6 10.834 -10 15.501c-10.667 12.667 -26.334 19 -47.001 19c-19.333 0 -35.166 -6.83301 -47.499 -20.5s-18.5 -34.5 -18.5 -62.5v-51h-56v49c0 24.667 3 45 9 61s14.667 29.333 26 40
c22.667 22.667 51.667 34 87 34c36.667 0 66 -11 88 -33c6.66699 -6.66699 12.334 -14 17.001 -22s8.5 -17.833 11.5 -29.5s5.16699 -25.167 6.5 -40.5s2 -33.666 2 -54.999c0 -34.667 -1.5 -60.334 -4.5 -77.001s-8.16699 -31.334 -15.5 -44.001
c-8.66699 -16 -22 -28.667 -40 -38c17.333 -9.33301 30.666 -20.666 39.999 -33.999c4.66699 -7.33301 8.66699 -14.666 12 -21.999s6 -16.5 8 -27.5s3.5 -24.5 4.5 -40.5s1.5 -36.333 1.5 -61z" />
    <glyph glyph-name="four" unicode="4" horiz-adv-x="361" 
d="M278 124v-124h-56v124h-188v50l180 538h55l-179 -538h132v199h56v-199h50v-50h-50z" />
    <glyph glyph-name="five" unicode="5" horiz-adv-x="361" 
d="M311 224c0 -28 -0.501953 -51.999 -1.50195 -71.999s-3 -37.333 -6 -52s-7.16699 -27.334 -12.5 -38.001s-12 -20.667 -20 -30c-10.667 -12.667 -24.167 -22.5 -40.5 -29.5s-33.166 -10.5 -50.499 -10.5s-34 2.83301 -50 8.5s-29.333 13.834 -40 24.501
c-11.333 11.333 -20.5 24.833 -27.5 40.5s-10.5 36.167 -10.5 61.5v47h56v-45c0 -30 7 -52 21 -66s31.333 -21 52 -21s37 8.33301 49 25c4.66699 6 8.5 12.667 11.5 20s5.5 16.833 7.5 28.5s3.5 26.167 4.5 43.5s1.5 39 1.5 65c0 25.333 -0.5 46.666 -1.5 63.999
s-2.5 32 -4.5 44s-4.66699 21.833 -8 29.5s-7 14.5 -11 20.5c-6 9.33301 -13.333 16 -22 20s-18 6 -28 6c-20 0 -37 -7.5 -51 -22.5s-21 -35.167 -21 -60.5v-33h-52v420h245v-50h-194v-252c7.33301 12.667 18.333 23.667 33 33c16 9.33301 34 14 54 14
c17.333 0 32.833 -3.5 46.5 -10.5s25.167 -16.5 34.5 -28.5c6.66699 -8 12.334 -17 17.001 -27s8.5 -22.333 11.5 -37s5 -32.5 6 -53.5s1.5 -46.5 1.5 -76.5z" />
    <glyph glyph-name="six" unicode="6" horiz-adv-x="361" 
d="M310 210c0 -26.667 -0.499023 -49.335 -1.49902 -68.002s-2.83301 -34.667 -5.5 -48s-6.33398 -25 -11.001 -35s-10.667 -19.333 -18 -28c-10 -12 -23.5 -21.5 -40.5 -28.5s-34.833 -10.5 -53.5 -10.5c-19.333 0 -37.166 3.33301 -53.499 10s-29.5 16.334 -39.5 29.001
c-7.33301 8.66699 -13.5 18 -18.5 28s-8.83301 21.667 -11.5 35s-4.5 29.333 -5.5 48s-1.5 41.334 -1.5 68.001c0 40 2.33301 75 7 105s12 58.667 22 86l115 311h56l-114 -306c17.333 14 36.666 21 57.999 21c33.333 0 60.333 -12 81 -36
c6.66699 -7.33301 12.167 -15 16.5 -23s7.83301 -18.5 10.5 -31.5s4.66699 -29.667 6 -50s2 -45.833 2 -76.5zM254.001 210.999c0 42.667 -1.49805 75 -4.49805 97s-9.5 38.667 -19.5 50c-6.66699 7.33301 -14.334 12.666 -23.001 15.999s-17.667 5 -27 5
s-18.333 -1.66699 -27 -5s-16.334 -8.66602 -23.001 -15.999c-10 -11.333 -16.5 -28 -19.5 -50s-4.5 -54.333 -4.5 -97c0 -43.333 1.66699 -76 5 -98s9.66602 -38.667 18.999 -50c6.66699 -7.33301 14.334 -12.666 23.001 -15.999s17.667 -5 27 -5s18.333 1.66699 27 5
s16.334 8.66602 23.001 15.999c9.33301 11.333 15.666 28 18.999 50s5 54.667 5 98z" />
    <glyph glyph-name="seven" unicode="7" horiz-adv-x="361" 
d="M124 0h-59l191 662h-154v-116h-55v166h267v-45z" />
    <glyph glyph-name="eight" unicode="8" horiz-adv-x="361" 
d="M310 196c0 -24.667 -0.49707 -45.668 -1.49707 -63.001s-3 -32.5 -6 -45.5s-7 -24.167 -12 -33.5s-11.5 -18.333 -19.5 -27c-10.667 -10.667 -24.167 -19.167 -40.5 -25.5s-33.166 -9.5 -50.499 -9.5s-34 3.16699 -50 9.5s-29.333 14.833 -40 25.5
c-8 8.66699 -14.667 17.667 -20 27s-9.5 20.5 -12.5 33.5s-5 28.167 -6 45.5s-1.5 38.333 -1.5 63s0.5 45 1.5 61s2.5 29.333 4.5 40s4.66699 19.5 8 26.5s7.33301 14.167 12 21.5c8.66699 14 22 25.667 40 35c-8.66699 4.66699 -16.334 10.334 -23.001 17.001
s-12.334 13.667 -17.001 21c-3.33301 6 -6.33301 12.5 -9 19.5s-4.83398 15 -6.50098 24s-3 19.833 -4 32.5s-1.5 27.667 -1.5 45c0 42 2.83301 73.667 8.5 95s15.5 39 29.5 53c23.333 22 52.333 33 87 33c36 0 65 -11 87 -33c14 -14 23.833 -31.667 29.5 -53
s8.5 -53 8.5 -95c0 -17.333 -0.333008 -32.333 -1 -45s-1.83398 -23.5 -3.50098 -32.5s-3.83398 -17 -6.50098 -24s-5.66699 -13.5 -9 -19.5c-9.33301 -15.333 -22.666 -28 -39.999 -38c18 -9.33301 31.333 -21 40 -35c4.66699 -7.33301 8.66699 -14.5 12 -21.5
s6 -15.833 8 -26.5s3.33301 -24 4 -40s1 -36.333 1 -61zM254.003 196.999c0 24 -0.333008 43.5 -1 58.5s-2 27.5 -4 37.5s-4.66699 18.167 -8 24.5s-7.33301 12.166 -12 17.499c-12 14 -28.333 21 -49 21s-37 -7 -49 -21c-4.66699 -5.33301 -8.66699 -11.166 -12 -17.499
s-6 -14.5 -8 -24.5s-3.33301 -22.5 -4 -37.5s-1 -34.5 -1 -58.5c0 -21.333 0.333008 -39.166 1 -53.499s2 -26.5 4 -36.5s4.66699 -18.5 8 -25.5s7.33301 -13.167 12 -18.5c12 -14 28.333 -21 49 -21s37 7 49 21c4.66699 5.33301 8.66699 11.5 12 18.5s6 15.5 8 25.5
s3.33301 22.167 4 36.5s1 32.166 1 53.499zM249.003 536.999c0 18 -0.334961 33.333 -1.00195 46s-2 23.334 -4 32.001s-4.5 15.834 -7.5 21.501s-6.5 10.834 -10.5 15.501c-12 12 -27.333 18 -46 18c-18 0 -33 -6 -45 -18c-4 -4.66699 -7.5 -9.83398 -10.5 -15.501
s-5.5 -12.834 -7.5 -21.501s-3.5 -19.334 -4.5 -32.001s-1.5 -28 -1.5 -46c0 -36 2 -62 6 -78s10.333 -28.333 19 -37c10.667 -11.333 25.334 -17 44.001 -17c19.333 0 34.333 5.66699 45 17c8.66699 8.66699 14.834 21 18.501 37s5.5 42 5.5 78z" />
    <glyph glyph-name="nine" unicode="9" horiz-adv-x="361" 
d="M310 502c0 -40 -2.33398 -74.999 -7.00098 -104.999s-12 -58.667 -22 -86l-114 -311h-57l115 306c-17.333 -14 -36.666 -21 -57.999 -21c-33.333 0 -60.333 12 -81 36c-6.66699 7.33301 -12.167 15.166 -16.5 23.499s-8 19 -11 32s-5.16699 29.5 -6.5 49.5
s-2 45.333 -2 76c0 26.667 0.5 49.5 1.5 68.5s3 35.167 6 48.5s6.83301 24.833 11.5 34.5s10.667 18.834 18 27.501c10.667 12.667 24.167 22.334 40.5 29.001s34.166 10 53.499 10s37 -3.33301 53 -10s29.333 -16.334 40 -29.001c7.33301 -9.33301 13.333 -18.833 18 -28.5
s8.33398 -21.334 11.001 -35.001s4.5 -29.667 5.5 -48s1.5 -40.833 1.5 -67.5zM253.999 501.001c0 43.333 -1.5 76 -4.5 98s-9.5 38.667 -19.5 50c-13.333 14 -30 21 -50 21c-20.667 0 -37.334 -7 -50.001 -21c-10 -11.333 -16.5 -28 -19.5 -50s-4.5 -54.667 -4.5 -98
s1.5 -75.833 4.5 -97.5s9.5 -38.167 19.5 -49.5c12.667 -14 29.334 -21 50.001 -21c20 0 36.667 7 50 21c10 11.333 16.5 27.833 19.5 49.5s4.5 54.167 4.5 97.5z" />
    <glyph glyph-name="colon" unicode=":" horiz-adv-x="227" 
d="M90 339v76h75v-76h-75zM90 0v75h75v-75h-75z" />
    <glyph glyph-name="semicolon" unicode=";" horiz-adv-x="227" 
d="M93 -99v176h69v-125zM90 339v76h75v-76h-75z" />
    <glyph glyph-name="less" unicode="&#x3c;" horiz-adv-x="361" 
d="M34 259v49l293 170v-63l-229 -131l229 -131v-63z" />
    <glyph glyph-name="equal" unicode="=" horiz-adv-x="431" 
d="M49 314v53h334v-53h-334zM49 171v53h334v-53h-334z" />
    <glyph glyph-name="greater" unicode="&#x3e;" horiz-adv-x="361" 
d="M34 90v63l229 131l-229 131v63l293 -170v-49z" />
    <glyph glyph-name="question" unicode="?" horiz-adv-x="375" 
d="M332 547c0 -23.333 -1.83203 -43.498 -5.49902 -60.498s-11.5 -35.167 -23.5 -54.5l-58 -93c-14.667 -22.667 -22 -47.334 -22 -74.001v-78h-56v85c0 15.333 2.33301 29.833 7 43.5s10.667 26.5 18 38.5l58 93c11.333 17.333 18.5 33.5 21.5 48.5s4.5 32.5 4.5 52.5
c0 27.333 -2.33301 48.166 -7 62.499s-11.667 26.166 -21 35.499c-13.333 14.667 -31.666 22 -54.999 22c-12 0 -22.333 -1.83301 -31 -5.5s-16.334 -8.83398 -23.001 -15.501c-11.333 -11.333 -18.5 -24.666 -21.5 -39.999s-4.5 -30.666 -4.5 -45.999h-56
c0 25.333 2.66699 48 8 68s15.666 37.333 30.999 52c11.333 11.333 25.333 20.333 42 27s35 10 55 10c41.333 0 74 -12.333 98 -37c13.333 -14 23.5 -30.667 30.5 -50s10.5 -47.333 10.5 -84zM158.001 0.00195312v75h75v-75h-75z" />
    <glyph glyph-name="at" unicode="@" horiz-adv-x="515" 
d="M399 0v41c-3.33301 -5.33301 -7.66602 -11 -12.999 -17s-10.333 -10.667 -15 -14c-17.333 -12 -37 -18 -59 -18c-17.333 0 -32.333 2.83301 -45 8.5s-24.334 14.167 -35.001 25.5c-10 10.667 -17.667 23.834 -23 39.501s-8 36.167 -8 61.5v223
c0 25.333 2.66699 45.666 8 60.999s13 28.333 23 39c10.667 11.333 22.334 19.833 35.001 25.5s27.667 8.5 45 8.5c13.333 0 24.333 -1.33301 33 -4s17.667 -6.66699 27 -12c4 -2.66699 8.5 -6.66699 13.5 -12s9.16699 -11 12.5 -17v128c0 32 -8.16699 56.167 -24.5 72.5
s-38.166 24.5 -65.499 24.5h-107c-26.667 0 -48.334 -8.16699 -65.001 -24.5s-25 -40.5 -25 -72.5v-466c0 -17.333 2.33301 -31.666 7 -42.999s11.334 -21 20.001 -29l-39 -38c-17.333 14.667 -29 31.167 -35 49.5s-9 39.166 -9 62.499v466c0 26 3.66699 47.333 11 64
s16.666 30.667 27.999 42s25.333 20.333 42 27s35.667 10 57 10h123c21.333 0 40.333 -3.33301 57 -10s30.667 -15.667 42 -27s20.666 -25.333 27.999 -42s11 -38 11 -64v-569h-55zM398 351c0 28 -6.83301 48.833 -20.5 62.5s-30.167 20.5 -49.5 20.5
s-36 -6.83301 -50 -20.5s-21 -34.5 -21 -62.5v-226c0 -28 7 -48.833 21 -62.5s30.667 -20.5 50 -20.5s35.833 6.83301 49.5 20.5s20.5 34.5 20.5 62.5v226z" />
    <glyph glyph-name="A" unicode="A" horiz-adv-x="379" 
d="M311 0l-39 195h-166l-38 -195h-64l159 712h55l156 -712h-63zM189 606l-71 -358h143z" />
    <glyph glyph-name="B" unicode="B" horiz-adv-x="416" 
d="M363 196c0 -22 -0.831055 -40.999 -2.49805 -56.999s-4.33398 -30 -8.00098 -42s-8.16699 -22.333 -13.5 -31s-12 -17 -20 -25c-14 -14.667 -30.5 -25.167 -49.5 -31.5s-43.5 -9.5 -73.5 -9.5h-127v712h128c29.333 0 53.166 -3 71.499 -9s34.5 -16.667 48.5 -32
c14.667 -16 25 -34.333 31 -55s9 -49.667 9 -87c0 -25.333 -2.66699 -48.833 -8 -70.5s-17 -41.834 -35 -60.501c-14.667 -14.667 -29.667 -24 -45 -28c20 -5.33301 36.667 -14.666 50 -27.999c19.333 -19.333 31.5 -41.333 36.5 -66s7.5 -51.334 7.5 -80.001z
M304.002 198.001c0 52 -9.16699 89.166 -27.5 111.499s-44.5 33.5 -78.5 33.5h-70v-290h70c16.667 0 31.667 2.16699 45 6.5s24.5 12 33.5 23s15.833 25.833 20.5 44.5s7 42.334 7 71.001zM298.002 527c0 26 -2.16797 47.5 -6.50098 64.5s-10.666 30.5 -18.999 40.5
s-18.833 17 -31.5 21s-27 6 -43 6h-70v-264h70c32 0 56.667 10 74 30s26 54 26 102z" />
    <glyph glyph-name="C" unicode="C" horiz-adv-x="399" 
d="M358 163c-0.666992 -28 -4.99707 -53.9961 -12.9971 -77.9961s-20.333 -43.667 -37 -59c-24.667 -22.667 -57.334 -34 -98.001 -34c-23.333 0 -43.833 3.66699 -61.5 11s-32.5 17.666 -44.5 30.999c-10.667 11.333 -19.334 24 -26.001 38s-11.667 32.5 -15 55.5
s-5.66602 52.667 -6.99902 89s-2 82.833 -2 139.5s0.666992 103.167 2 139.5s3.66602 66 6.99902 89s8.33301 41.5 15 55.5s15.334 26.667 26.001 38c12 13.333 26.833 23.666 44.5 30.999s38.167 11 61.5 11s43.166 -3.33301 59.499 -10s30.5 -16 42.5 -28
c15.333 -15.333 26.666 -34.5 33.999 -57.5s11.333 -48.167 12 -75.5h-59c0 18 -2 35.333 -6 52s-11.333 30.667 -22 42c-7.33301 7.33301 -15.833 13.166 -25.5 17.499s-21.5 6.5 -35.5 6.5c-26.667 0 -47.667 -8.66699 -63 -26
c-7.33301 -8.66699 -13.166 -18.5 -17.499 -29.5s-7.83301 -26.833 -10.5 -47.5s-4.33398 -47.5 -5.00098 -80.5s-1 -75.5 -1 -127.5s0.333008 -94.5 1 -127.5s2.33398 -59.833 5.00098 -80.5s6.16699 -36.5 10.5 -47.5s10.166 -20.833 17.499 -29.5
c15.333 -17.333 36.333 -26 63 -26c14 0 26 2.16699 36 6.5s18.333 10.166 25 17.499c10.667 11.333 18 25.5 22 42.5s6 34.167 6 51.5h59z" />
    <glyph glyph-name="D" unicode="D" horiz-adv-x="424" 
d="M371 356c0 -55.333 -0.666992 -100.833 -2 -136.5s-3.66602 -64.834 -6.99902 -87.501s-8.33301 -40.667 -15 -54s-15.334 -25.666 -26.001 -36.999c-12 -12.667 -26.833 -22.667 -44.5 -30s-38.167 -11 -61.5 -11h-146v712h146c23.333 0 43.833 -3.66699 61.5 -11
s32.5 -17.333 44.5 -30c10.667 -11.333 19.334 -23.666 26.001 -36.999s11.667 -31.333 15 -54s5.66602 -51.834 6.99902 -87.501s2 -81.167 2 -136.5zM312 356c0 50.667 -0.333008 92.167 -1 124.5s-2.33398 58.5 -5.00098 78.5s-6.16699 35.5 -10.5 46.5
s-10.5 20.5 -18.5 28.5c-14.667 16.667 -36.334 25 -65.001 25h-84v-606h84c28.667 0 50.334 8.33301 65.001 25c8 8 14.167 17.5 18.5 28.5s7.83301 26.5 10.5 46.5s4.33398 46.167 5.00098 78.5s1 73.833 1 124.5z" />
    <glyph glyph-name="E" unicode="E" horiz-adv-x="364" 
d="M69 0v712h248v-53h-189v-276h163v-53h-163v-277h189v-53h-248z" />
    <glyph glyph-name="F" unicode="F" horiz-adv-x="359" 
d="M128 659v-276h163v-53h-163v-330h-59v712h248v-53h-189z" />
    <glyph glyph-name="G" unicode="G" horiz-adv-x="412" 
d="M358 152c0 -26.667 -4 -49.999 -12 -69.999s-18.833 -36.667 -32.5 -50s-29.334 -23.333 -47.001 -30s-36.5 -10 -56.5 -10c-23.333 0 -43.833 3.66699 -61.5 11s-32.5 17.666 -44.5 30.999c-10.667 11.333 -19.334 24 -26.001 38s-11.667 32.5 -15 55.5
s-5.66602 52.667 -6.99902 89s-2 82.833 -2 139.5s0.666992 103.167 2 139.5s3.66602 66 6.99902 89s8.33301 41.5 15 55.5s15.334 26.667 26.001 38c12 13.333 26.833 23.666 44.5 30.999s38.167 11 61.5 11s43.5 -3.5 60.5 -10.5s31.5 -16.5 43.5 -28.5
c15.333 -16 26.333 -35.167 33 -57.5s10.334 -47.166 11.001 -74.499h-59c0 14 -1.33301 28.167 -4 42.5s-7.16699 27 -13.5 38s-15.333 20 -27 27s-26.5 10.5 -44.5 10.5c-26.667 0 -47.667 -8.66699 -63 -26c-7.33301 -8.66699 -13.166 -18.5 -17.499 -29.5
s-7.83301 -26.833 -10.5 -47.5s-4.33398 -47.5 -5.00098 -80.5s-1 -75.5 -1 -127.5s0.333008 -94.5 1 -127.5s2.33398 -59.833 5.00098 -80.5s6.16699 -36.5 10.5 -47.5s10.166 -20.833 17.499 -29.5c15.333 -17.333 36.333 -26 63 -26c26 0 47.333 9.33301 64 28
s25 45 25 79v175h-89v50h148v-225z" />
    <glyph glyph-name="H" unicode="H" horiz-adv-x="432" 
d="M304 0v336h-176v-336h-59v712h59v-323h176v323h59v-712h-59z" />
    <glyph glyph-name="I" unicode="I" horiz-adv-x="197" 
d="M69 0v712h59v-712h-59z" />
    <glyph glyph-name="J" unicode="J" horiz-adv-x="332" 
d="M271 153c0 -52 -14.001 -92.001 -42.001 -120.001c-14 -14 -30.167 -24.333 -48.5 -31s-38.166 -10 -59.499 -10c-47.333 0 -85 16.667 -113 50l43 39c8 -11.333 18 -20.166 30 -26.499s25.333 -9.5 40 -9.5c25.333 0 46.833 9 64.5 27s26.5 45 26.5 81v559h59v-559z" />
    <glyph glyph-name="K" unicode="K" horiz-adv-x="409" 
d="M335 0l-138 352l-69 -136v-216h-59v712h59v-387l189 387h63l-146 -294l165 -418h-64z" />
    <glyph glyph-name="L" unicode="L" horiz-adv-x="339" 
d="M69 0v712h59v-659h189v-53h-248z" />
    <glyph glyph-name="M" unicode="M" horiz-adv-x="557" 
d="M429 0v573l-130 -376h-43l-128 364v-561h-59v712h59l150 -419l151 419h59v-712h-59z" />
    <glyph glyph-name="N" unicode="N" horiz-adv-x="454" 
d="M327 0l-199 555v-555h-59v712h59l198 -555v555h59v-712h-58z" />
    <glyph glyph-name="O" unicode="O" horiz-adv-x="421" 
d="M367 356c0 -56.667 -0.666992 -103.167 -2 -139.5s-3.66602 -66 -6.99902 -89s-8.33301 -41.5 -15 -55.5s-15.334 -26.667 -26.001 -38c-12 -13.333 -27 -23.666 -45 -30.999s-38.667 -11 -62 -11s-43.833 3.66699 -61.5 11s-32.5 17.666 -44.5 30.999
c-10.667 11.333 -19.334 24 -26.001 38s-11.667 32.5 -15 55.5s-5.66602 52.667 -6.99902 89s-2 82.833 -2 139.5s0.666992 103.167 2 139.5s3.66602 66 6.99902 89s8.33301 41.5 15 55.5s15.334 26.667 26.001 38c12 13.333 26.833 23.666 44.5 30.999s38.167 11 61.5 11
s44 -3.66699 62 -11s33 -17.666 45 -30.999c10.667 -11.333 19.334 -24 26.001 -38s11.667 -32.5 15 -55.5s5.66602 -52.667 6.99902 -89s2 -82.833 2 -139.5zM308 356c0 52 -0.333984 94.5 -1.00098 127.5s-2.33398 59.833 -5.00098 80.5s-6.16699 36.5 -10.5 47.5
s-10.166 20.833 -17.499 29.5c-15.333 17.333 -36.666 26 -63.999 26c-26.667 0 -47.667 -8.66699 -63 -26c-7.33301 -8.66699 -13.166 -18.5 -17.499 -29.5s-7.83301 -26.833 -10.5 -47.5s-4.33398 -47.5 -5.00098 -80.5s-1 -75.5 -1 -127.5s0.333008 -94.5 1 -127.5
s2.33398 -59.833 5.00098 -80.5s6.16699 -36.5 10.5 -47.5s10.166 -20.833 17.499 -29.5c15.333 -17.333 36.333 -26 63 -26c14 0 26.333 2.33301 37 7s19.667 11 27 19c7.33301 8.66699 13.166 18.5 17.499 29.5s7.83301 26.833 10.5 47.5s4.33398 47.5 5.00098 80.5
s1 75.5 1 127.5z" />
    <glyph glyph-name="P" unicode="P" horiz-adv-x="410" 
d="M363 513c0 -42 -4.16699 -75.832 -12.5 -101.499s-19.5 -45.667 -33.5 -60s-30.333 -24 -49 -29s-38.334 -7.5 -59.001 -7.5h-81v-315h-59v712h140c20.667 0 40.334 -2.5 59.001 -7.5s35 -14.833 49 -29.5s25.167 -34.834 33.5 -60.501s12.5 -59.5 12.5 -101.5z
M304 513.001c0 30 -2.33301 54.5 -7 73.5s-11.334 33.833 -20.001 44.5s-19 18 -31 22s-25.333 6 -40 6h-78v-291h78c14.667 0 28 2 40 6s22.333 11.167 31 21.5s15.334 25 20.001 44s7 43.5 7 73.5z" />
    <glyph glyph-name="Q" unicode="Q" horiz-adv-x="421" 
d="M360 -25l-56.001 45.999c-12 -9.33301 -25.833 -16.5 -41.5 -21.5s-33.167 -7.5 -52.5 -7.5c-23.333 0 -43.833 3.66699 -61.5 11s-32.5 17.666 -44.5 30.999c-10.667 11.333 -19.334 24 -26.001 38s-11.667 32.5 -15 55.5s-5.66602 52.667 -6.99902 89
s-2 82.833 -2 139.5s0.666992 103.167 2 139.5s3.66602 66 6.99902 89s8.33301 41.5 15 55.5s15.334 26.667 26.001 38c12 13.333 26.833 23.666 44.5 30.999s38.167 11 61.5 11s44 -3.66699 62 -11s33 -17.666 45 -30.999c10.667 -11.333 19.334 -24 26.001 -38
s11.667 -32.5 15 -55.5s5.66602 -52.667 6.99902 -89s2 -82.833 2 -139.5c0 -49.333 -0.333008 -90.666 -1 -123.999s-2.16699 -61.166 -4.5 -83.499s-5.66602 -40.5 -9.99902 -54.5s-9.83301 -26.333 -16.5 -37l55 -47zM307.999 355.999
c0 52.667 -0.333984 95.501 -1.00098 128.501s-2.16699 59.667 -4.5 80s-5.83301 36.166 -10.5 47.499s-10.667 21.333 -18 30c-14.667 16.667 -36 25 -64 25c-27.333 0 -48.333 -8.33301 -63 -25c-7.33301 -8.66699 -13.333 -18.667 -18 -30
s-8.16699 -27.166 -10.5 -47.499s-3.83301 -47 -4.5 -80s-1 -75.833 -1 -128.5s0.333008 -95.5 1 -128.5s2.16699 -59.667 4.5 -80s5.83301 -36.166 10.5 -47.499s10.667 -21.333 18 -30c14.667 -16.667 35.667 -25 63 -25c20.667 0 37.334 4.33301 50.001 13l-56 48l30 35
l54 -45c4.66699 8.66699 8.33398 19.167 11.001 31.5s4.66699 28.166 6 47.499s2.16602 43.666 2.49902 72.999s0.5 65.333 0.5 108z" />
    <glyph glyph-name="R" unicode="R" horiz-adv-x="432" 
d="M323 0l-103 318.998h-92v-319h-59v712h140c21.333 0 41.333 -2.5 60 -7.5s35 -14.667 49 -29s25 -34.333 33 -60s12 -59.167 12 -100.5c0 -55.333 -7.33301 -97.166 -22 -125.499s-36.667 -48.166 -66 -59.499l111 -330h-63zM304 514.998c0 46 -6.5 81.5 -19.5 106.5
s-37.5 37.5 -73.5 37.5h-83v-287h83c36 0 60.5 12.333 73.5 37s19.5 60 19.5 106z" />
    <glyph glyph-name="S" unicode="S" horiz-adv-x="396" 
d="M350 186c0 -38 -3.33789 -69.167 -10.0049 -93.5s-18 -44.5 -34 -60.5c-12 -12 -27.167 -21.333 -45.5 -28s-40.166 -10 -65.499 -10c-49.333 0 -86.666 12.667 -111.999 38c-8 8 -14.667 16.5 -20 25.5s-9.66602 19.167 -12.999 30.5s-5.66602 24.333 -6.99902 39
s-2 31.667 -2 51h59c0 -28 1.83301 -50 5.5 -66s11.167 -29.667 22.5 -41c16 -16 38.333 -24 67 -24c16.667 0 30.334 2.16699 41.001 6.5s19.667 10.166 27 17.499c11.333 12.667 18.833 27.667 22.5 45s5.5 40 5.5 68c0 22 -1 40.833 -3 56.5s-5.83301 29.167 -11.5 40.5
s-13.334 20.833 -23.001 28.5s-22.167 14.5 -37.5 20.5l-76 31c-18 7.33301 -33.167 15.833 -45.5 25.5s-22 21.334 -29 35.001s-12 30 -15 49s-4.5 41.833 -4.5 68.5c0 30.667 4 58 12 82s20.333 43.667 37 59c26.667 25.333 61.334 38 104.001 38c45.333 0 81 -13 107 -39
c17.333 -17.333 28.833 -36.833 34.5 -58.5s8.5 -48.167 8.5 -79.5h-59c0 22.667 -1.83301 41.667 -5.5 57s-10.834 29 -21.501 41c-7.33301 8 -16.166 14.333 -26.499 19s-23.166 7 -38.499 7c-14 0 -26 -2 -36 -6s-18.667 -9.66699 -26 -17
c-11.333 -11.333 -19.333 -25.666 -24 -42.999s-7 -37 -7 -59c0 -20.667 1 -37.834 3 -51.501s5.66699 -25.5 11 -35.5s13.166 -18.5 23.499 -25.5s23.5 -13.833 39.5 -20.5l76 -31c19.333 -8 35 -17.5 47 -28.5s21.333 -24.167 28 -39.5s11.167 -33 13.5 -53
s3.5 -43 3.5 -69z" />
    <glyph glyph-name="T" unicode="T" horiz-adv-x="341" 
d="M200 659v-659h-59v659h-119v53h297v-53h-119z" />
    <glyph glyph-name="U" unicode="U" horiz-adv-x="417" 
d="M356 148c0 -25.333 -3.66797 -47.5 -11.001 -66.5s-17.666 -35.167 -30.999 -48.5c-28.667 -27.333 -63.667 -41 -105 -41s-76.333 13.667 -105 41c-13.333 13.333 -23.833 29.5 -31.5 48.5s-11.5 41.167 -11.5 66.5v564h59v-569c0 -30.667 8.66699 -54.667 26 -72
s38.333 -26 63 -26s45.5 8.66699 62.5 26s25.5 41.333 25.5 72v569h59v-564z" />
    <glyph glyph-name="V" unicode="V" horiz-adv-x="370" 
d="M214 0h-58l-152 712h65l116 -606l116 606h65z" />
    <glyph glyph-name="W" unicode="W" horiz-adv-x="587" 
d="M475 0h-62l-119 607l-118 -607h-62l-110 712h65l76 -606l115 606h67l117 -606l75 606h64z" />
    <glyph glyph-name="X" unicode="X" horiz-adv-x="372" 
d="M289 0l-103 308l-102 -308h-65l132 371l-121 341h65l91 -282l92 282h64l-124 -341l135 -371h-64z" />
    <glyph glyph-name="Y" unicode="Y" horiz-adv-x="315" 
d="M187 298v-298h-59v298l-125 414h65l89 -326l90 326h65z" />
    <glyph glyph-name="Z" unicode="Z" horiz-adv-x="324" 
d="M30 0v46l203 613h-189v53h250v-46l-202 -613h202v-53h-264z" />
    <glyph glyph-name="bracketleft" unicode="[" horiz-adv-x="236" 
d="M62 -74v860h144v-48h-88v-764h88v-48h-144z" />
    <glyph glyph-name="backslash" unicode="\" horiz-adv-x="246" 
d="M187 -74l-185 860h57l185 -860h-57z" />
    <glyph glyph-name="bracketright" unicode="]" horiz-adv-x="236" 
d="M30 -74v48h88v764h-88v48h144v-860h-144z" />
    <glyph glyph-name="asciicircum" unicode="^" horiz-adv-x="448" 
d="M321 439l-97 221l-97 -221h-58l129 279h52l128 -279h-57z" />
    <glyph glyph-name="underscore" unicode="_" horiz-adv-x="431" 
d="M0 -134v44h431v-44h-431z" />
    <glyph glyph-name="grave" unicode="`" horiz-adv-x="354" 
d="M156 586l-75 130h58l66 -130h-49z" />
    <glyph glyph-name="a" unicode="a" horiz-adv-x="352" 
d="M240 0l-0.00292969 46.001c-3.33301 -7.33301 -7.66602 -14 -12.999 -20s-10.333 -10.667 -15 -14c-8 -6 -16.667 -10.833 -26 -14.5s-21 -5.5 -35 -5.5c-32 0 -59 11.333 -81 34c-9.33301 10 -17.166 24.667 -23.499 44s-9.5 43 -9.5 71c0 24 3.5 45.833 10.5 65.5
s17.833 36.167 32.5 49.5c12.667 11.333 26.667 19.833 42 25.5s34.666 8.5 57.999 8.5h58v91c0 28 -5.83301 49.5 -17.5 64.5s-29.167 22.5 -52.5 22.5c-10 0 -18.833 -1.83301 -26.5 -5.5s-14.167 -8.16699 -19.5 -13.5c-8 -8.66699 -13.833 -18.334 -17.5 -29.001
s-5.5 -24.667 -5.5 -42h-56c0 19.333 2.5 38 7.5 56s14.833 34.333 29.5 49c10.667 10.667 23.334 19 38.001 25s31.334 9 50.001 9c40.667 0 71 -10.667 91 -32c11.333 -12 20 -26.333 26 -43s9 -37.667 9 -63v-379h-54zM237.997 246.001l-55.998 -0.000976562
c-13.333 0 -24.833 -1.66699 -34.5 -5s-18.834 -9 -27.501 -17c-8.66699 -8.66699 -15.334 -20.167 -20.001 -34.5s-7 -30.166 -7 -47.499c0 -30.667 5.66699 -55 17 -73s29.333 -27 54 -27c22.667 0 40.667 8.66699 54 26s20 39.333 20 66v112z" />
    <glyph glyph-name="b" unicode="b" horiz-adv-x="365" 
d="M321 254c0 -32 -0.501953 -60.166 -1.50195 -84.499s-2.83301 -45.5 -5.5 -63.5s-6.5 -33.333 -11.5 -46s-11.5 -23.334 -19.5 -32.001c-21.333 -24 -48 -36 -80 -36c-22.667 0 -41.667 5.66699 -57 17c-5.33301 3.33301 -10.666 8 -15.999 14
s-9.66602 11.667 -12.999 17v-40h-55v712h56v-242c3.33301 5.33301 7.5 10.833 12.5 16.5s10.167 10.167 15.5 13.5c15.333 11.333 34.333 17 57 17c32 0 58.667 -12 80 -36c8 -9.33301 14.5 -20.333 19.5 -33s8.83301 -28 11.5 -46s4.5 -39.167 5.5 -63.5
s1.5 -52.5 1.5 -84.5zM264.998 254.001c0 28.667 -0.333008 53.3311 -1 73.998s-1.83398 38.5 -3.50098 53.5s-4.16699 27.5 -7.5 37.5s-8 18.333 -14 25c-5.33301 6.66699 -12.166 12.167 -20.499 16.5s-17.833 6.5 -28.5 6.5c-19.333 0 -35.333 -6.33301 -48 -19
c-16 -15.333 -24 -38.666 -24 -69.999v-247c0 -32 8 -55.333 24 -70c12.667 -12.667 28.667 -19 48 -19c10.667 0 20.167 2 28.5 6s15.166 9.33301 20.499 16c6 6.66699 10.667 15 14 25s5.83301 22.5 7.5 37.5s2.83398 32.833 3.50098 53.5s1 45.334 1 74.001z" />
    <glyph glyph-name="c" unicode="c" horiz-adv-x="340" 
d="M303 134c-0.666992 -24 -3.5 -44.8311 -8.5 -62.498s-14.167 -33.167 -27.5 -46.5c-22 -22 -52 -33 -90 -33c-40 0 -71.333 13.333 -94 40c-15.333 18 -25.5 44.5 -30.5 79.5s-7.5 82.5 -7.5 142.5s2.5 107.5 7.5 142.5s15.167 61.5 30.5 79.5c22 27.333 53.333 41 94 41
c19.333 0 36.333 -2.5 51 -7.5s27.667 -13.167 39 -24.5c15.333 -14.667 25 -31.5 29 -50.5s6.33301 -39.167 7 -60.5h-55c0 13.333 -1 26.166 -3 38.499s-7.66699 23.5 -17 33.5c-12 14 -28.667 21 -50 21c-22.667 0 -40 -7.66699 -52 -23
c-11.333 -14 -18.333 -35.5 -21 -64.5s-4 -70.833 -4 -125.5s1.33301 -96.334 4 -125.001s9.66699 -50 21 -64c12 -15.333 29.333 -23 52 -23c19.333 0 35.666 6.66699 48.999 20c8.66699 9.33301 14.334 19.833 17.001 31.5s4 25.167 4 40.5h55z" />
    <glyph glyph-name="d" unicode="d" horiz-adv-x="365" 
d="M248 0l0.000976562 41.001c-2.66699 -5.33301 -6.83398 -11 -12.501 -17s-10.834 -10.667 -15.501 -14c-17.333 -12 -36.666 -18 -57.999 -18c-32 0 -58.333 12 -79 36c-15.333 17.333 -25.5 43.5 -30.5 78.5s-7.5 84.167 -7.5 147.5c0 32 0.5 60 1.5 84s3 45 6 63
s6.83301 33.5 11.5 46.5s11 24.167 19 33.5c9.33301 11.333 20.333 20.166 33 26.499s28 9.5 46 9.5c24 0 43.333 -5.33301 58 -16c4.66699 -3.33301 9.5 -7.83301 14.5 -13.5s9.16699 -11.167 12.5 -16.5v241h56v-712h-55zM247.001 378.001
c0 31.333 -7.66699 54.6689 -23 70.002c-14 12.667 -30.333 19 -49 19c-10 0 -19.167 -2.16699 -27.5 -6.5s-15.166 -9.83301 -20.499 -16.5c-6 -6.66699 -10.667 -14.834 -14 -24.501s-5.83301 -22 -7.5 -37s-2.83398 -33 -3.50098 -54s-1 -45.833 -1 -74.5
s0.333008 -53.5 1 -74.5s1.83398 -38.833 3.50098 -53.5s4.16699 -27 7.5 -37s8 -18.333 14 -25c5.33301 -6.66699 12.166 -12 20.499 -16s17.5 -6 27.5 -6c18.667 0 35 6.33301 49 19c15.333 15.333 23 38.666 23 69.999v247z" />
    <glyph glyph-name="e" unicode="e" horiz-adv-x="349" 
d="M101 246c0 -52 1.50098 -91.832 4.50098 -119.499s10.167 -48.167 21.5 -61.5c5.33301 -6.66699 12.333 -12.167 21 -16.5s18.667 -6.5 30 -6.5c10 0 19.5 1.5 28.5 4.5s16.833 8.16699 23.5 15.5c14.667 15.333 22 39.333 22 72h55
c0 -24.667 -2.83301 -45.334 -8.5 -62.001s-15.167 -31.667 -28.5 -45c-22.667 -23.333 -53.334 -35 -92.001 -35c-38 0 -68.667 12.333 -92 37c-16.667 18 -27.667 44.833 -33 80.5s-8 83.834 -8 144.501c0 61.333 2.5 109.666 7.5 144.999s16.167 62.333 33.5 81
c22.667 24.667 53 37 91 37s68.333 -12.333 91 -37c16.667 -18.667 27.667 -46.167 33 -82.5s8 -86.833 8 -151.5h-208zM253.001 291.001c-0.666992 44 -2.66895 77.667 -6.00195 101s-10 40.666 -20 51.999c-5.33301 6.66699 -12.166 12.167 -20.499 16.5
s-18.166 6.5 -29.499 6.5s-21.333 -2.16699 -30 -6.5s-15.667 -9.83301 -21 -16.5c-10 -11.333 -16.5 -28.666 -19.5 -51.999s-4.83301 -57 -5.5 -101h152z" />
    <glyph glyph-name="f" unicode="f" horiz-adv-x="237" 
d="M134 465v-464.998h-56v465h-62v44h62v69c0 45.333 12.667 79.666 38 102.999c14.667 13.333 31 22.166 49 26.499s36.667 6.5 56 6.5v-51c-58 0 -87 -28.333 -87 -85v-69h87v-44h-87z" />
    <glyph glyph-name="g" unicode="g" horiz-adv-x="365" 
d="M303 -15c0 -21.333 -0.662109 -39.8311 -1.99512 -55.498s-3.5 -29.334 -6.5 -41.001s-6.83301 -22 -11.5 -31s-10.667 -17.5 -18 -25.5c-10.667 -11.333 -23.834 -20.333 -39.501 -27s-32.834 -10 -51.501 -10c-18 0 -35 2.83301 -51 8.5s-29.667 14.167 -41 25.5
c-13.333 13.333 -22.5 28.666 -27.5 45.999s-7.5 37.666 -7.5 60.999h55c0 -15.333 1.33301 -29 4 -41s8.66699 -22.667 18 -32c12 -12.667 28.333 -19 49 -19c11.333 0 21.166 2 29.499 6s15.166 9.33301 20.499 16c9.33301 10 15.666 24.167 18.999 42.5s5 43.5 5 75.5v65
c-3.33301 -5.33301 -7.33301 -10.666 -12 -15.999s-9.66699 -9.66602 -15 -12.999c-8 -5.33301 -16.5 -9.5 -25.5 -12.5s-19.5 -4.5 -31.5 -4.5c-32 0 -58.333 11.667 -79 35c-8 8.66699 -14.5 19.167 -19.5 31.5s-9 27.166 -12 44.499s-5 38 -6 62s-1.5 52 -1.5 84
s0.5 60 1.5 84s3 44.667 6 62s7 32 12 44s11.5 22.333 19.5 31c20.667 24 47 36 79 36c12 0 22.667 -1.5 32 -4.5s18 -7.16699 26 -12.5c11.333 -8 20.333 -18 27 -30v39h55v-524zM247.005 378.002c0 31.333 -7.66602 54.666 -22.999 69.999c-14 12.667 -30.333 19 -49 19
c-10 0 -19.167 -2.16699 -27.5 -6.5s-15.166 -9.83301 -20.499 -16.5c-6 -6.66699 -10.667 -14.834 -14 -24.501s-5.83301 -21.667 -7.5 -36s-2.83398 -31.666 -3.50098 -51.999s-1 -44.5 -1 -72.5s0.333008 -52.167 1 -72.5s1.83398 -37.833 3.50098 -52.5
s4.16699 -26.667 7.5 -36s8 -17.333 14 -24c5.33301 -6.66699 12.166 -12 20.499 -16s17.5 -6 27.5 -6c21.333 0 37.666 6 48.999 18c7.33301 8.66699 13 18.334 17 29.001s6 24.667 6 42v237z" />
    <glyph glyph-name="h" unicode="h" horiz-adv-x="373" 
d="M259 0l-0.00195312 382.999c0 26.667 -6.5 47.167 -19.5 61.5s-29.833 21.5 -50.5 21.5s-37.667 -7.16699 -51 -21.5s-20 -34.833 -20 -61.5v-383h-56v712h56v-243c2.66699 5.33301 6.83398 10.833 12.501 16.5s10.834 10.167 15.501 13.5c17.333 12 36.666 18 57.999 18
c17.333 0 32.333 -3 45 -9s24.334 -14.667 35.001 -26c10 -10.667 17.667 -23.667 23 -39s8 -35.666 8 -60.999v-382h-56z" />
    <glyph glyph-name="i" unicode="i" horiz-adv-x="181" 
d="M62 0v509h56v-509h-56zM54 626v72h72v-72h-72z" />
    <glyph glyph-name="j" unicode="j" horiz-adv-x="181" 
d="M118 -68c0 -25.333 -3.33301 -46 -10 -62s-16 -29.667 -28 -41c-14 -13.333 -29.5 -22 -46.5 -26s-35.167 -6 -54.5 -6v50c25.333 0 45.5 6.33301 60.5 19s22.5 35 22.5 67v576h56v-577zM54 626v72h72v-72h-72z" />
    <glyph glyph-name="k" unicode="k" horiz-adv-x="373" 
d="M295 0l-110 265l-67 -106v-159h-56v712h56v-470l161 267h61l-120 -195l137 -314h-62z" />
    <glyph glyph-name="l" unicode="l" horiz-adv-x="212" 
d="M196 0c-19.333 0 -37.5 2.00195 -54.5 6.00195s-32.5 12.667 -46.5 26c-12 11.333 -21.333 25.166 -28 41.499s-10 37.166 -10 62.499v576h56v-576c0 -28 6.83301 -49.333 20.5 -64s34.5 -22 62.5 -22v-50z" />
    <glyph glyph-name="m" unicode="m" horiz-adv-x="570" 
d="M456 0v382.998c0 28 -6.83301 48.833 -20.5 62.5s-30.167 20.5 -49.5 20.5s-36 -6.83301 -50 -20.5s-21 -34.5 -21 -62.5v-383h-56v383c0 28 -6.83301 48.833 -20.5 62.5s-30.167 20.5 -49.5 20.5s-36 -6.83301 -50 -20.5s-21 -34.5 -21 -62.5v-383h-56v509h55v-41
c3.33301 5.33301 7.83301 11 13.5 17s10.834 10.667 15.501 14c17.333 12 36.666 18 57.999 18c19.333 0 37.5 -5.16699 54.5 -15.5s30.5 -23.166 40.5 -38.499c4.66699 6.66699 10 13.334 16 20.001s12.333 12 19 16c8.66699 5.33301 18.167 9.66602 28.5 12.999
s21.166 5 32.499 5c21.333 0 38.333 -3 51 -9s24.334 -14.667 35.001 -26c10 -10.667 17.667 -23.667 23 -39s8 -35.666 8 -60.999v-382h-56z" />
    <glyph glyph-name="n" unicode="n" horiz-adv-x="373" 
d="M259 0l-0.000976562 382.999c0 28 -6.83301 48.833 -20.5 62.5s-30.167 20.5 -49.5 20.5s-36 -6.83301 -50 -20.5s-21 -34.5 -21 -62.5v-383h-56v509h55v-41c3.33301 5.33301 7.83301 11 13.5 17s10.834 10.667 15.501 14c17.333 12 36.666 18 57.999 18
c17.333 0 32.333 -3 45 -9s24.334 -14.667 35.001 -26c10 -10.667 17.667 -23.667 23 -39s8 -35.666 8 -60.999v-382h-56z" />
    <glyph glyph-name="o" unicode="o" horiz-adv-x="353" 
d="M309 254c0 -60 -2.5 -107.333 -7.5 -142s-15.167 -61.334 -30.5 -80.001c-22 -26.667 -53.333 -40 -94 -40s-72 13.333 -94 40c-15.333 18.667 -25.5 45.334 -30.5 80.001s-7.5 82 -7.5 142s2.5 107.333 7.5 142s15.167 61.334 30.5 80.001c22 27.333 53.333 41 94 41
s72 -13.667 94 -41c15.333 -18.667 25.5 -45.334 30.5 -80.001s7.5 -82 7.5 -142zM253 254c0 54.667 -1.5 96.5 -4.5 125.5s-10.167 50.5 -21.5 64.5c-5.33301 6.66699 -12.166 12.167 -20.499 16.5s-18.166 6.5 -29.499 6.5s-21.333 -2.16699 -30 -6.5
s-15.667 -9.83301 -21 -16.5c-11.333 -14 -18.333 -35.5 -21 -64.5s-4 -70.833 -4 -125.5s1.33301 -96.334 4 -125.001s9.66699 -50 21 -64c5.33301 -6.66699 12.333 -12.167 21 -16.5s18.667 -6.5 30 -6.5s21.166 2.16699 29.499 6.5s15.166 9.83301 20.499 16.5
c11.333 14 18.5 35.333 21.5 64s4.5 70.334 4.5 125.001z" />
    <glyph glyph-name="p" unicode="p" horiz-adv-x="366" 
d="M321 254c0 -63.333 -2.50195 -112.332 -7.50195 -146.999s-15.167 -61 -30.5 -79c-10.667 -12 -22.167 -21 -34.5 -27s-27.166 -9 -44.499 -9c-23.333 0 -42.666 5.33301 -57.999 16c-4.66699 3.33301 -9.66699 7.83301 -15 13.5s-9.66602 11.167 -12.999 16.5v-241h-56
v712h55v-41c2.66699 5.33301 7 11 13 17s11.333 10.667 16 14c8 5.33301 16.667 9.66602 26 12.999s20 5 32 5c31.333 0 57.666 -12 78.999 -36c15.333 -18 25.5 -44.5 30.5 -79.5s7.5 -84.167 7.5 -147.5zM264.998 254.001c0 28.667 -0.333008 53.498 -1 74.498
s-1.83398 39 -3.50098 54s-4.16699 27.333 -7.5 37s-8 17.834 -14 24.501c-5.33301 6.66699 -12.166 12.167 -20.499 16.5s-17.833 6.5 -28.5 6.5c-19.333 0 -35.333 -6.33301 -48 -19c-16 -15.333 -24 -38.666 -24 -69.999v-247c0 -32 8 -55.333 24 -70
c12.667 -12.667 28.667 -19 48 -19c10.667 0 20.167 2 28.5 6s15.166 9.33301 20.499 16c6 6.66699 10.667 15 14 25s5.83301 22.333 7.5 37s2.83398 32.5 3.50098 53.5s1 45.833 1 74.5z" />
    <glyph glyph-name="q" unicode="q" horiz-adv-x="365" 
d="M247 -203l-0.000976562 241c-3.33301 -5.33301 -7.5 -10.833 -12.5 -16.5s-9.83301 -10.167 -14.5 -13.5c-16.667 -10.667 -36 -16 -58 -16c-18 0 -33.333 3.33301 -46 10s-23.667 15.334 -33 26.001c-8 8.66699 -14.5 19.5 -19.5 32.5s-8.83301 28.5 -11.5 46.5
s-4.5 39.167 -5.5 63.5s-1.5 52.166 -1.5 83.499c0 62.667 2.33301 111.667 7 147s15 62 31 80c20.667 24 47 36 79 36c21.333 0 40.666 -6 57.999 -18c4.66699 -3.33301 9.83398 -8 15.501 -14s9.83398 -11.667 12.501 -17v41h55v-712h-56zM246.999 378
c0 31.333 -7.66602 54.668 -22.999 70.001c-14 12.667 -30.333 19 -49 19c-10 0 -19.167 -2.16699 -27.5 -6.5s-15.166 -9.83301 -20.499 -16.5c-6 -6.66699 -10.667 -14.834 -14 -24.501s-5.83301 -22 -7.5 -37s-2.83398 -33 -3.50098 -54s-1 -45.833 -1 -74.5
c0 -57.333 1.5 -100.166 4.5 -128.499s10.167 -48.833 21.5 -61.5c5.33301 -6.66699 12.166 -12 20.499 -16s17.5 -6 27.5 -6c18.667 0 35 6.33301 49 19c15.333 15.333 23 38.666 23 69.999v247z" />
    <glyph glyph-name="r" unicode="r" horiz-adv-x="245" 
d="M217 464c-30 0 -54 -8.83105 -72 -26.498s-27 -41.834 -27 -72.501v-365h-56v509h55v-54c2.66699 5.33301 6.5 11.166 11.5 17.499s9.5 11.166 13.5 14.499c11.333 10.667 24.333 18.334 39 23.001s30.667 7 48 7v-53h-12z" />
    <glyph glyph-name="s" unicode="s" horiz-adv-x="336" 
d="M303 130c0 -20 -3.66504 -38.498 -10.998 -55.498s-17 -31.5 -29 -43.5c-26 -26 -58.333 -39 -97 -39c-38 0 -69 12 -93 36c-14.667 15.333 -25 32.166 -31 50.499s-9 38.166 -9 59.499h56c0 -16 2 -30.167 6 -42.5s10.667 -23.166 20 -32.499c14 -14 31 -21 51 -21
c23.333 0 42.666 7.66699 57.999 23s23 36.333 23 63c0 22 -4.66699 40.333 -14 55c-10.667 16.667 -27.667 31.334 -51 44.001l-64 35c-16 9.33301 -29.667 19.333 -41 30s-19.666 20.667 -24.999 30c-9.33301 18 -14 39.333 -14 64c0 19.333 3.66699 37.166 11 53.499
s17 30.5 29 42.5c23.333 23.333 53.666 35 90.999 35c38 0 68.333 -11.333 91 -34c24.667 -24.667 37 -61.334 37 -110.001h-56c0 19.333 -1.66699 34.333 -5 45s-9 20.334 -17 29.001c-7.33301 7.33301 -15.166 12.5 -23.499 15.5s-17.166 4.5 -26.499 4.5
c-22.667 0 -40.334 -6.33301 -53.001 -19c-8 -7.33301 -13.667 -16.5 -17 -27.5s-5 -21.833 -5 -32.5c0 -18 3.33301 -32.667 10 -44c3.33301 -6.66699 9.16602 -13 17.499 -19s18.166 -12.333 29.499 -19l63 -36c32.667 -18 55.667 -38 69 -60
c7.33301 -11.333 12.5 -23.833 15.5 -37.5s4.5 -27.834 4.5 -42.501z" />
    <glyph glyph-name="t" unicode="t" horiz-adv-x="245" 
d="M225 0c-20.667 0 -40.168 1.83301 -58.501 5.5s-35.166 12.5 -50.499 26.5c-25.333 23.333 -38 58 -38 104v329h-62v44h62v149h56v-149h87v-44h-87v-329c0 -30.667 7.66699 -52.667 23 -66s38 -20 68 -20v-50z" />
    <glyph glyph-name="u" unicode="u" horiz-adv-x="373" 
d="M256 0l0.000976562 40.999c-3.33301 -5.33301 -7.83301 -11 -13.5 -17s-10.834 -10.667 -15.501 -14c-17.333 -12 -36.666 -18 -57.999 -18c-17.333 0 -32.333 2.83301 -45 8.5s-24.334 14.167 -35.001 25.5c-10 10.667 -17.667 23.834 -23 39.501s-8 36.167 -8 61.5v382
h56v-383c0 -28 6.83301 -48.833 20.5 -62.5s30.167 -20.5 49.5 -20.5s36 6.83301 50 20.5s21 34.5 21 62.5v383h56v-509h-55z" />
    <glyph glyph-name="v" unicode="v" horiz-adv-x="305" 
d="M182 0h-59l-119 509h62l87 -421l87 421h61z" />
    <glyph glyph-name="w" unicode="w" horiz-adv-x="474" 
d="M371 0h-60l-77 416l-73 -416h-60l-97 509h65l63 -421l74 421h56l78 -421l65 421h65z" />
    <glyph glyph-name="x" unicode="x" horiz-adv-x="321" 
d="M242 0l-81 210l-82 -210h-62l112 259l-106 250h62l76 -202l75 202h62l-108 -250l114 -259h-62z" />
    <glyph glyph-name="y" unicode="y" horiz-adv-x="308" 
d="M157 -99c-9.33301 -39.333 -26.666 -66.5 -51.999 -81.5s-57.333 -22.5 -96 -22.5v50c28 0 49.167 5.5 63.5 16.5s24.166 27.167 29.499 48.5l23 90l-121 507h62l87 -420l87 420h61z" />
    <glyph glyph-name="z" unicode="z" horiz-adv-x="276" 
d="M22 0v44l172 415h-162v50h223v-44l-172 -415h172v-50h-233z" />
    <glyph glyph-name="braceleft" unicode="{" horiz-adv-x="287" 
d="M234 -74c-16.667 0 -32.5 2.99902 -47.5 8.99902s-27.5 14 -37.5 24c-10.667 10.667 -19 23.667 -25 39s-9 34.666 -9 57.999v194c0 26.667 -6.5 46.834 -19.5 60.501s-29.167 20.5 -48.5 20.5h-17v50h17c19.333 0 35.5 6.83301 48.5 20.5s19.5 33.834 19.5 60.501v194
c0 23.333 3 42.666 9 57.999s14.333 28.333 25 39c10 10 22.5 18 37.5 24s30.833 9 47.5 9h24v-50h-18c-19.333 0 -35.666 -6.83301 -48.999 -20.5s-20 -33.834 -20 -60.501v-191c0 -22.667 -2.66699 -41.167 -8 -55.5s-12.666 -26.166 -21.999 -35.499
c-6.66699 -6.66699 -15.667 -12.334 -27 -17.001c5.33301 -1.33301 10.333 -3.66602 15 -6.99902s8.66699 -6.66602 12 -9.99902c9.33301 -9.33301 16.666 -21.166 21.999 -35.499s8 -32.833 8 -55.5v-191c0 -26.667 6.66699 -46.834 20 -60.501s29.666 -20.5 48.999 -20.5
h18v-50h-24z" />
    <glyph glyph-name="bar" unicode="|" horiz-adv-x="251" 
d="M97 -74v860h56v-860h-56z" />
    <glyph glyph-name="braceright" unicode="}" horiz-adv-x="287" 
d="M240 331c-19.333 0 -35.5 -6.83301 -48.5 -20.5s-19.5 -33.834 -19.5 -60.501v-194c0 -23.333 -3 -42.666 -9 -57.999s-14.333 -28.333 -25 -39c-10 -10 -22.5 -18 -37.5 -24s-30.833 -9 -47.5 -9h-23v50h17c19.333 0 35.666 6.83301 48.999 20.5s20 33.834 20 60.501
v191c0 22.667 2.83301 41.167 8.5 55.5s13.167 26.166 22.5 35.499c7.33301 7.33301 16 13 26 17c-10 3.33301 -18.667 9 -26 17c-9.33301 9.33301 -16.833 21.166 -22.5 35.499s-8.5 32.833 -8.5 55.5v191c0 26.667 -6.66699 46.834 -20 60.501s-29.666 20.5 -48.999 20.5
h-17v50h23c16.667 0 32.5 -3 47.5 -9s27.5 -14 37.5 -24c10.667 -10.667 19 -23.667 25 -39s9 -34.666 9 -57.999v-194c0 -26.667 6.5 -46.834 19.5 -60.501s29.167 -20.5 48.5 -20.5h18v-50h-18z" />
    <glyph glyph-name="asciitilde" unicode="~" horiz-adv-x="431" 
d="M385 283c-21.333 -21.333 -39.0029 -35.502 -53.0029 -42.502s-29.333 -10.5 -46 -10.5c-12 0 -23.667 1.83301 -35 5.5s-26.666 9.83398 -45.999 18.501c-16 7.33301 -28 12.333 -36 15s-16 4 -24 4c-11.333 0 -21.166 -2.16699 -29.499 -6.5
s-19.833 -13.833 -34.5 -28.5l-34 34c10.667 10.667 20.167 19.5 28.5 26.5s16.333 12.5 24 16.5s15 6.83301 22 8.5s14.833 2.5 23.5 2.5c14 0 27.5 -2.66699 40.5 -8l40.5 -17c10.667 -5.33301 20.667 -9.66602 30 -12.999s19.333 -5 30 -5c11.333 0 21.333 2 30 6
s20.334 13.333 35.001 28z" />
    <glyph glyph-name="uni00A0" unicode="&#xa0;" horiz-adv-x="194" 
 />
    <glyph glyph-name="exclamdown" unicode="&#xa1;" horiz-adv-x="227" 
d="M71 -203v525h56v-525h-56zM62 434v75h75v-75h-75z" />
    <glyph glyph-name="cent" unicode="&#xa2;" horiz-adv-x="342" 
d="M304 242c-0.666992 -23.333 -3.49805 -43.3281 -8.49805 -59.9951s-13.833 -31.334 -26.5 -44.001c-17.333 -16.667 -40 -27 -68 -31v-107h-45v108c-29.333 4 -53.333 16.333 -72 37c-15.333 17.333 -25.5 42.666 -30.5 75.999s-7.5 78.666 -7.5 135.999
s2.5 102.666 7.5 135.999s15.167 58.666 30.5 75.999c18.667 20.667 42.667 33 72 37v106h45v-105c27.333 -3.33301 49.666 -13 66.999 -29c15.333 -14.667 25 -31.167 29 -49.5s6.33301 -37.166 7 -56.499h-55c0 12 -0.833008 24 -2.5 36s-7.16699 22.667 -16.5 32
c-7.33301 8 -17 13.667 -29 17v-400c10.667 3.33301 19.667 8.66602 27 15.999c9.33301 9.33301 15.166 19.5 17.499 30.5s3.5 23.833 3.5 38.5h55zM156.002 556.005c-11.333 -4 -20.666 -10 -27.999 -18c-11.333 -13.333 -18.5 -33.833 -21.5 -61.5s-4.5 -67.5 -4.5 -119.5
s1.5 -91.833 4.5 -119.5s10.167 -48.167 21.5 -61.5c7.33301 -8 16.666 -14 27.999 -18v398z" />
    <glyph glyph-name="sterling" unicode="&#xa3;" horiz-adv-x="393" 
d="M99 0l0.000976562 351h-64v44h64v167c0 26 4.16699 48.833 12.5 68.5s19.333 36.167 33 49.5s29.5 23.333 47.5 30s37 10 57 10c22 0 42.833 -4.16699 62.5 -12.5s36.5 -20.833 50.5 -37.5l-42 -38c-16.667 23.333 -40.334 35 -71.001 35c-25.333 0 -46.833 -9 -64.5 -27
s-26.5 -43 -26.5 -75v-170h91v-44h-91v-298h204v-53h-263z" />
    <glyph glyph-name="currency" unicode="&#xa4;" horiz-adv-x="478" 
d="M397 78l-57 57c-14 -10.667 -29.5 -19 -46.5 -25s-35.167 -9 -54.5 -9s-37.5 3 -54.5 9s-32.5 14.333 -46.5 25l-56 -57l-36 35l57 57c-10.667 14 -19 29.5 -25 46.5s-9 35.167 -9 54.5s3 37.666 9 54.999s14.333 32.666 25 45.999l-57 56l36 35l56 -56
c29.333 22 63 33 101 33s71.667 -11 101 -33l57 56l35 -35l-57 -56c10.667 -13.333 19 -28.666 25 -45.999s9 -35.666 9 -54.999s-3 -37.5 -9 -54.5s-14.333 -32.5 -25 -46.5l57 -57zM358 271c0 16.667 -3.16699 32.167 -9.5 46.5s-14.833 26.833 -25.5 37.5
s-23.167 19 -37.5 25s-29.833 9 -46.5 9s-32.167 -3 -46.5 -9s-26.833 -14.333 -37.5 -25s-19 -23.167 -25 -37.5s-9 -29.833 -9 -46.5s3 -32.167 9 -46.5s14.333 -26.833 25 -37.5s23.167 -19.167 37.5 -25.5s29.833 -9.5 46.5 -9.5s32.167 3.16699 46.5 9.5
s26.833 14.833 37.5 25.5s19.167 23.167 25.5 37.5s9.5 29.833 9.5 46.5z" />
    <glyph glyph-name="yen" unicode="&#xa5;" horiz-adv-x="315" 
d="M218 403h51v-44h-64l-19 -61v-40h83v-44h-83v-214h-58v214h-83v44h83v40l-17 61h-66v44h52l-92 309h63l89 -326l90 326h63z" />
    <glyph glyph-name="brokenbar" unicode="&#xa6;" horiz-adv-x="251" 
d="M97 437v348h56v-348h-56zM97 -73v348h56v-348h-56z" />
    <glyph glyph-name="section" unicode="&#xa7;" horiz-adv-x="389" 
d="M330 271c0 -22.667 -0.669922 -41.9922 -2.00293 -57.9922s-3.5 -30 -6.5 -42s-7 -22.333 -12 -31s-11.5 -16.667 -19.5 -24c-6.66699 -6 -14.667 -11.5 -24 -16.5s-19.666 -8.5 -30.999 -10.5c14 -8.66699 26.5 -17 37.5 -25s20.833 -19 29.5 -33
c6 -10 10.667 -22 14 -36s5 -27.667 5 -41c0 -40 -12 -72.333 -36 -97s-55.333 -37 -94 -37c-18 0 -34.667 3.16699 -50 9.5s-28.666 15.166 -39.999 26.499c-13.333 12.667 -22.833 27.667 -28.5 45s-8.5 34.666 -8.5 51.999h56c0 -24.667 7.66699 -45.667 23 -63
c6 -7.33301 13.333 -12.5 22 -15.5s17.334 -4.5 26.001 -4.5c22 0 39.667 7 53 21c7.33301 7.33301 12.5 16.166 15.5 26.499s4.5 21.833 4.5 34.5c0 10 -1 20 -3 30s-5.33301 18.333 -10 25c-6 9.33301 -13.167 17.166 -21.5 23.499s-17.5 12.166 -27.5 17.499l-66 37
c-6.66699 3.33301 -13.167 7.16602 -19.5 11.499s-12.166 9.16602 -17.499 14.499c-8.66699 8.66699 -15.667 17.834 -21 27.501s-9.33301 20.834 -12 33.501s-4.5 27 -5.5 43s-1.5 34.667 -1.5 56c0 22.667 0.666992 42 2 58s3.66602 30 6.99902 42s7.5 22.333 12.5 31
s11.5 16.667 19.5 24c14 14 32 23 54 27c-14.667 8 -28 17 -40 27s-21.667 21.333 -29 34c-5.33301 9.33301 -9.33301 19.666 -12 30.999s-4 24.666 -4 39.999c0 38 12.667 69 38 93c22.667 22.667 52.667 34 90 34c34.667 0 63.334 -10.333 86.001 -31
c12.667 -12 22.167 -26.833 28.5 -44.5s9.83301 -36.167 10.5 -55.5h-56c0 11.333 -1.66699 22.166 -5 32.499s-9 20.166 -17 29.499c-6.66699 6.66699 -14.167 11.5 -22.5 14.5s-16.5 4.5 -24.5 4.5c-20.667 0 -37 -6 -49 -18c-8 -7.33301 -13.667 -16 -17 -26
s-5 -20 -5 -30c0 -22.667 3.66699 -39.667 11 -51c4 -7.33301 10 -14.5 18 -21.5s16.667 -13.167 26 -18.5l66 -36c7.33301 -4 15.166 -8.66699 23.499 -14s15.166 -10.666 20.499 -15.999c8.66699 -8.66699 15.667 -17.667 21 -27s9.33301 -20 12 -32
s4.33398 -26.167 5.00098 -42.5s1 -35.833 1 -58.5zM273.997 271.008c0 20 -0.333984 36.6699 -1.00098 50.0029s-2 24.833 -4 34.5s-4.66699 17.667 -8 24s-7.66602 12.166 -12.999 17.499c-14 14.667 -32 22 -54 22c-20.667 0 -38 -7 -52 -21
c-4.66699 -4.66699 -8.66699 -10 -12 -16s-6.16602 -13.667 -8.49902 -23s-4 -21.166 -5 -35.499s-1.5 -31.833 -1.5 -52.5c0 -19.333 0.5 -35.833 1.5 -49.5s2.5 -25.334 4.5 -35.001s4.66699 -17.834 8 -24.501s7.66602 -12.334 12.999 -17.001c14 -14 31.333 -21 52 -21
c22 0 40 7 54 21c4.66699 5.33301 8.66699 11.333 12 18s6 14.834 8 24.501s3.5 21.167 4.5 34.5s1.5 29.666 1.5 48.999z" />
    <glyph glyph-name="dieresis" unicode="&#xa8;" horiz-adv-x="354" 
d="M215 606v63h63v-63h-63zM77 606v63h64v-63h-64z" />
    <glyph glyph-name="copyright" unicode="&#xa9;" horiz-adv-x="862" 
d="M793 356c0 -50 -9.5 -97 -28.5 -141s-44.833 -82.333 -77.5 -115s-71 -58.5 -115 -77.5s-91 -28.5 -141 -28.5s-97 9.5 -141 28.5s-82.333 44.833 -115 77.5s-58.5 71 -77.5 115s-28.5 91 -28.5 141s9.5 97 28.5 141s44.833 82.333 77.5 115s71 58.5 115 77.5
s91 28.5 141 28.5s97 -9.5 141 -28.5s82.333 -44.833 115 -77.5s58.5 -71 77.5 -115s28.5 -91 28.5 -141zM747 356c0 44 -8.33301 85.5 -25 124.5s-39.167 73 -67.5 102s-61.666 52 -99.999 69s-79.5 25.5 -123.5 25.5s-85.167 -8.5 -123.5 -25.5s-71.833 -40 -100.5 -69
s-51.334 -63 -68.001 -102s-25 -80.5 -25 -124.5s8.33301 -85.5 25 -124.5s39.334 -73 68.001 -102s62.167 -52 100.5 -69s79.5 -25.5 123.5 -25.5s85.167 8.5 123.5 25.5s71.666 40 99.999 69s50.833 63 67.5 102s25 80.5 25 124.5zM525 262
c0 -38.667 -9.00098 -66.9971 -27.001 -84.9971c-16.667 -17.333 -39 -26 -67 -26s-51 10 -69 30c-12 14 -19.833 34.167 -23.5 60.5s-5.5 64.5 -5.5 114.5s1.83301 88.167 5.5 114.5s11.5 46.5 23.5 60.5c18 20 41 30 69 30s50.333 -8.66699 67 -26
c18 -18.667 27 -47.334 27 -86.001h-42c0 12.667 -0.833008 23.667 -2.5 33s-6.16699 17.666 -13.5 24.999c-5.33301 5.33301 -10.666 9.16602 -15.999 11.499s-12 3.5 -20 3.5s-15.167 -1.66699 -21.5 -5s-11.5 -7.33301 -15.5 -12c-8.66699 -10.667 -14 -27.667 -16 -51
s-3 -56 -3 -98c0 -42.667 0.833008 -75.667 2.5 -99s7.16699 -40 16.5 -50c4 -4.66699 9.16699 -8.66699 15.5 -12s13.5 -5 21.5 -5c14 0 26 5 36 15c7.33301 7.33301 11.833 15.5 13.5 24.5s2.5 19.833 2.5 32.5h42z" />
    <glyph glyph-name="ordfeminine" unicode="&#xaa;" horiz-adv-x="297" 
d="M201 320v32.998c-3.33301 -6 -7.33301 -11.167 -12 -15.5s-8.33398 -7.5 -11.001 -9.5c-6 -4 -13.167 -7.33301 -21.5 -10s-17.833 -4 -28.5 -4c-26 0 -48.333 9.33301 -67 28c-7.33301 8 -13.833 19 -19.5 33s-8.5 32 -8.5 54c0 19.333 3.5 36.333 10.5 51
s16.5 27.334 28.5 38.001c18.667 16.667 45.334 25 80.001 25h46v66c0 18.667 -4.5 34.334 -13.5 47.001s-23.167 19 -42.5 19c-8.66699 0 -16.167 -1.5 -22.5 -4.5s-11.833 -6.83301 -16.5 -11.5c-7.33301 -8 -12 -16.667 -14 -26s-3 -19.333 -3 -30h-47
c0 16 2 31.333 6 46s12 28 24 40c18 18 42.333 27 73 27s55.334 -9.33301 74.001 -28c9.33301 -9.33301 16.666 -20.5 21.999 -33.5s8 -29.167 8 -48.5v-286h-45zM198 505.998l-45.001 -0.000976562c-21.333 0 -37.333 -5 -48 -15
c-7.33301 -7.33301 -13.166 -16 -17.499 -26s-6.5 -21.667 -6.5 -35c0 -19.333 4.16699 -36.666 12.5 -51.999s23.5 -23 45.5 -23c17.333 0 31.5 7.33301 42.5 22s16.5 32.667 16.5 54v75z" />
    <glyph glyph-name="guillemotleft" unicode="&#xab;" horiz-adv-x="371" 
d="M180 268l136 210v-96l-76 -114l76 -115v-95zM29 268l135 210v-96l-75 -114l75 -115v-95z" />
    <glyph glyph-name="logicalnot" unicode="&#xac;" horiz-adv-x="431" 
d="M328 151v104h-278v53h331v-157h-53z" />
    <glyph glyph-name="uni00AD" unicode="&#xad;" horiz-adv-x="301" 
d="M55 251v53h191v-53h-191z" />
    <glyph glyph-name="registered" unicode="&#xae;" horiz-adv-x="862" 
d="M793 356c0 -50 -9.5 -97 -28.5 -141s-44.833 -82.333 -77.5 -115s-71 -58.5 -115 -77.5s-91 -28.5 -141 -28.5s-97 9.5 -141 28.5s-82.333 44.833 -115 77.5s-58.5 71 -77.5 115s-28.5 91 -28.5 141s9.5 97 28.5 141s44.833 82.333 77.5 115s71 58.5 115 77.5
s91 28.5 141 28.5s97 -9.5 141 -28.5s82.333 -44.833 115 -77.5s58.5 -71 77.5 -115s28.5 -91 28.5 -141zM747 356c0 44 -8.33301 85.5 -25 124.5s-39.167 73 -67.5 102s-61.666 52 -99.999 69s-79.5 25.5 -123.5 25.5s-85.167 -8.5 -123.5 -25.5s-71.833 -40 -100.5 -69
s-51.334 -63 -68.001 -102s-25 -80.5 -25 -124.5s8.33301 -85.5 25 -124.5s39.334 -73 68.001 -102s62.167 -52 100.5 -69s79.5 -25.5 123.5 -25.5s85.167 8.5 123.5 25.5s71.666 40 99.999 69s50.833 63 67.5 102s25 80.5 25 124.5zM498 157l-54 174.001h-58v-174h-43v399
h98c26 0 47.333 -7.66699 64 -23c10.667 -10.667 17.667 -23 21 -37s5 -31.667 5 -53c0 -24 -1.66699 -42.333 -5 -55s-10.333 -24 -21 -34c-4.66699 -4.66699 -11.667 -9.33398 -21 -14.001l59 -183h-45zM489 443.001c0 15.333 -0.833008 27.333 -2.5 36
s-5.83398 16.667 -12.501 24c-8.66699 8.66699 -19.334 13 -32.001 13h-56v-146h56c12.667 0 23.334 4.33301 32.001 13c6.66699 7.33301 10.834 15.333 12.501 24s2.5 20.667 2.5 36z" />
    <glyph glyph-name="macron" unicode="&#xaf;" horiz-adv-x="354" 
d="M71 611v45h212v-45h-212z" />
    <glyph glyph-name="degree" unicode="&#xb0;" horiz-adv-x="382" 
d="M327 585c0 -18.667 -3.5 -36.334 -10.5 -53.001s-16.667 -31.167 -29 -43.5s-26.833 -22 -43.5 -29s-34.334 -10.5 -53.001 -10.5s-36.167 3.5 -52.5 10.5s-30.666 16.667 -42.999 29s-22 26.833 -29 43.5s-10.5 34.334 -10.5 53.001s3.5 36.167 10.5 52.5
s16.667 30.666 29 42.999s26.666 22 42.999 29s33.833 10.5 52.5 10.5s36.334 -3.5 53.001 -10.5s31.167 -16.667 43.5 -29s22 -26.666 29 -42.999s10.5 -33.833 10.5 -52.5zM277 585c0 25.333 -8.16699 46.166 -24.5 62.499s-36.833 24.5 -61.5 24.5
s-45.167 -8.16699 -61.5 -24.5s-24.5 -37.166 -24.5 -62.499s8.16699 -46.333 24.5 -63s36.833 -25 61.5 -25s45.167 8.33301 61.5 25s24.5 37.667 24.5 63z" />
    <glyph glyph-name="plusminus" unicode="&#xb1;" horiz-adv-x="431" 
d="M242 286v-141h-53v141h-140v53h140v141h53v-141h141v-53h-141zM49 36v53h334v-53h-334z" />
    <glyph glyph-name="twosuperior" unicode="&#xb2;" 
d="M38 285l0.000976562 36.998l137 218c8 13.333 14 25.666 18 36.999s6 25.333 6 42c0 18 -5.5 32.5 -16.5 43.5s-25.5 16.5 -43.5 16.5c-20.667 0 -35.667 -6.16699 -45 -18.5s-14 -29.166 -14 -50.499v-18h-43v17c0 19.333 2 35.333 6 48s11 23.667 21 33
c19.333 18 44.333 27 75 27c16.667 0 30.5 -2 41.5 -6s21.5 -10 31.5 -18c20 -16 30 -40.667 30 -74c0 -17.333 -2.33301 -33.666 -7 -48.999s-12.334 -31.666 -23.001 -48.999l-124 -198h154v-38h-204z" />
    <glyph glyph-name="threesuperior" unicode="&#xb3;" 
d="M245 399c0 -24.667 -2.16699 -43.5078 -6.5 -56.5078s-12.166 -25.167 -23.499 -36.5c-8 -8 -18.667 -14.333 -32 -19s-27.666 -7 -42.999 -7c-32.667 0 -58.334 9 -77.001 27c-8 8.66699 -14.167 18.834 -18.5 30.501s-6.5 29.834 -6.5 54.501v13h43v-13
c0 -17.333 1.33301 -30.166 4 -38.499s7.33398 -15.166 14.001 -20.499c10 -10 23.667 -15 41 -15c18 0 32 5 42 15c6 6 10.833 13.833 14.5 23.5s5.5 24.167 5.5 43.5c0 20.667 -1.5 35.667 -4.5 45s-7.16699 17 -12.5 23c-10.667 12.667 -25.667 19 -45 19h-29v38h29
c15.333 0 28.666 4.66699 39.999 14c9.33301 8.66699 14.833 18.834 16.5 30.501s2.5 24.167 2.5 37.5c0 12.667 -1.33301 24 -4 34s-7.66699 18 -15 24c-8.66699 9.33301 -22 14 -40 14s-32 -5 -42 -15c-10.667 -10.667 -16 -28.667 -16 -54v-13h-43v12
c0 21.333 2 38.166 6 50.499s10.333 22.5 19 30.5c9.33301 8.66699 20 15.334 32 20.001s26.667 7 44 7s32 -2.5 44 -7.5s22 -11.167 30 -18.5c10 -9.33301 17.167 -21.166 21.5 -35.499s6.5 -30.5 6.5 -48.5c0 -17.333 -1.33301 -31.5 -4 -42.5
s-7.33398 -20.833 -14.001 -29.5c-10.667 -13.333 -23.667 -23 -39 -29c18 -5.33301 32 -15.666 42 -30.999c6 -8.66699 10.5 -18.667 13.5 -30s4.5 -26.666 4.5 -45.999z" />
    <glyph glyph-name="acute" unicode="&#xb4;" horiz-adv-x="354" 
d="M199 586h-49l65 130h58z" />
    <glyph glyph-name="mu" unicode="&#xb5;" horiz-adv-x="378" 
d="M260 0l0.00195312 41c-3.33301 -5.33301 -7.83301 -11 -13.5 -17s-10.834 -10.667 -15.501 -14c-8 -5.33301 -16.667 -9.66602 -26 -12.999s-20 -5 -32 -5c-12.667 0 -24.334 2.16699 -35.001 6.5s-17.667 9.16602 -21 14.499v-217h-55v713h56v-384
c0 -28 6.83301 -48.833 20.5 -62.5s30.167 -20.5 49.5 -20.5s36 6.83301 50 20.5s21 34.5 21 62.5v384h56v-509h-55z" />
    <glyph glyph-name="paragraph" unicode="&#xb6;" horiz-adv-x="538" 
d="M419 -204l-0.00195312 863.999h-120v-864h-56v511h-56c-22 0 -41.667 3.66699 -59 11s-32.166 19 -44.499 35s-21.666 36.833 -27.999 62.5s-9.5 56.834 -9.5 93.501c0 72.667 12.5 124.667 37.5 156s59.5 47 103.5 47h288v-916h-56z" />
    <glyph glyph-name="periodcentered" unicode="&#xb7;" horiz-adv-x="259" 
d="M68 245v123h123v-123h-123z" />
    <glyph glyph-name="cedilla" unicode="&#xb8;" horiz-adv-x="354" 
d="M163 -171h-53l53 134h46z" />
    <glyph glyph-name="onesuperior" unicode="&#xb9;" 
d="M131 285v379l-69 -47v47l69 48h43v-427h-43z" />
    <glyph glyph-name="ordmasculine" unicode="&#xba;" horiz-adv-x="296" 
d="M254 515c0 -46 -2 -82.5 -6 -109.5s-12.333 -47.167 -25 -60.5c-18.667 -20.667 -43.667 -31 -75 -31c-32 0 -57.333 10.333 -76 31c-12.667 13.333 -20.834 33.5 -24.501 60.5s-5.5 63.5 -5.5 109.5s1.83301 82.5 5.5 109.5s11.834 47.167 24.501 60.5
c18 20 43.333 30 76 30c32 0 57 -10 75 -30c12.667 -13.333 21 -33.5 25 -60.5s6 -63.5 6 -109.5zM207 515c0 41.333 -1.33301 72.665 -4 93.998s-8.33398 37.333 -17.001 48s-21.334 16 -38.001 16c-17.333 0 -30.333 -5.33301 -39 -16s-14.167 -26.667 -16.5 -48
s-3.5 -52.666 -3.5 -93.999s1.16699 -73 3.5 -95s7.83301 -38 16.5 -48c8.66699 -10.667 21.667 -16 39 -16c16.667 0 29.334 5.33301 38.001 16s14.334 26.834 17.001 48.501s4 53.167 4 94.5z" />
    <glyph glyph-name="guillemotright" unicode="&#xbb;" horiz-adv-x="371" 
d="M206 58v95l76 115l-76 114v96l136 -210zM55 58v95l76 115l-76 114v96l136 -210z" />
    <glyph glyph-name="onequarter" unicode="&#xbc;" horiz-adv-x="708" 
d="M131 285v379l-69 -47v47l69 48h43v-427h-43zM254 0h-47l247 712h47zM650 64v-64h-43v64h-148v38l125 325h43l-124 -325h104v103h43v-103h32v-38h-32z" />
    <glyph glyph-name="onehalf" unicode="&#xbd;" horiz-adv-x="708" 
d="M131 285v379l-69 -47v47l69 48h43v-427h-43zM254 0h-47l247 712h47zM469 0l0.000976562 36.998l137 218c8 13.333 14 25.666 18 36.999s6 25.333 6 42c0 18 -5.5 32.5 -16.5 43.5s-25.5 16.5 -43.5 16.5c-20.667 0 -35.667 -6.16699 -45 -18.5s-14 -29.166 -14 -50.499
v-18h-43v17c0 19.333 2 35.333 6 48s11 23.667 21 33c19.333 18 44.333 27 75 27c16.667 0 30.5 -2 41.5 -6s21.5 -10 31.5 -18c20 -16 30 -40.667 30 -74c0 -17.333 -2.33301 -33.666 -7 -48.999s-12.334 -31.666 -23.001 -48.999l-124 -198h154v-38h-204z" />
    <glyph glyph-name="threequarters" unicode="&#xbe;" horiz-adv-x="708" 
d="M245 399c0 -24.667 -2.16699 -43.5078 -6.5 -56.5078s-12.166 -25.167 -23.499 -36.5c-8 -8 -18.667 -14.333 -32 -19s-27.666 -7 -42.999 -7c-32.667 0 -58.334 9 -77.001 27c-8 8.66699 -14.167 18.834 -18.5 30.501s-6.5 29.834 -6.5 54.501v13h43v-13
c0 -17.333 1.33301 -30.166 4 -38.499s7.33398 -15.166 14.001 -20.499c10 -10 23.667 -15 41 -15c18 0 32 5 42 15c6 6 10.833 13.833 14.5 23.5s5.5 24.167 5.5 43.5c0 20.667 -1.5 35.667 -4.5 45s-7.16699 17 -12.5 23c-10.667 12.667 -25.667 19 -45 19h-29v38h29
c15.333 0 28.666 4.66699 39.999 14c9.33301 8.66699 14.833 18.834 16.5 30.501s2.5 24.167 2.5 37.5c0 12.667 -1.33301 24 -4 34s-7.66699 18 -15 24c-8.66699 9.33301 -22 14 -40 14s-32 -5 -42 -15c-10.667 -10.667 -16 -28.667 -16 -54v-13h-43v12
c0 21.333 2 38.166 6 50.499s10.333 22.5 19 30.5c9.33301 8.66699 20 15.334 32 20.001s26.667 7 44 7s32 -2.5 44 -7.5s22 -11.167 30 -18.5c10 -9.33301 17.167 -21.166 21.5 -35.499s6.5 -30.5 6.5 -48.5c0 -17.333 -1.33301 -31.5 -4 -42.5
s-7.33398 -20.833 -14.001 -29.5c-10.667 -13.333 -23.667 -23 -39 -29c18 -5.33301 32 -15.666 42 -30.999c6 -8.66699 10.5 -18.667 13.5 -30s4.5 -26.666 4.5 -45.999zM254 -0.0078125h-47l247 712h47zM650 63.9922v-64h-43v64h-148v38l125 325h43l-124 -325h104v103h43
v-103h32v-38h-32z" />
    <glyph glyph-name="questiondown" unicode="&#xbf;" horiz-adv-x="375" 
d="M317 -53c0 -25.333 -2.66699 -47.834 -8 -67.501s-15.666 -36.834 -30.999 -51.501c-11.333 -11.333 -25.166 -20.333 -41.499 -27s-34.5 -10 -54.5 -10c-42 0 -75 12.333 -99 37c-6.66699 6.66699 -12.5 14 -17.5 22s-9.16699 17.167 -12.5 27.5
s-5.83301 22.333 -7.5 36s-2.5 29.834 -2.5 48.501c0 23.333 1.83301 43.5 5.5 60.5s11.5 35.167 23.5 54.5l58 93c7.33301 11.333 12.666 23.166 15.999 35.499s5 25.166 5 38.499v78h56v-85c0 -30 -8 -57.667 -24 -83l-58 -92c-11.333 -17.333 -18.5 -33.5 -21.5 -48.5
s-4.5 -32.5 -4.5 -52.5c0 -27.333 2.33301 -48.166 7 -62.499s11.667 -26.166 21 -35.499c13.333 -14.667 31.666 -22 54.999 -22c12 0 22.167 1.83301 30.5 5.5s15.833 8.83398 22.5 15.501c11.333 11.333 18.5 24.5 21.5 39.5s4.5 30.167 4.5 45.5h56zM142 433.999v75h75
v-75h-75z" />
    <glyph glyph-name="Agrave" unicode="&#xc0;" horiz-adv-x="379" 
d="M311 0l-39 195h-166l-38 -195h-64l159 712h55l156 -712h-63zM189 606l-71 -358h143zM171 764l-75 130h59l65 -130h-49z" />
    <glyph glyph-name="Aacute" unicode="&#xc1;" horiz-adv-x="379" 
d="M311 0l-39 195h-166l-38 -195h-64l159 712h55l156 -712h-63zM189 606l-71 -358h143zM214 764h-49l65 130h59z" />
    <glyph glyph-name="Acircumflex" unicode="&#xc2;" horiz-adv-x="379" 
d="M311 0l-39 195h-166l-38 -195h-64l159 712h55l156 -712h-63zM189 606l-71 -358h143zM252 764l-59 92l-60 -92h-52l87 130h50l86 -130h-52z" />
    <glyph glyph-name="Atilde" unicode="&#xc3;" horiz-adv-x="379" 
d="M311 0l-39 195h-166l-38 -195h-64l159 712h55l156 -712h-63zM189 606l-71 -358h143zM312 813c-17.333 -16.667 -31.167 -27.167 -41.5 -31.5s-20.166 -6.5 -29.499 -6.5c-10.667 0 -20 1.5 -28 4.5s-16.667 7.16699 -26 12.5c-7.33301 4.66699 -14.333 8.5 -21 11.5
s-13.667 4.5 -21 4.5c-6 0 -11.833 -1.16699 -17.5 -3.5s-14.167 -9.16602 -25.5 -20.499l-28 29c16.667 16.667 30.167 27.167 40.5 31.5s20.166 6.5 29.499 6.5c11.333 0 20.833 -1.5 28.5 -4.5s16.167 -7.16699 25.5 -12.5c7.33301 -4.66699 14.333 -8.5 21 -11.5
s13.667 -4.5 21 -4.5c5.33301 0 11 1.16699 17 3.5s14.667 9.16602 26 20.499l29 -29v0z" />
    <glyph glyph-name="Adieresis" unicode="&#xc4;" horiz-adv-x="379" 
d="M311 0l-39 195h-166l-38 -195h-64l159 712h55l156 -712h-63zM189 606l-71 -358h143zM230 784v63h63v-63h-63zM92 784v63h63v-63h-63z" />
    <glyph glyph-name="Aring" unicode="&#xc5;" horiz-adv-x="379" 
d="M311 0l-39 195h-166l-38 -195h-64l159 712h55l156 -712h-63zM189 606l-71 -358h143zM284 842c0 -12.667 -2.5 -24.5 -7.5 -35.5s-11.667 -20.667 -20 -29s-18 -14.833 -29 -19.5s-22.5 -7 -34.5 -7c-25.333 0 -46.833 8.83301 -64.5 26.5s-26.5 39.167 -26.5 64.5
s8.83301 46.833 26.5 64.5s39.167 26.5 64.5 26.5c12 0 23.5 -2.33301 34.5 -7s20.667 -11.167 29 -19.5s15 -18 20 -29s7.5 -22.833 7.5 -35.5zM245 842c0 14.667 -5.16699 27 -15.5 37s-22.5 15 -36.5 15c-14.667 0 -27.167 -5 -37.5 -15s-15.5 -22.333 -15.5 -37
s5.16699 -27.167 15.5 -37.5s22.833 -15.5 37.5 -15.5c14 0 26.167 5.16699 36.5 15.5s15.5 22.833 15.5 37.5z" />
    <glyph glyph-name="AE" unicode="&#xc6;" horiz-adv-x="604" 
d="M309 0v197h-168l-72 -197h-64l265 712h288v-53h-190v-276h164v-53h-164v-277h190v-53h-249zM309 660l-149 -410h149v410z" />
    <glyph glyph-name="Ccedilla" unicode="&#xc7;" horiz-adv-x="399" 
d="M358 163c-0.666992 -28 -4.99707 -53.9961 -12.9971 -77.9961s-20.333 -43.667 -37 -59c-24.667 -22.667 -57.334 -34 -98.001 -34c-23.333 0 -43.833 3.66699 -61.5 11s-32.5 17.666 -44.5 30.999c-10.667 11.333 -19.334 24 -26.001 38s-11.667 32.5 -15 55.5
s-5.66602 52.667 -6.99902 89s-2 82.833 -2 139.5s0.666992 103.167 2 139.5s3.66602 66 6.99902 89s8.33301 41.5 15 55.5s15.334 26.667 26.001 38c12 13.333 26.833 23.666 44.5 30.999s38.167 11 61.5 11s43.166 -3.33301 59.499 -10s30.5 -16 42.5 -28
c15.333 -15.333 26.666 -34.5 33.999 -57.5s11.333 -48.167 12 -75.5h-59c0 18 -2 35.333 -6 52s-11.333 30.667 -22 42c-7.33301 7.33301 -15.833 13.166 -25.5 17.499s-21.5 6.5 -35.5 6.5c-26.667 0 -47.667 -8.66699 -63 -26
c-7.33301 -8.66699 -13.166 -18.5 -17.499 -29.5s-7.83301 -26.833 -10.5 -47.5s-4.33398 -47.5 -5.00098 -80.5s-1 -75.5 -1 -127.5s0.333008 -94.5 1 -127.5s2.33398 -59.833 5.00098 -80.5s6.16699 -36.5 10.5 -47.5s10.166 -20.833 17.499 -29.5
c15.333 -17.333 36.333 -26 63 -26c14 0 26 2.16699 36 6.5s18.333 10.166 25 17.499c10.667 11.333 18 25.5 22 42.5s6 34.167 6 51.5h59zM190.003 -170.996h-53l53 134h46z" />
    <glyph glyph-name="Egrave" unicode="&#xc8;" horiz-adv-x="364" 
d="M69 0v712h248v-53h-189v-276h163v-53h-163v-277h189v-53h-248zM177 764l-75 130h59l65 -130h-49z" />
    <glyph glyph-name="Eacute" unicode="&#xc9;" horiz-adv-x="364" 
d="M69 0v712h248v-53h-189v-276h163v-53h-163v-277h189v-53h-248zM220 764h-49l65 130h59z" />
    <glyph glyph-name="Ecircumflex" unicode="&#xca;" horiz-adv-x="364" 
d="M69 0v712h248v-53h-189v-276h163v-53h-163v-277h189v-53h-248zM258 764l-59 92l-60 -92h-52l87 130h50l86 -130h-52z" />
    <glyph glyph-name="Edieresis" unicode="&#xcb;" horiz-adv-x="364" 
d="M69 0v712h248v-53h-189v-276h163v-53h-163v-277h189v-53h-248zM236 784v63h63v-63h-63zM98 784v63h63v-63h-63z" />
    <glyph glyph-name="Igrave" unicode="&#xcc;" horiz-adv-x="197" 
d="M69 0v712h59v-712h-59zM78 764l-75 130h59l65 -130h-49z" />
    <glyph glyph-name="Iacute" unicode="&#xcd;" horiz-adv-x="197" 
d="M69 0v712h59v-712h-59zM121 764h-49l65 130h59z" />
    <glyph glyph-name="Icircumflex" unicode="&#xce;" horiz-adv-x="197" 
d="M69 0v712h59v-712h-59zM159 764l-59 92l-60 -92h-52l87 130h50l86 -130h-52z" />
    <glyph glyph-name="Idieresis" unicode="&#xcf;" horiz-adv-x="197" 
d="M69 0v712h59v-712h-59zM137 784v63h63v-63h-63zM-1 784v63h63v-63h-63z" />
    <glyph glyph-name="Eth" unicode="&#xd0;" horiz-adv-x="429" 
d="M375 356c0 -54 -0.5 -98.5 -1.5 -133.5s-3.16699 -64 -6.5 -87s-8.33301 -41.5 -15 -55.5s-15.667 -27 -27 -39c-12 -12.667 -26.667 -22.667 -44 -30s-37.666 -11 -60.999 -11h-147v332h-53v49h53v331h147c23.333 0 43.666 -3.66699 60.999 -11s32 -17.333 44 -30
c11.333 -12 20.333 -25 27 -39s11.667 -32.5 15 -55.5s5.5 -52 6.5 -87s1.5 -79.5 1.5 -133.5zM316 356c0 50.667 -0.333008 92.165 -1 124.498s-2.33398 58.5 -5.00098 78.5s-6.16699 35.333 -10.5 46s-10.5 20.334 -18.5 29.001c-7.33301 7.33301 -16.333 13.333 -27 18
s-23 7 -37 7h-85v-278h91v-49h-91v-279h85c14 0 26.333 2.33301 37 7s19.667 10.667 27 18c8 8.66699 14.167 18.334 18.5 29.001s7.83301 26 10.5 46s4.33398 46 5.00098 78s1 73.667 1 125z" />
    <glyph glyph-name="Ntilde" unicode="&#xd1;" horiz-adv-x="454" 
d="M327 0l-199 555v-555h-59v712h59l198 -555v555h59v-712h-58zM346 813c-17.333 -16.667 -31.167 -27.167 -41.5 -31.5s-20.166 -6.5 -29.499 -6.5c-10.667 0 -20 1.5 -28 4.5s-16.667 7.16699 -26 12.5c-7.33301 4.66699 -14.333 8.5 -21 11.5s-13.667 4.5 -21 4.5
c-6 0 -11.833 -1.16699 -17.5 -3.5s-14.167 -9.16602 -25.5 -20.499l-28 29c16.667 16.667 30.167 27.167 40.5 31.5s20.166 6.5 29.499 6.5c11.333 0 20.833 -1.5 28.5 -4.5s16.167 -7.16699 25.5 -12.5c7.33301 -4.66699 14.333 -8.5 21 -11.5s13.667 -4.5 21 -4.5
c5.33301 0 11 1.16699 17 3.5s14.667 9.16602 26 20.499l29 -29v0z" />
    <glyph glyph-name="Ograve" unicode="&#xd2;" horiz-adv-x="421" 
d="M367 356c0 -56.667 -0.666992 -103.167 -2 -139.5s-3.66602 -66 -6.99902 -89s-8.33301 -41.5 -15 -55.5s-15.334 -26.667 -26.001 -38c-12 -13.333 -27 -23.666 -45 -30.999s-38.667 -11 -62 -11s-43.833 3.66699 -61.5 11s-32.5 17.666 -44.5 30.999
c-10.667 11.333 -19.334 24 -26.001 38s-11.667 32.5 -15 55.5s-5.66602 52.667 -6.99902 89s-2 82.833 -2 139.5s0.666992 103.167 2 139.5s3.66602 66 6.99902 89s8.33301 41.5 15 55.5s15.334 26.667 26.001 38c12 13.333 26.833 23.666 44.5 30.999s38.167 11 61.5 11
s44 -3.66699 62 -11s33 -17.666 45 -30.999c10.667 -11.333 19.334 -24 26.001 -38s11.667 -32.5 15 -55.5s5.66602 -52.667 6.99902 -89s2 -82.833 2 -139.5zM308 356c0 52 -0.333984 94.5 -1.00098 127.5s-2.33398 59.833 -5.00098 80.5s-6.16699 36.5 -10.5 47.5
s-10.166 20.833 -17.499 29.5c-15.333 17.333 -36.666 26 -63.999 26c-26.667 0 -47.667 -8.66699 -63 -26c-7.33301 -8.66699 -13.166 -18.5 -17.499 -29.5s-7.83301 -26.833 -10.5 -47.5s-4.33398 -47.5 -5.00098 -80.5s-1 -75.5 -1 -127.5s0.333008 -94.5 1 -127.5
s2.33398 -59.833 5.00098 -80.5s6.16699 -36.5 10.5 -47.5s10.166 -20.833 17.499 -29.5c15.333 -17.333 36.333 -26 63 -26c14 0 26.333 2.33301 37 7s19.667 11 27 19c7.33301 8.66699 13.166 18.5 17.499 29.5s7.83301 26.833 10.5 47.5s4.33398 47.5 5.00098 80.5
s1 75.5 1 127.5zM188.999 764l-75 130h59l65 -130h-49z" />
    <glyph glyph-name="Oacute" unicode="&#xd3;" horiz-adv-x="421" 
d="M367 356c0 -56.667 -0.666992 -103.167 -2 -139.5s-3.66602 -66 -6.99902 -89s-8.33301 -41.5 -15 -55.5s-15.334 -26.667 -26.001 -38c-12 -13.333 -27 -23.666 -45 -30.999s-38.667 -11 -62 -11s-43.833 3.66699 -61.5 11s-32.5 17.666 -44.5 30.999
c-10.667 11.333 -19.334 24 -26.001 38s-11.667 32.5 -15 55.5s-5.66602 52.667 -6.99902 89s-2 82.833 -2 139.5s0.666992 103.167 2 139.5s3.66602 66 6.99902 89s8.33301 41.5 15 55.5s15.334 26.667 26.001 38c12 13.333 26.833 23.666 44.5 30.999s38.167 11 61.5 11
s44 -3.66699 62 -11s33 -17.666 45 -30.999c10.667 -11.333 19.334 -24 26.001 -38s11.667 -32.5 15 -55.5s5.66602 -52.667 6.99902 -89s2 -82.833 2 -139.5zM308 356c0 52 -0.333984 94.5 -1.00098 127.5s-2.33398 59.833 -5.00098 80.5s-6.16699 36.5 -10.5 47.5
s-10.166 20.833 -17.499 29.5c-15.333 17.333 -36.666 26 -63.999 26c-26.667 0 -47.667 -8.66699 -63 -26c-7.33301 -8.66699 -13.166 -18.5 -17.499 -29.5s-7.83301 -26.833 -10.5 -47.5s-4.33398 -47.5 -5.00098 -80.5s-1 -75.5 -1 -127.5s0.333008 -94.5 1 -127.5
s2.33398 -59.833 5.00098 -80.5s6.16699 -36.5 10.5 -47.5s10.166 -20.833 17.499 -29.5c15.333 -17.333 36.333 -26 63 -26c14 0 26.333 2.33301 37 7s19.667 11 27 19c7.33301 8.66699 13.166 18.5 17.499 29.5s7.83301 26.833 10.5 47.5s4.33398 47.5 5.00098 80.5
s1 75.5 1 127.5zM231.999 764h-49l65 130h59z" />
    <glyph glyph-name="Ocircumflex" unicode="&#xd4;" horiz-adv-x="421" 
d="M367 356c0 -56.667 -0.666992 -103.167 -2 -139.5s-3.66602 -66 -6.99902 -89s-8.33301 -41.5 -15 -55.5s-15.334 -26.667 -26.001 -38c-12 -13.333 -27 -23.666 -45 -30.999s-38.667 -11 -62 -11s-43.833 3.66699 -61.5 11s-32.5 17.666 -44.5 30.999
c-10.667 11.333 -19.334 24 -26.001 38s-11.667 32.5 -15 55.5s-5.66602 52.667 -6.99902 89s-2 82.833 -2 139.5s0.666992 103.167 2 139.5s3.66602 66 6.99902 89s8.33301 41.5 15 55.5s15.334 26.667 26.001 38c12 13.333 26.833 23.666 44.5 30.999s38.167 11 61.5 11
s44 -3.66699 62 -11s33 -17.666 45 -30.999c10.667 -11.333 19.334 -24 26.001 -38s11.667 -32.5 15 -55.5s5.66602 -52.667 6.99902 -89s2 -82.833 2 -139.5zM308 356c0 52 -0.333984 94.5 -1.00098 127.5s-2.33398 59.833 -5.00098 80.5s-6.16699 36.5 -10.5 47.5
s-10.166 20.833 -17.499 29.5c-15.333 17.333 -36.666 26 -63.999 26c-26.667 0 -47.667 -8.66699 -63 -26c-7.33301 -8.66699 -13.166 -18.5 -17.499 -29.5s-7.83301 -26.833 -10.5 -47.5s-4.33398 -47.5 -5.00098 -80.5s-1 -75.5 -1 -127.5s0.333008 -94.5 1 -127.5
s2.33398 -59.833 5.00098 -80.5s6.16699 -36.5 10.5 -47.5s10.166 -20.833 17.499 -29.5c15.333 -17.333 36.333 -26 63 -26c14 0 26.333 2.33301 37 7s19.667 11 27 19c7.33301 8.66699 13.166 18.5 17.499 29.5s7.83301 26.833 10.5 47.5s4.33398 47.5 5.00098 80.5
s1 75.5 1 127.5zM269.999 764l-59 92l-60 -92h-52l87 130h50l86 -130h-52z" />
    <glyph glyph-name="Otilde" unicode="&#xd5;" horiz-adv-x="421" 
d="M367 356c0 -56.667 -0.666992 -103.167 -2 -139.5s-3.66602 -66 -6.99902 -89s-8.33301 -41.5 -15 -55.5s-15.334 -26.667 -26.001 -38c-12 -13.333 -27 -23.666 -45 -30.999s-38.667 -11 -62 -11s-43.833 3.66699 -61.5 11s-32.5 17.666 -44.5 30.999
c-10.667 11.333 -19.334 24 -26.001 38s-11.667 32.5 -15 55.5s-5.66602 52.667 -6.99902 89s-2 82.833 -2 139.5s0.666992 103.167 2 139.5s3.66602 66 6.99902 89s8.33301 41.5 15 55.5s15.334 26.667 26.001 38c12 13.333 26.833 23.666 44.5 30.999s38.167 11 61.5 11
s44 -3.66699 62 -11s33 -17.666 45 -30.999c10.667 -11.333 19.334 -24 26.001 -38s11.667 -32.5 15 -55.5s5.66602 -52.667 6.99902 -89s2 -82.833 2 -139.5zM308 356c0 52 -0.333984 94.5 -1.00098 127.5s-2.33398 59.833 -5.00098 80.5s-6.16699 36.5 -10.5 47.5
s-10.166 20.833 -17.499 29.5c-15.333 17.333 -36.666 26 -63.999 26c-26.667 0 -47.667 -8.66699 -63 -26c-7.33301 -8.66699 -13.166 -18.5 -17.499 -29.5s-7.83301 -26.833 -10.5 -47.5s-4.33398 -47.5 -5.00098 -80.5s-1 -75.5 -1 -127.5s0.333008 -94.5 1 -127.5
s2.33398 -59.833 5.00098 -80.5s6.16699 -36.5 10.5 -47.5s10.166 -20.833 17.499 -29.5c15.333 -17.333 36.333 -26 63 -26c14 0 26.333 2.33301 37 7s19.667 11 27 19c7.33301 8.66699 13.166 18.5 17.499 29.5s7.83301 26.833 10.5 47.5s4.33398 47.5 5.00098 80.5
s1 75.5 1 127.5zM329.999 813c-17.333 -16.667 -31.167 -27.167 -41.5 -31.5s-20.166 -6.5 -29.499 -6.5c-10.667 0 -20 1.5 -28 4.5s-16.667 7.16699 -26 12.5c-7.33301 4.66699 -14.333 8.5 -21 11.5s-13.667 4.5 -21 4.5c-6 0 -11.833 -1.16699 -17.5 -3.5
s-14.167 -9.16602 -25.5 -20.499l-28 29c16.667 16.667 30.167 27.167 40.5 31.5s20.166 6.5 29.499 6.5c11.333 0 20.833 -1.5 28.5 -4.5s16.167 -7.16699 25.5 -12.5c7.33301 -4.66699 14.333 -8.5 21 -11.5s13.667 -4.5 21 -4.5c5.33301 0 11 1.16699 17 3.5
s14.667 9.16602 26 20.499l29 -29v0z" />
    <glyph glyph-name="Odieresis" unicode="&#xd6;" horiz-adv-x="421" 
d="M367 356c0 -56.667 -0.666992 -103.167 -2 -139.5s-3.66602 -66 -6.99902 -89s-8.33301 -41.5 -15 -55.5s-15.334 -26.667 -26.001 -38c-12 -13.333 -27 -23.666 -45 -30.999s-38.667 -11 -62 -11s-43.833 3.66699 -61.5 11s-32.5 17.666 -44.5 30.999
c-10.667 11.333 -19.334 24 -26.001 38s-11.667 32.5 -15 55.5s-5.66602 52.667 -6.99902 89s-2 82.833 -2 139.5s0.666992 103.167 2 139.5s3.66602 66 6.99902 89s8.33301 41.5 15 55.5s15.334 26.667 26.001 38c12 13.333 26.833 23.666 44.5 30.999s38.167 11 61.5 11
s44 -3.66699 62 -11s33 -17.666 45 -30.999c10.667 -11.333 19.334 -24 26.001 -38s11.667 -32.5 15 -55.5s5.66602 -52.667 6.99902 -89s2 -82.833 2 -139.5zM308 356c0 52 -0.333984 94.5 -1.00098 127.5s-2.33398 59.833 -5.00098 80.5s-6.16699 36.5 -10.5 47.5
s-10.166 20.833 -17.499 29.5c-15.333 17.333 -36.666 26 -63.999 26c-26.667 0 -47.667 -8.66699 -63 -26c-7.33301 -8.66699 -13.166 -18.5 -17.499 -29.5s-7.83301 -26.833 -10.5 -47.5s-4.33398 -47.5 -5.00098 -80.5s-1 -75.5 -1 -127.5s0.333008 -94.5 1 -127.5
s2.33398 -59.833 5.00098 -80.5s6.16699 -36.5 10.5 -47.5s10.166 -20.833 17.499 -29.5c15.333 -17.333 36.333 -26 63 -26c14 0 26.333 2.33301 37 7s19.667 11 27 19c7.33301 8.66699 13.166 18.5 17.499 29.5s7.83301 26.833 10.5 47.5s4.33398 47.5 5.00098 80.5
s1 75.5 1 127.5zM247.999 784v63h63v-63h-63zM109.999 784v63h63v-63h-63z" />
    <glyph glyph-name="multiply" unicode="&#xd7;" horiz-adv-x="431" 
d="M333 115l-117 118l-118 -118l-36 37l117 117l-117 118l36 36l118 -117l117 117l37 -36l-118 -118l118 -117z" />
    <glyph glyph-name="Oslash" unicode="&#xd8;" horiz-adv-x="405" 
d="M367 356c0 -56.667 -0.666992 -103.17 -2 -139.503s-3.66602 -66 -6.99902 -89s-8.33301 -41.5 -15 -55.5s-15.334 -26.667 -26.001 -38c-12 -13.333 -27 -23.666 -45 -30.999s-38.667 -11 -62 -11c-30 0 -56.333 6.66699 -79 20l-17 -56h-50l29 90
c-8.66699 10.667 -15.5 23.334 -20.5 38.001s-8.83301 33.667 -11.5 57s-4.5 52.333 -5.5 87s-1.5 77.334 -1.5 128.001c0 56.667 0.666992 103.167 2 139.5s3.66602 66 6.99902 89s8.33301 41.5 15 55.5s15.334 26.667 26.001 38c12 13.333 26.833 23.666 44.5 30.999
s38.167 11 61.5 11c31.333 0 58 -7 80 -21l17 57h50l-28 -91c8 -11.333 14.5 -24.333 19.5 -39s8.83301 -33.667 11.5 -57s4.5 -52.166 5.5 -86.499s1.5 -76.5 1.5 -126.5zM272 643.997c-14 15.333 -34.668 23.001 -62.001 23.001c-26.667 0 -47.667 -8.66699 -63 -26
c-7.33301 -8.66699 -13.166 -18.5 -17.499 -29.5s-7.83301 -26.833 -10.5 -47.5s-4.33398 -47.5 -5.00098 -80.5s-1 -75.5 -1 -127.5c0 -33.333 0.166992 -62.333 0.5 -87s0.833008 -45.834 1.5 -63.501s1.83398 -32.5 3.50098 -44.5s3.5 -22.333 5.5 -31zM307.999 355.998
c0 64.667 -0.666016 114 -1.99902 148s-4 59.667 -8 77l-149 -513c13.333 -15.333 33.666 -23 60.999 -23c14 0 26.333 2.33301 37 7s19.667 11 27 19c7.33301 8.66699 13.166 18.5 17.499 29.5s7.83301 26.833 10.5 47.5s4.33398 47.5 5.00098 80.5s1 75.5 1 127.5z" />
    <glyph glyph-name="Ugrave" unicode="&#xd9;" horiz-adv-x="417" 
d="M356 148c0 -25.333 -3.66797 -47.5 -11.001 -66.5s-17.666 -35.167 -30.999 -48.5c-28.667 -27.333 -63.667 -41 -105 -41s-76.333 13.667 -105 41c-13.333 13.333 -23.833 29.5 -31.5 48.5s-11.5 41.167 -11.5 66.5v564h59v-569c0 -30.667 8.66699 -54.667 26 -72
s38.333 -26 63 -26s45.5 8.66699 62.5 26s25.5 41.333 25.5 72v569h59v-564zM188.999 764l-75 130h59l65 -130h-49z" />
    <glyph glyph-name="Uacute" unicode="&#xda;" horiz-adv-x="417" 
d="M356 148c0 -25.333 -3.66797 -47.5 -11.001 -66.5s-17.666 -35.167 -30.999 -48.5c-28.667 -27.333 -63.667 -41 -105 -41s-76.333 13.667 -105 41c-13.333 13.333 -23.833 29.5 -31.5 48.5s-11.5 41.167 -11.5 66.5v564h59v-569c0 -30.667 8.66699 -54.667 26 -72
s38.333 -26 63 -26s45.5 8.66699 62.5 26s25.5 41.333 25.5 72v569h59v-564zM231.999 764h-49l65 130h59z" />
    <glyph glyph-name="Ucircumflex" unicode="&#xdb;" horiz-adv-x="417" 
d="M356 148c0 -25.333 -3.66797 -47.5 -11.001 -66.5s-17.666 -35.167 -30.999 -48.5c-28.667 -27.333 -63.667 -41 -105 -41s-76.333 13.667 -105 41c-13.333 13.333 -23.833 29.5 -31.5 48.5s-11.5 41.167 -11.5 66.5v564h59v-569c0 -30.667 8.66699 -54.667 26 -72
s38.333 -26 63 -26s45.5 8.66699 62.5 26s25.5 41.333 25.5 72v569h59v-564zM269.999 764l-59 92l-60 -92h-52l87 130h50l86 -130h-52z" />
    <glyph glyph-name="Udieresis" unicode="&#xdc;" horiz-adv-x="417" 
d="M356 148c0 -25.333 -3.66797 -47.5 -11.001 -66.5s-17.666 -35.167 -30.999 -48.5c-28.667 -27.333 -63.667 -41 -105 -41s-76.333 13.667 -105 41c-13.333 13.333 -23.833 29.5 -31.5 48.5s-11.5 41.167 -11.5 66.5v564h59v-569c0 -30.667 8.66699 -54.667 26 -72
s38.333 -26 63 -26s45.5 8.66699 62.5 26s25.5 41.333 25.5 72v569h59v-564zM247.999 784v63h63v-63h-63zM109.999 784v63h63v-63h-63z" />
    <glyph glyph-name="Yacute" unicode="&#xdd;" horiz-adv-x="315" 
d="M187 298v-298h-59v298l-125 414h65l89 -326l90 326h65zM183 764h-49l65 130h59z" />
    <glyph glyph-name="Thorn" unicode="&#xde;" horiz-adv-x="409" 
d="M363 360c0 -41.333 -4 -75 -12 -101s-19 -46.333 -33 -61s-30.333 -24.5 -49 -29.5s-38.667 -7.5 -60 -7.5h-81v-161h-59v712h59v-154h81c21.333 0 41.333 -2.5 60 -7.5s35 -14.667 49 -29s25 -34.5 33 -60.5s12 -59.667 12 -101zM304 359c0 30 -2.33301 54.5 -7 73.5
s-11.334 33.833 -20.001 44.5s-19 18 -31 22s-25 6 -39 6h-79v-291h79c14 0 27 2 39 6s22.333 11.167 31 21.5s15.334 25 20.001 44s7 43.5 7 73.5z" />
    <glyph glyph-name="germandbls" unicode="&#xdf;" horiz-adv-x="373" 
d="M328 224c0 -24 -0.333008 -45.667 -1 -65s-2.33398 -36.666 -5.00098 -51.999s-6.66699 -29 -12 -41s-12.666 -22.667 -21.999 -32c-13.333 -13.333 -28.5 -22.333 -45.5 -27s-34.833 -7 -53.5 -7v50c25.333 0 45 7 59 21c8.66699 8.66699 14.834 24.5 18.501 47.5
s5.5 59.167 5.5 108.5c0 45.333 -1.66699 79.5 -5 102.5s-9.66602 39.833 -18.999 50.5c-12 14.667 -28.667 22 -50 22h-9v48h7c17.333 0 31.333 6.33301 42 19c11.333 12.667 18.166 26.834 20.499 42.501s3.5 32.5 3.5 50.5c0 23.333 -1.66699 41.333 -5 54
s-9 23.667 -17 33c-13.333 14 -30.333 21 -51 21c-20 0 -36.833 -7 -50.5 -21s-20.5 -35 -20.5 -63v-586h-56v584c0 25.333 3.16699 45.666 9.5 60.999s15.166 28.666 26.499 39.999c11.333 10.667 25 19.167 41 25.5s32.667 9.5 50 9.5s34 -2.83301 50 -8.5
s29.667 -14.167 41 -25.5c15.333 -16 25.5 -33 30.5 -51s7.5 -41.667 7.5 -71c0 -16.667 -1 -33.5 -3 -50.5s-7.33301 -33.167 -16 -48.5c-8.66699 -14.667 -20 -26.667 -34 -36c11.333 -5.33301 21.333 -13.666 30 -24.999c6.66699 -7.33301 12 -15.5 16 -24.5
s7.33301 -20.167 10 -33.5s4.5 -29.833 5.5 -49.5s1.5 -43.834 1.5 -72.501z" />
    <glyph glyph-name="agrave" unicode="&#xe0;" horiz-adv-x="352" 
d="M240 0l-0.00292969 46.001c-3.33301 -7.33301 -7.66602 -14 -12.999 -20s-10.333 -10.667 -15 -14c-8 -6 -16.667 -10.833 -26 -14.5s-21 -5.5 -35 -5.5c-32 0 -59 11.333 -81 34c-9.33301 10 -17.166 24.667 -23.499 44s-9.5 43 -9.5 71c0 24 3.5 45.833 10.5 65.5
s17.833 36.167 32.5 49.5c12.667 11.333 26.667 19.833 42 25.5s34.666 8.5 57.999 8.5h58v91c0 28 -5.83301 49.5 -17.5 64.5s-29.167 22.5 -52.5 22.5c-10 0 -18.833 -1.83301 -26.5 -5.5s-14.167 -8.16699 -19.5 -13.5c-8 -8.66699 -13.833 -18.334 -17.5 -29.001
s-5.5 -24.667 -5.5 -42h-56c0 19.333 2.5 38 7.5 56s14.833 34.333 29.5 49c10.667 10.667 23.334 19 38.001 25s31.334 9 50.001 9c40.667 0 71 -10.667 91 -32c11.333 -12 20 -26.333 26 -43s9 -37.667 9 -63v-379h-54zM237.997 246.001l-55.998 -0.000976562
c-13.333 0 -24.833 -1.66699 -34.5 -5s-18.834 -9 -27.501 -17c-8.66699 -8.66699 -15.334 -20.167 -20.001 -34.5s-7 -30.166 -7 -47.499c0 -30.667 5.66699 -55 17 -73s29.333 -27 54 -27c22.667 0 40.667 8.66699 54 26s20 39.333 20 66v112zM153.999 586l-75 130h58
l66 -130h-49z" />
    <glyph glyph-name="aacute" unicode="&#xe1;" horiz-adv-x="352" 
d="M240 0l-0.00292969 46.001c-3.33301 -7.33301 -7.66602 -14 -12.999 -20s-10.333 -10.667 -15 -14c-8 -6 -16.667 -10.833 -26 -14.5s-21 -5.5 -35 -5.5c-32 0 -59 11.333 -81 34c-9.33301 10 -17.166 24.667 -23.499 44s-9.5 43 -9.5 71c0 24 3.5 45.833 10.5 65.5
s17.833 36.167 32.5 49.5c12.667 11.333 26.667 19.833 42 25.5s34.666 8.5 57.999 8.5h58v91c0 28 -5.83301 49.5 -17.5 64.5s-29.167 22.5 -52.5 22.5c-10 0 -18.833 -1.83301 -26.5 -5.5s-14.167 -8.16699 -19.5 -13.5c-8 -8.66699 -13.833 -18.334 -17.5 -29.001
s-5.5 -24.667 -5.5 -42h-56c0 19.333 2.5 38 7.5 56s14.833 34.333 29.5 49c10.667 10.667 23.334 19 38.001 25s31.334 9 50.001 9c40.667 0 71 -10.667 91 -32c11.333 -12 20 -26.333 26 -43s9 -37.667 9 -63v-379h-54zM237.997 246.001l-55.998 -0.000976562
c-13.333 0 -24.833 -1.66699 -34.5 -5s-18.834 -9 -27.501 -17c-8.66699 -8.66699 -15.334 -20.167 -20.001 -34.5s-7 -30.166 -7 -47.499c0 -30.667 5.66699 -55 17 -73s29.333 -27 54 -27c22.667 0 40.667 8.66699 54 26s20 39.333 20 66v112zM194.999 586h-49l65 130h58z
" />
    <glyph glyph-name="acircumflex" unicode="&#xe2;" horiz-adv-x="352" 
d="M240 0l-0.00292969 46.001c-3.33301 -7.33301 -7.66602 -14 -12.999 -20s-10.333 -10.667 -15 -14c-8 -6 -16.667 -10.833 -26 -14.5s-21 -5.5 -35 -5.5c-32 0 -59 11.333 -81 34c-9.33301 10 -17.166 24.667 -23.499 44s-9.5 43 -9.5 71c0 24 3.5 45.833 10.5 65.5
s17.833 36.167 32.5 49.5c12.667 11.333 26.667 19.833 42 25.5s34.666 8.5 57.999 8.5h58v91c0 28 -5.83301 49.5 -17.5 64.5s-29.167 22.5 -52.5 22.5c-10 0 -18.833 -1.83301 -26.5 -5.5s-14.167 -8.16699 -19.5 -13.5c-8 -8.66699 -13.833 -18.334 -17.5 -29.001
s-5.5 -24.667 -5.5 -42h-56c0 19.333 2.5 38 7.5 56s14.833 34.333 29.5 49c10.667 10.667 23.334 19 38.001 25s31.334 9 50.001 9c40.667 0 71 -10.667 91 -32c11.333 -12 20 -26.333 26 -43s9 -37.667 9 -63v-379h-54zM237.997 246.001l-55.998 -0.000976562
c-13.333 0 -24.833 -1.66699 -34.5 -5s-18.834 -9 -27.501 -17c-8.66699 -8.66699 -15.334 -20.167 -20.001 -34.5s-7 -30.166 -7 -47.499c0 -30.667 5.66699 -55 17 -73s29.333 -27 54 -27c22.667 0 40.667 8.66699 54 26s20 39.333 20 66v112zM232.999 586l-60 92l-60 -92
h-52l87 130h50l86 -130h-51z" />
    <glyph glyph-name="atilde" unicode="&#xe3;" horiz-adv-x="352" 
d="M240 0l-0.00292969 46.001c-3.33301 -7.33301 -7.66602 -14 -12.999 -20s-10.333 -10.667 -15 -14c-8 -6 -16.667 -10.833 -26 -14.5s-21 -5.5 -35 -5.5c-32 0 -59 11.333 -81 34c-9.33301 10 -17.166 24.667 -23.499 44s-9.5 43 -9.5 71c0 24 3.5 45.833 10.5 65.5
s17.833 36.167 32.5 49.5c12.667 11.333 26.667 19.833 42 25.5s34.666 8.5 57.999 8.5h58v91c0 28 -5.83301 49.5 -17.5 64.5s-29.167 22.5 -52.5 22.5c-10 0 -18.833 -1.83301 -26.5 -5.5s-14.167 -8.16699 -19.5 -13.5c-8 -8.66699 -13.833 -18.334 -17.5 -29.001
s-5.5 -24.667 -5.5 -42h-56c0 19.333 2.5 38 7.5 56s14.833 34.333 29.5 49c10.667 10.667 23.334 19 38.001 25s31.334 9 50.001 9c40.667 0 71 -10.667 91 -32c11.333 -12 20 -26.333 26 -43s9 -37.667 9 -63v-379h-54zM237.997 246.001l-55.998 -0.000976562
c-13.333 0 -24.833 -1.66699 -34.5 -5s-18.834 -9 -27.501 -17c-8.66699 -8.66699 -15.334 -20.167 -20.001 -34.5s-7 -30.166 -7 -47.499c0 -30.667 5.66699 -55 17 -73s29.333 -27 54 -27c22.667 0 40.667 8.66699 54 26s20 39.333 20 66v112zM292.999 635
c-17.333 -16.667 -31.167 -27.167 -41.5 -31.5s-20.166 -6.5 -29.499 -6.5c-10.667 0 -20 1.5 -28 4.5s-16.667 7.16699 -26 12.5c-7.33301 4.66699 -14.333 8.5 -21 11.5s-13.667 4.5 -21 4.5c-6 0 -11.833 -1.16699 -17.5 -3.5s-14.167 -9.16602 -25.5 -20.499l-28 29
c16.667 16.667 30.167 27.167 40.5 31.5s20.166 6.5 29.499 6.5c11.333 0 20.833 -1.5 28.5 -4.5s16.167 -7.16699 25.5 -12.5c7.33301 -4.66699 14.333 -8.5 21 -11.5s13.667 -4.5 21 -4.5c5.33301 0 11 1.16699 17 3.5s14.667 9.16602 26 20.499l29 -29v0z" />
    <glyph glyph-name="adieresis" unicode="&#xe4;" horiz-adv-x="352" 
d="M240 0l-0.00292969 46.001c-3.33301 -7.33301 -7.66602 -14 -12.999 -20s-10.333 -10.667 -15 -14c-8 -6 -16.667 -10.833 -26 -14.5s-21 -5.5 -35 -5.5c-32 0 -59 11.333 -81 34c-9.33301 10 -17.166 24.667 -23.499 44s-9.5 43 -9.5 71c0 24 3.5 45.833 10.5 65.5
s17.833 36.167 32.5 49.5c12.667 11.333 26.667 19.833 42 25.5s34.666 8.5 57.999 8.5h58v91c0 28 -5.83301 49.5 -17.5 64.5s-29.167 22.5 -52.5 22.5c-10 0 -18.833 -1.83301 -26.5 -5.5s-14.167 -8.16699 -19.5 -13.5c-8 -8.66699 -13.833 -18.334 -17.5 -29.001
s-5.5 -24.667 -5.5 -42h-56c0 19.333 2.5 38 7.5 56s14.833 34.333 29.5 49c10.667 10.667 23.334 19 38.001 25s31.334 9 50.001 9c40.667 0 71 -10.667 91 -32c11.333 -12 20 -26.333 26 -43s9 -37.667 9 -63v-379h-54zM237.997 246.001l-55.998 -0.000976562
c-13.333 0 -24.833 -1.66699 -34.5 -5s-18.834 -9 -27.501 -17c-8.66699 -8.66699 -15.334 -20.167 -20.001 -34.5s-7 -30.166 -7 -47.499c0 -30.667 5.66699 -55 17 -73s29.333 -27 54 -27c22.667 0 40.667 8.66699 54 26s20 39.333 20 66v112zM209.999 606v63h63v-63h-63z
M71.999 606v63h64v-63h-64z" />
    <glyph glyph-name="aring" unicode="&#xe5;" horiz-adv-x="352" 
d="M240 0l-0.00292969 46.001c-3.33301 -7.33301 -7.66602 -14 -12.999 -20s-10.333 -10.667 -15 -14c-8 -6 -16.667 -10.833 -26 -14.5s-21 -5.5 -35 -5.5c-32 0 -59 11.333 -81 34c-9.33301 10 -17.166 24.667 -23.499 44s-9.5 43 -9.5 71c0 24 3.5 45.833 10.5 65.5
s17.833 36.167 32.5 49.5c12.667 11.333 26.667 19.833 42 25.5s34.666 8.5 57.999 8.5h58v91c0 28 -5.83301 49.5 -17.5 64.5s-29.167 22.5 -52.5 22.5c-10 0 -18.833 -1.83301 -26.5 -5.5s-14.167 -8.16699 -19.5 -13.5c-8 -8.66699 -13.833 -18.334 -17.5 -29.001
s-5.5 -24.667 -5.5 -42h-56c0 19.333 2.5 38 7.5 56s14.833 34.333 29.5 49c10.667 10.667 23.334 19 38.001 25s31.334 9 50.001 9c40.667 0 71 -10.667 91 -32c11.333 -12 20 -26.333 26 -43s9 -37.667 9 -63v-379h-54zM237.997 246.001l-55.998 -0.000976562
c-13.333 0 -24.833 -1.66699 -34.5 -5s-18.834 -9 -27.501 -17c-8.66699 -8.66699 -15.334 -20.167 -20.001 -34.5s-7 -30.166 -7 -47.499c0 -30.667 5.66699 -55 17 -73s29.333 -27 54 -27c22.667 0 40.667 8.66699 54 26s20 39.333 20 66v112zM263.999 672
c0 -25.333 -8.83301 -46.833 -26.5 -64.5s-39.167 -26.5 -64.5 -26.5s-46.833 8.83301 -64.5 26.5s-26.5 39.167 -26.5 64.5s8.83301 46.833 26.5 64.5s39.167 26.5 64.5 26.5s46.833 -8.83301 64.5 -26.5s26.5 -39.167 26.5 -64.5zM224.999 672
c0 14.667 -5.16699 27.167 -15.5 37.5s-22.5 15.5 -36.5 15.5c-14.667 0 -27.167 -5.16699 -37.5 -15.5s-15.5 -22.833 -15.5 -37.5c0 -14 5.16699 -26.167 15.5 -36.5s22.833 -15.5 37.5 -15.5c14 0 26.167 5.16699 36.5 15.5s15.5 22.5 15.5 36.5z" />
    <glyph glyph-name="ae" unicode="&#xe6;" horiz-adv-x="544" 
d="M294 246c0 -52 1.49805 -92.001 4.49805 -120.001s10.167 -48.333 21.5 -61c5.33301 -6.66699 12.5 -12.167 21.5 -16.5s19.167 -6.5 30.5 -6.5s21 1.66699 29 5s15.333 8.33301 22 15c7.33301 7.33301 12.833 17.333 16.5 30s5.5 26.667 5.5 42h55
c0 -24 -2.83301 -44.5 -8.5 -61.5s-15.167 -32.167 -28.5 -45.5c-11.333 -12 -25 -20.833 -41 -26.5s-32.667 -8.5 -50 -8.5c-34 0 -61.667 10 -83 30c-6 6 -11.833 13 -17.5 21s-10.167 16 -13.5 24c-4 -10.667 -9.16699 -20.667 -15.5 -30
s-13.166 -16.666 -20.499 -21.999c-8.66699 -6.66699 -18.834 -12.167 -30.501 -16.5s-25.167 -6.5 -40.5 -6.5c-32 0 -59 11.333 -81 34c-9.33301 10 -17.166 24.667 -23.499 44s-9.5 43 -9.5 71c0 24 3.5 45.833 10.5 65.5s17.833 36.167 32.5 49.5
c12.667 11.333 26.667 19.833 42 25.5s34.666 8.5 57.999 8.5h58v91c0 28 -5.83301 49.5 -17.5 64.5s-29.167 22.5 -52.5 22.5c-10 0 -18.833 -1.83301 -26.5 -5.5s-14.167 -8.16699 -19.5 -13.5c-8.66699 -8.66699 -14.667 -18.5 -18 -29.5s-5 -24.833 -5 -41.5h-56
c0 19.333 2.5 38 7.5 56s14.833 34.333 29.5 49c10.667 10.667 23.334 19 38.001 25s31.334 9 50.001 9c36 0 64 -9.33301 84 -28c7.33301 -7.33301 13.333 -15.666 18 -24.999c4.66699 7.33301 9.66699 13.666 15 18.999c10 10.667 22.167 19 36.5 25s30.5 9 48.5 9
c38 0 68.333 -12.333 91 -37c16.667 -18.667 27.667 -46.167 33 -82.5s8 -86.833 8 -151.5h-208zM237.998 245.999h-55.998c-13.333 0 -24.833 -1.5 -34.5 -4.5s-18.834 -8.83301 -27.501 -17.5c-8.66699 -8 -15.334 -19.333 -20.001 -34s-7 -30.667 -7 -48
c0 -30.667 5.66699 -55 17 -73s29.333 -27 54 -27c22.667 0 40.667 8.66699 54 26s20 39.333 20 66v112zM446 290.999c-0.666992 44 -2.50195 77.667 -5.50195 101s-9.83301 40.666 -20.5 51.999c-5.33301 6.66699 -12.166 12.167 -20.499 16.5s-18.166 6.5 -29.499 6.5
s-21.333 -2.16699 -30 -6.5s-15.667 -9.83301 -21 -16.5c-10 -11.333 -16.5 -28.666 -19.5 -51.999s-4.83301 -57 -5.5 -101h152z" />
    <glyph glyph-name="ccedilla" unicode="&#xe7;" horiz-adv-x="340" 
d="M303 134c-0.666992 -24 -3.5 -44.8311 -8.5 -62.498s-14.167 -33.167 -27.5 -46.5c-22 -22 -52 -33 -90 -33c-40 0 -71.333 13.333 -94 40c-15.333 18 -25.5 44.5 -30.5 79.5s-7.5 82.5 -7.5 142.5s2.5 107.5 7.5 142.5s15.167 61.5 30.5 79.5c22 27.333 53.333 41 94 41
c19.333 0 36.333 -2.5 51 -7.5s27.667 -13.167 39 -24.5c15.333 -14.667 25 -31.5 29 -50.5s6.33301 -39.167 7 -60.5h-55c0 13.333 -1 26.166 -3 38.499s-7.66699 23.5 -17 33.5c-12 14 -28.667 21 -50 21c-22.667 0 -40 -7.66699 -52 -23
c-11.333 -14 -18.333 -35.5 -21 -64.5s-4 -70.833 -4 -125.5s1.33301 -96.334 4 -125.001s9.66699 -50 21 -64c12 -15.333 29.333 -23 52 -23c19.333 0 35.666 6.66699 48.999 20c8.66699 9.33301 14.334 19.833 17.001 31.5s4 25.167 4 40.5h55zM163 -170.998h-53l53 134
h46z" />
    <glyph glyph-name="egrave" unicode="&#xe8;" horiz-adv-x="349" 
d="M101 246c0 -52 1.50098 -91.832 4.50098 -119.499s10.167 -48.167 21.5 -61.5c5.33301 -6.66699 12.333 -12.167 21 -16.5s18.667 -6.5 30 -6.5c10 0 19.5 1.5 28.5 4.5s16.833 8.16699 23.5 15.5c14.667 15.333 22 39.333 22 72h55
c0 -24.667 -2.83301 -45.334 -8.5 -62.001s-15.167 -31.667 -28.5 -45c-22.667 -23.333 -53.334 -35 -92.001 -35c-38 0 -68.667 12.333 -92 37c-16.667 18 -27.667 44.833 -33 80.5s-8 83.834 -8 144.501c0 61.333 2.5 109.666 7.5 144.999s16.167 62.333 33.5 81
c22.667 24.667 53 37 91 37s68.333 -12.333 91 -37c16.667 -18.667 27.667 -46.167 33 -82.5s8 -86.833 8 -151.5h-208zM253.001 291.001c-0.666992 44 -2.66895 77.667 -6.00195 101s-10 40.666 -20 51.999c-5.33301 6.66699 -12.166 12.167 -20.499 16.5
s-18.166 6.5 -29.499 6.5s-21.333 -2.16699 -30 -6.5s-15.667 -9.83301 -21 -16.5c-10 -11.333 -16.5 -28.666 -19.5 -51.999s-4.83301 -57 -5.5 -101h152zM157.999 586.001l-75 130h58l66 -130h-49z" />
    <glyph glyph-name="eacute" unicode="&#xe9;" horiz-adv-x="349" 
d="M101 246c0 -52 1.50098 -91.832 4.50098 -119.499s10.167 -48.167 21.5 -61.5c5.33301 -6.66699 12.333 -12.167 21 -16.5s18.667 -6.5 30 -6.5c10 0 19.5 1.5 28.5 4.5s16.833 8.16699 23.5 15.5c14.667 15.333 22 39.333 22 72h55
c0 -24.667 -2.83301 -45.334 -8.5 -62.001s-15.167 -31.667 -28.5 -45c-22.667 -23.333 -53.334 -35 -92.001 -35c-38 0 -68.667 12.333 -92 37c-16.667 18 -27.667 44.833 -33 80.5s-8 83.834 -8 144.501c0 61.333 2.5 109.666 7.5 144.999s16.167 62.333 33.5 81
c22.667 24.667 53 37 91 37s68.333 -12.333 91 -37c16.667 -18.667 27.667 -46.167 33 -82.5s8 -86.833 8 -151.5h-208zM253.001 291.001c-0.666992 44 -2.66895 77.667 -6.00195 101s-10 40.666 -20 51.999c-5.33301 6.66699 -12.166 12.167 -20.499 16.5
s-18.166 6.5 -29.499 6.5s-21.333 -2.16699 -30 -6.5s-15.667 -9.83301 -21 -16.5c-10 -11.333 -16.5 -28.666 -19.5 -51.999s-4.83301 -57 -5.5 -101h152zM198.999 586.001h-49l65 130h58z" />
    <glyph glyph-name="ecircumflex" unicode="&#xea;" horiz-adv-x="349" 
d="M101 246c0 -52 1.50098 -91.832 4.50098 -119.499s10.167 -48.167 21.5 -61.5c5.33301 -6.66699 12.333 -12.167 21 -16.5s18.667 -6.5 30 -6.5c10 0 19.5 1.5 28.5 4.5s16.833 8.16699 23.5 15.5c14.667 15.333 22 39.333 22 72h55
c0 -24.667 -2.83301 -45.334 -8.5 -62.001s-15.167 -31.667 -28.5 -45c-22.667 -23.333 -53.334 -35 -92.001 -35c-38 0 -68.667 12.333 -92 37c-16.667 18 -27.667 44.833 -33 80.5s-8 83.834 -8 144.501c0 61.333 2.5 109.666 7.5 144.999s16.167 62.333 33.5 81
c22.667 24.667 53 37 91 37s68.333 -12.333 91 -37c16.667 -18.667 27.667 -46.167 33 -82.5s8 -86.833 8 -151.5h-208zM253.001 291.001c-0.666992 44 -2.66895 77.667 -6.00195 101s-10 40.666 -20 51.999c-5.33301 6.66699 -12.166 12.167 -20.499 16.5
s-18.166 6.5 -29.499 6.5s-21.333 -2.16699 -30 -6.5s-15.667 -9.83301 -21 -16.5c-10 -11.333 -16.5 -28.666 -19.5 -51.999s-4.83301 -57 -5.5 -101h152zM236.999 586.001l-60 92l-60 -92h-52l87 130h50l86 -130h-51z" />
    <glyph glyph-name="edieresis" unicode="&#xeb;" horiz-adv-x="349" 
d="M101 246c0 -52 1.50098 -91.832 4.50098 -119.499s10.167 -48.167 21.5 -61.5c5.33301 -6.66699 12.333 -12.167 21 -16.5s18.667 -6.5 30 -6.5c10 0 19.5 1.5 28.5 4.5s16.833 8.16699 23.5 15.5c14.667 15.333 22 39.333 22 72h55
c0 -24.667 -2.83301 -45.334 -8.5 -62.001s-15.167 -31.667 -28.5 -45c-22.667 -23.333 -53.334 -35 -92.001 -35c-38 0 -68.667 12.333 -92 37c-16.667 18 -27.667 44.833 -33 80.5s-8 83.834 -8 144.501c0 61.333 2.5 109.666 7.5 144.999s16.167 62.333 33.5 81
c22.667 24.667 53 37 91 37s68.333 -12.333 91 -37c16.667 -18.667 27.667 -46.167 33 -82.5s8 -86.833 8 -151.5h-208zM253.001 291.001c-0.666992 44 -2.66895 77.667 -6.00195 101s-10 40.666 -20 51.999c-5.33301 6.66699 -12.166 12.167 -20.499 16.5
s-18.166 6.5 -29.499 6.5s-21.333 -2.16699 -30 -6.5s-15.667 -9.83301 -21 -16.5c-10 -11.333 -16.5 -28.666 -19.5 -51.999s-4.83301 -57 -5.5 -101h152zM213.999 606.001v63h63v-63h-63zM75.999 606.001v63h64v-63h-64z" />
    <glyph glyph-name="igrave" unicode="&#xec;" horiz-adv-x="181" 
d="M63 0v509h56v-509h-56zM71 586l-75 130h58l66 -130h-49z" />
    <glyph glyph-name="iacute" unicode="&#xed;" horiz-adv-x="181" 
d="M63 0v509h56v-509h-56zM114 586h-49l65 130h58z" />
    <glyph glyph-name="icircumflex" unicode="&#xee;" horiz-adv-x="181" 
d="M63 0v509h56v-509h-56zM152 586l-60 92l-60 -92h-52l87 130h50l86 -130h-51z" />
    <glyph glyph-name="idieresis" unicode="&#xef;" horiz-adv-x="181" 
d="M63 0v509h56v-509h-56zM129 606v63h63v-63h-63zM-9 606v63h64v-63h-64z" />
    <glyph glyph-name="eth" unicode="&#xf0;" horiz-adv-x="355" 
d="M309 249c0 -59.333 -2.49902 -106.001 -7.49902 -140.001s-15.167 -60 -30.5 -78c-22 -26 -53.333 -39 -94 -39s-72 13 -94 39c-15.333 18 -25.5 44 -30.5 78s-7.5 80.667 -7.5 140c0 31.333 0.5 58.833 1.5 82.5s3 44.334 6 62.001s6.83301 32.667 11.5 45
s11 22.833 19 31.5c21.333 23.333 49.666 35 84.999 35c9.33301 0 18.833 -1 28.5 -3s18.5 -5.66699 26.5 -11l-32 91h-82v44h67l-33 86h57l32 -86h72v-44h-57l39 -115c4 -12 7.5 -24.667 10.5 -38s5.33301 -28.333 7 -45s3 -36 4 -58s1.5 -47.667 1.5 -77zM253.001 249.999
c0 53.333 -1.33301 94.166 -4 122.499s-9.66699 49.166 -21 62.499c-5.33301 6.66699 -12.333 12 -21 16s-18.667 6 -30 6s-21.166 -2 -29.499 -6s-15.166 -9.33301 -20.499 -16c-11.333 -13.333 -18.5 -34.166 -21.5 -62.499s-4.5 -69.166 -4.5 -122.499
s1.5 -94.333 4.5 -123s10.167 -49.667 21.5 -63c5.33301 -6.66699 12.166 -12 20.499 -16s18.166 -6 29.499 -6s21.333 2 30 6s15.667 9.33301 21 16c11.333 13.333 18.333 34.333 21 63s4 69.667 4 123z" />
    <glyph glyph-name="ntilde" unicode="&#xf1;" horiz-adv-x="373" 
d="M259 0l-0.000976562 382.999c0 28 -6.83301 48.833 -20.5 62.5s-30.167 20.5 -49.5 20.5s-36 -6.83301 -50 -20.5s-21 -34.5 -21 -62.5v-383h-56v509h55v-41c3.33301 5.33301 7.83301 11 13.5 17s10.834 10.667 15.501 14c17.333 12 36.666 18 57.999 18
c17.333 0 32.333 -3 45 -9s24.334 -14.667 35.001 -26c10 -10.667 17.667 -23.667 23 -39s8 -35.666 8 -60.999v-382h-56zM309.999 634.999c-17.333 -16.667 -31.167 -27.167 -41.5 -31.5s-20.166 -6.5 -29.499 -6.5c-10.667 0 -20 1.5 -28 4.5s-16.667 7.16699 -26 12.5
c-7.33301 4.66699 -14.333 8.5 -21 11.5s-13.667 4.5 -21 4.5c-6 0 -11.833 -1.16699 -17.5 -3.5s-14.167 -9.16602 -25.5 -20.499l-28 29c16.667 16.667 30.167 27.167 40.5 31.5s20.166 6.5 29.499 6.5c11.333 0 20.833 -1.5 28.5 -4.5s16.167 -7.16699 25.5 -12.5
c7.33301 -4.66699 14.333 -8.5 21 -11.5s13.667 -4.5 21 -4.5c5.33301 0 11 1.16699 17 3.5s14.667 9.16602 26 20.499l29 -29v0z" />
    <glyph glyph-name="ograve" unicode="&#xf2;" horiz-adv-x="353" 
d="M309 254c0 -60 -2.5 -107.333 -7.5 -142s-15.167 -61.334 -30.5 -80.001c-22 -26.667 -53.333 -40 -94 -40s-72 13.333 -94 40c-15.333 18.667 -25.5 45.334 -30.5 80.001s-7.5 82 -7.5 142s2.5 107.333 7.5 142s15.167 61.334 30.5 80.001c22 27.333 53.333 41 94 41
s72 -13.667 94 -41c15.333 -18.667 25.5 -45.334 30.5 -80.001s7.5 -82 7.5 -142zM253 254c0 54.667 -1.5 96.5 -4.5 125.5s-10.167 50.5 -21.5 64.5c-5.33301 6.66699 -12.166 12.167 -20.499 16.5s-18.166 6.5 -29.499 6.5s-21.333 -2.16699 -30 -6.5
s-15.667 -9.83301 -21 -16.5c-11.333 -14 -18.333 -35.5 -21 -64.5s-4 -70.833 -4 -125.5s1.33301 -96.334 4 -125.001s9.66699 -50 21 -64c5.33301 -6.66699 12.333 -12.167 21 -16.5s18.667 -6.5 30 -6.5s21.166 2.16699 29.499 6.5s15.166 9.83301 20.499 16.5
c11.333 14 18.5 35.333 21.5 64s4.5 70.334 4.5 125.001zM158 586l-75 130h58l66 -130h-49z" />
    <glyph glyph-name="oacute" unicode="&#xf3;" horiz-adv-x="353" 
d="M309 254c0 -60 -2.5 -107.333 -7.5 -142s-15.167 -61.334 -30.5 -80.001c-22 -26.667 -53.333 -40 -94 -40s-72 13.333 -94 40c-15.333 18.667 -25.5 45.334 -30.5 80.001s-7.5 82 -7.5 142s2.5 107.333 7.5 142s15.167 61.334 30.5 80.001c22 27.333 53.333 41 94 41
s72 -13.667 94 -41c15.333 -18.667 25.5 -45.334 30.5 -80.001s7.5 -82 7.5 -142zM253 254c0 54.667 -1.5 96.5 -4.5 125.5s-10.167 50.5 -21.5 64.5c-5.33301 6.66699 -12.166 12.167 -20.499 16.5s-18.166 6.5 -29.499 6.5s-21.333 -2.16699 -30 -6.5
s-15.667 -9.83301 -21 -16.5c-11.333 -14 -18.333 -35.5 -21 -64.5s-4 -70.833 -4 -125.5s1.33301 -96.334 4 -125.001s9.66699 -50 21 -64c5.33301 -6.66699 12.333 -12.167 21 -16.5s18.667 -6.5 30 -6.5s21.166 2.16699 29.499 6.5s15.166 9.83301 20.499 16.5
c11.333 14 18.5 35.333 21.5 64s4.5 70.334 4.5 125.001zM199 586h-49l65 130h58z" />
    <glyph glyph-name="ocircumflex" unicode="&#xf4;" horiz-adv-x="353" 
d="M309 254c0 -60 -2.5 -107.333 -7.5 -142s-15.167 -61.334 -30.5 -80.001c-22 -26.667 -53.333 -40 -94 -40s-72 13.333 -94 40c-15.333 18.667 -25.5 45.334 -30.5 80.001s-7.5 82 -7.5 142s2.5 107.333 7.5 142s15.167 61.334 30.5 80.001c22 27.333 53.333 41 94 41
s72 -13.667 94 -41c15.333 -18.667 25.5 -45.334 30.5 -80.001s7.5 -82 7.5 -142zM253 254c0 54.667 -1.5 96.5 -4.5 125.5s-10.167 50.5 -21.5 64.5c-5.33301 6.66699 -12.166 12.167 -20.499 16.5s-18.166 6.5 -29.499 6.5s-21.333 -2.16699 -30 -6.5
s-15.667 -9.83301 -21 -16.5c-11.333 -14 -18.333 -35.5 -21 -64.5s-4 -70.833 -4 -125.5s1.33301 -96.334 4 -125.001s9.66699 -50 21 -64c5.33301 -6.66699 12.333 -12.167 21 -16.5s18.667 -6.5 30 -6.5s21.166 2.16699 29.499 6.5s15.166 9.83301 20.499 16.5
c11.333 14 18.5 35.333 21.5 64s4.5 70.334 4.5 125.001zM237 586l-60 92l-60 -92h-52l87 130h50l86 -130h-51z" />
    <glyph glyph-name="otilde" unicode="&#xf5;" horiz-adv-x="353" 
d="M309 254c0 -60 -2.5 -107.333 -7.5 -142s-15.167 -61.334 -30.5 -80.001c-22 -26.667 -53.333 -40 -94 -40s-72 13.333 -94 40c-15.333 18.667 -25.5 45.334 -30.5 80.001s-7.5 82 -7.5 142s2.5 107.333 7.5 142s15.167 61.334 30.5 80.001c22 27.333 53.333 41 94 41
s72 -13.667 94 -41c15.333 -18.667 25.5 -45.334 30.5 -80.001s7.5 -82 7.5 -142zM253 254c0 54.667 -1.5 96.5 -4.5 125.5s-10.167 50.5 -21.5 64.5c-5.33301 6.66699 -12.166 12.167 -20.499 16.5s-18.166 6.5 -29.499 6.5s-21.333 -2.16699 -30 -6.5
s-15.667 -9.83301 -21 -16.5c-11.333 -14 -18.333 -35.5 -21 -64.5s-4 -70.833 -4 -125.5s1.33301 -96.334 4 -125.001s9.66699 -50 21 -64c5.33301 -6.66699 12.333 -12.167 21 -16.5s18.667 -6.5 30 -6.5s21.166 2.16699 29.499 6.5s15.166 9.83301 20.499 16.5
c11.333 14 18.5 35.333 21.5 64s4.5 70.334 4.5 125.001zM297 635c-17.333 -16.667 -31.167 -27.167 -41.5 -31.5s-20.166 -6.5 -29.499 -6.5c-10.667 0 -20 1.5 -28 4.5s-16.667 7.16699 -26 12.5c-7.33301 4.66699 -14.333 8.5 -21 11.5s-13.667 4.5 -21 4.5
c-6 0 -11.833 -1.16699 -17.5 -3.5s-14.167 -9.16602 -25.5 -20.499l-28 29c16.667 16.667 30.167 27.167 40.5 31.5s20.166 6.5 29.499 6.5c11.333 0 20.833 -1.5 28.5 -4.5s16.167 -7.16699 25.5 -12.5c7.33301 -4.66699 14.333 -8.5 21 -11.5s13.667 -4.5 21 -4.5
c5.33301 0 11 1.16699 17 3.5s14.667 9.16602 26 20.499l29 -29v0z" />
    <glyph glyph-name="odieresis" unicode="&#xf6;" horiz-adv-x="353" 
d="M309 254c0 -60 -2.5 -107.333 -7.5 -142s-15.167 -61.334 -30.5 -80.001c-22 -26.667 -53.333 -40 -94 -40s-72 13.333 -94 40c-15.333 18.667 -25.5 45.334 -30.5 80.001s-7.5 82 -7.5 142s2.5 107.333 7.5 142s15.167 61.334 30.5 80.001c22 27.333 53.333 41 94 41
s72 -13.667 94 -41c15.333 -18.667 25.5 -45.334 30.5 -80.001s7.5 -82 7.5 -142zM253 254c0 54.667 -1.5 96.5 -4.5 125.5s-10.167 50.5 -21.5 64.5c-5.33301 6.66699 -12.166 12.167 -20.499 16.5s-18.166 6.5 -29.499 6.5s-21.333 -2.16699 -30 -6.5
s-15.667 -9.83301 -21 -16.5c-11.333 -14 -18.333 -35.5 -21 -64.5s-4 -70.833 -4 -125.5s1.33301 -96.334 4 -125.001s9.66699 -50 21 -64c5.33301 -6.66699 12.333 -12.167 21 -16.5s18.667 -6.5 30 -6.5s21.166 2.16699 29.499 6.5s15.166 9.83301 20.499 16.5
c11.333 14 18.5 35.333 21.5 64s4.5 70.334 4.5 125.001zM214 606v63h63v-63h-63zM76 606v63h64v-63h-64z" />
    <glyph glyph-name="divide" unicode="&#xf7;" horiz-adv-x="431" 
d="M49 248v53h334v-53h-334zM179 89v76h75v-76h-75zM179 384v75h75v-75h-75z" />
    <glyph glyph-name="oslash" unicode="&#xf8;" horiz-adv-x="347" 
d="M279 466c12 -19.333 20 -46 24 -80s6 -78 6 -132c0 -60 -2.5 -107.333 -7.5 -142s-15.167 -61.334 -30.5 -80.001c-22 -26.667 -53.333 -40 -94 -40c-28 0 -51 6 -69 18l-20 -54h-46l33 87c-12 19.333 -20 45.833 -24 79.5s-6 77.5 -6 131.5c0 60 2.5 107.333 7.5 142
s15.167 61.334 30.5 80.001c22 27.333 53.333 41 94 41c14 0 26.5 -1.66699 37.5 -5s21.167 -8 30.5 -14l20 55h46zM226 447c-5.33301 6 -12.167 11 -20.5 15s-17.833 6 -28.5 6c-22 0 -39 -7.66699 -51 -23c-11.333 -14 -18.333 -35.667 -21 -65s-4 -71.333 -4 -126
c0 -32.667 0.5 -60 1.5 -82s3.16699 -39.667 6.5 -53zM252.999 254c0 32.667 -0.5 60.168 -1.5 82.501s-3.16699 40.166 -6.5 53.499l-117 -329c12 -13.333 28.333 -20 49 -20c21.333 0 38 7.66699 50 23c11.333 14 18.5 35.5 21.5 64.5s4.5 70.833 4.5 125.5z" />
    <glyph glyph-name="ugrave" unicode="&#xf9;" horiz-adv-x="373" 
d="M256 0l0.000976562 40.999c-3.33301 -5.33301 -7.83301 -11 -13.5 -17s-10.834 -10.667 -15.501 -14c-17.333 -12 -36.666 -18 -57.999 -18c-17.333 0 -32.333 2.83301 -45 8.5s-24.334 14.167 -35.001 25.5c-10 10.667 -17.667 23.834 -23 39.501s-8 36.167 -8 61.5v382
h56v-383c0 -28 6.83301 -48.833 20.5 -62.5s30.167 -20.5 49.5 -20.5s36 6.83301 50 20.5s21 34.5 21 62.5v383h56v-509h-55zM165.001 585.999l-75 130h58l66 -130h-49z" />
    <glyph glyph-name="uacute" unicode="&#xfa;" horiz-adv-x="373" 
d="M256 0l0.000976562 40.999c-3.33301 -5.33301 -7.83301 -11 -13.5 -17s-10.834 -10.667 -15.501 -14c-17.333 -12 -36.666 -18 -57.999 -18c-17.333 0 -32.333 2.83301 -45 8.5s-24.334 14.167 -35.001 25.5c-10 10.667 -17.667 23.834 -23 39.501s-8 36.167 -8 61.5v382
h56v-383c0 -28 6.83301 -48.833 20.5 -62.5s30.167 -20.5 49.5 -20.5s36 6.83301 50 20.5s21 34.5 21 62.5v383h56v-509h-55zM206.001 585.999h-49l65 130h58z" />
    <glyph glyph-name="ucircumflex" unicode="&#xfb;" horiz-adv-x="373" 
d="M256 0l0.000976562 40.999c-3.33301 -5.33301 -7.83301 -11 -13.5 -17s-10.834 -10.667 -15.501 -14c-17.333 -12 -36.666 -18 -57.999 -18c-17.333 0 -32.333 2.83301 -45 8.5s-24.334 14.167 -35.001 25.5c-10 10.667 -17.667 23.834 -23 39.501s-8 36.167 -8 61.5v382
h56v-383c0 -28 6.83301 -48.833 20.5 -62.5s30.167 -20.5 49.5 -20.5s36 6.83301 50 20.5s21 34.5 21 62.5v383h56v-509h-55zM244.001 585.999l-60 92l-60 -92h-52l87 130h50l86 -130h-51z" />
    <glyph glyph-name="udieresis" unicode="&#xfc;" horiz-adv-x="373" 
d="M256 0l0.000976562 40.999c-3.33301 -5.33301 -7.83301 -11 -13.5 -17s-10.834 -10.667 -15.501 -14c-17.333 -12 -36.666 -18 -57.999 -18c-17.333 0 -32.333 2.83301 -45 8.5s-24.334 14.167 -35.001 25.5c-10 10.667 -17.667 23.834 -23 39.501s-8 36.167 -8 61.5v382
h56v-383c0 -28 6.83301 -48.833 20.5 -62.5s30.167 -20.5 49.5 -20.5s36 6.83301 50 20.5s21 34.5 21 62.5v383h56v-509h-55zM221.001 605.999v63h63v-63h-63zM83.001 605.999v63h64v-63h-64z" />
    <glyph glyph-name="yacute" unicode="&#xfd;" horiz-adv-x="308" 
d="M157 -99c-9.33301 -39.333 -26.666 -66.5 -51.999 -81.5s-57.333 -22.5 -96 -22.5v50c28 0 49.167 5.5 63.5 16.5s24.166 27.167 29.499 48.5l23 90l-121 507h62l87 -420l87 420h61zM181 586h-49l65 130h58z" />
    <glyph glyph-name="thorn" unicode="&#xfe;" horiz-adv-x="366" 
d="M321 254c0 -31.333 -0.500977 -59.168 -1.50098 -83.501s-3 -45.5 -6 -63.5s-6.83301 -33.5 -11.5 -46.5s-11 -23.833 -19 -32.5c-9.33301 -11.333 -20.5 -20.166 -33.5 -26.499s-28.167 -9.5 -45.5 -9.5c-22 0 -41.333 5.33301 -58 16
c-5.33301 3.33301 -10.333 7.83301 -15 13.5s-8.66699 11.167 -12 16.5v-241h-56v915h55v-244c2.66699 5.33301 6.83398 11 12.501 17s10.834 10.667 15.501 14c16.667 12 36 18 58 18c31.333 0 57.666 -12 78.999 -36c15.333 -18 25.5 -44.5 30.5 -79.5
s7.5 -84.167 7.5 -147.5zM264.999 253.998c0 28.667 -0.333008 53.4971 -1 74.4971s-1.83398 39 -3.50098 54s-4.16699 27.333 -7.5 37s-8 17.834 -14 24.501c-5.33301 6.66699 -12.166 12.167 -20.499 16.5s-17.5 6.5 -27.5 6.5c-18.667 0 -35 -6.33301 -49 -19
c-15.333 -15.333 -23 -38.666 -23 -69.999v-247c0 -31.333 7.66699 -54.666 23 -69.999c14 -12.667 30.333 -19 49 -19c10 0 19.167 2 27.5 6s15.166 9.33301 20.499 16c6 6.66699 10.667 15 14 25s5.83301 22.333 7.5 37s2.83398 32.5 3.50098 53.5s1 45.833 1 74.5z" />
    <glyph glyph-name="ydieresis" unicode="&#xff;" horiz-adv-x="308" 
d="M157 -99c-9.33301 -39.333 -26.666 -66.5 -51.999 -81.5s-57.333 -22.5 -96 -22.5v50c28 0 49.167 5.5 63.5 16.5s24.166 27.167 29.499 48.5l23 90l-121 507h62l87 -420l87 420h61zM196 606v63h63v-63h-63zM58 606v63h64v-63h-64z" />
    <glyph glyph-name="dotlessi" unicode="&#x131;" horiz-adv-x="181" 
d="M63 0v509h56v-509h-56z" />
    <glyph glyph-name="IJ" unicode="&#x132;" horiz-adv-x="529" 
d="M69 0v712h59v-712h-59zM468 153c0 -52 -14.001 -92.001 -42.001 -120.001c-14 -14 -30.167 -24.333 -48.5 -31s-38.166 -10 -59.499 -10c-47.333 0 -85 16.667 -113 50l43 39c8 -11.333 18 -20.166 30 -26.499s25.333 -9.5 40 -9.5c25.333 0 46.833 9 64.5 27
s26.5 45 26.5 81v559h59v-559z" />
    <glyph glyph-name="ij" unicode="&#x133;" horiz-adv-x="362" 
d="M62 0v509h56v-509h-56zM54 626v72h72v-72h-72zM299 -68c0 -25.333 -3.33301 -46 -10 -62s-16 -29.667 -28 -41c-14 -13.333 -29.5 -22 -46.5 -26s-35.167 -6 -54.5 -6v50c25.333 0 45.5 6.33301 60.5 19s22.5 35 22.5 67v576h56v-577zM235 626v72h72v-72h-72z" />
    <glyph glyph-name="Lslash" unicode="&#x141;" horiz-adv-x="341" 
d="M70 0v294l-50 -47v64l50 48v353h59v-300l95 90v-64l-95 -91v-294h189v-53h-248z" />
    <glyph glyph-name="lslash" unicode="&#x142;" horiz-adv-x="238" 
d="M218 0c-19.333 0 -37.5 2.00195 -54.5 6.00195s-32.5 12.667 -46.5 26c-12 11.333 -21.333 25.166 -28 41.499s-10 37.166 -10 62.499v184l-62 -64v63l62 64v329h56v-276l63 66v-63l-63 -66v-237c0 -28 6.83301 -49.333 20.5 -64s34.5 -22 62.5 -22v-50z" />
    <glyph glyph-name="OE" unicode="&#x152;" horiz-adv-x="602" 
d="M310 0l0.000976562 40.002c-22.667 -32 -56.334 -48 -101.001 -48c-22 0 -42 3.66699 -60 11s-33 17.666 -45 30.999c-10.667 12 -19.334 25.167 -26.001 39.5s-11.667 33.333 -15 57s-5.66602 53.5 -6.99902 89.5s-2 81.333 -2 136s0.666992 100 2 136
s3.66602 65.833 6.99902 89.5s8.33301 42.667 15 57s15.334 27.5 26.001 39.5c12 13.333 27 23.666 45 30.999s38 11 60 11c45.333 0 79 -16 101 -48v40h246v-53h-190v-276h164v-53h-164v-277h190v-53h-246zM308.001 356.002c0 52 -0.333008 94.5 -1 127.5
s-2.33398 59.667 -5.00098 80s-6.16699 36.166 -10.5 47.499s-10.166 21.333 -17.499 30c-15.333 17.333 -36.666 26 -63.999 26c-14.667 0 -27 -2.33301 -37 -7s-18.667 -11 -26 -19c-7.33301 -8.66699 -13.166 -18.667 -17.499 -30s-7.83301 -27.166 -10.5 -47.499
s-4.33398 -47 -5.00098 -80s-1 -75.5 -1 -127.5s0.333008 -94.5 1 -127.5s2.33398 -59.667 5.00098 -80s6.16699 -36.166 10.5 -47.499s10.166 -21.333 17.499 -30c7.33301 -8 16 -14.333 26 -19s22.333 -7 37 -7s27.167 2.33301 37.5 7s19.166 11 26.499 19
c7.33301 8.66699 13.166 18.667 17.499 30s7.83301 27.166 10.5 47.499s4.33398 47 5.00098 80s1 75.5 1 127.5z" />
    <glyph glyph-name="oe" unicode="&#x153;" horiz-adv-x="559" 
d="M309 246c0 -52 1.49707 -91.832 4.49707 -119.499s10.167 -48.167 21.5 -61.5c5.33301 -6.66699 12.333 -12.167 21 -16.5s18.667 -6.5 30 -6.5c10 0 19.5 1.5 28.5 4.5s16.5 8.16699 22.5 15.5c15.333 15.333 23 39.333 23 72h55c0 -24.667 -3 -45.334 -9 -62.001
s-15.667 -31.667 -29 -45c-11.333 -12 -24.666 -20.833 -39.999 -26.5s-32.333 -8.5 -51 -8.5s-35.167 3.16699 -49.5 9.5s-26.5 14.5 -36.5 24.5c-3.33301 4 -6.66602 8.33301 -9.99902 13s-6.33301 10 -9 16c-2.66699 -6 -5.66699 -11.333 -9 -16
s-6.66602 -9 -9.99902 -13c-9.33301 -10.667 -21.166 -19 -35.499 -25s-30.833 -9 -49.5 -9c-40 0 -71.333 13.333 -94 40c-15.333 18.667 -25.5 45.334 -30.5 80.001s-7.5 82 -7.5 142s2.5 107.5 7.5 142.5s15.167 61.5 30.5 79.5c22 27.333 53.333 41 94 41
c18.667 0 35.167 -3.16699 49.5 -9.5s26.5 -14.5 36.5 -24.5c7.33301 -8.66699 13.333 -18.334 18 -29.001c4.66699 11.333 11 21 19 29c10 10 22.167 18.167 36.5 24.5s30.166 9.5 47.499 9.5c38 0 68.333 -12.333 91 -37c16.667 -18.667 27.667 -46.167 33 -82.5
s8 -86.833 8 -151.5h-207zM252.997 254.001c0 54.667 -1.50195 96.5 -4.50195 125.5s-10.167 50.5 -21.5 64.5c-5.33301 6.66699 -12.166 12.167 -20.499 16.5s-18.166 6.5 -29.499 6.5s-21.333 -2.16699 -30 -6.5s-15.667 -9.83301 -21 -16.5
c-11.333 -14 -18.333 -35.5 -21 -64.5s-4 -70.833 -4 -125.5s1.33301 -96.5 4 -125.5s9.66699 -50.167 21 -63.5c12 -15.333 29 -23 51 -23c21.333 0 38 7.66699 50 23c11.333 13.333 18.5 34.5 21.5 63.5s4.5 70.833 4.5 125.5zM459.995 291.001
c0 44 -1.50195 77.667 -4.50195 101s-9.83301 40.666 -20.5 51.999c-5.33301 6.66699 -12.333 12.167 -21 16.5s-18.667 6.5 -30 6.5s-21.166 -2.16699 -29.499 -6.5s-15.166 -9.83301 -20.499 -16.5c-10.667 -11.333 -17.5 -28.666 -20.5 -51.999s-4.5 -57 -4.5 -101h151z
" />
    <glyph glyph-name="Scaron" unicode="&#x160;" horiz-adv-x="396" 
d="M350 186c0 -38 -3.33789 -69.167 -10.0049 -93.5s-18 -44.5 -34 -60.5c-12 -12 -27.167 -21.333 -45.5 -28s-40.166 -10 -65.499 -10c-49.333 0 -86.666 12.667 -111.999 38c-8 8 -14.667 16.5 -20 25.5s-9.66602 19.167 -12.999 30.5s-5.66602 24.333 -6.99902 39
s-2 31.667 -2 51h59c0 -28 1.83301 -50 5.5 -66s11.167 -29.667 22.5 -41c16 -16 38.333 -24 67 -24c16.667 0 30.334 2.16699 41.001 6.5s19.667 10.166 27 17.499c11.333 12.667 18.833 27.667 22.5 45s5.5 40 5.5 68c0 22 -1 40.833 -3 56.5s-5.83301 29.167 -11.5 40.5
s-13.334 20.833 -23.001 28.5s-22.167 14.5 -37.5 20.5l-76 31c-18 7.33301 -33.167 15.833 -45.5 25.5s-22 21.334 -29 35.001s-12 30 -15 49s-4.5 41.833 -4.5 68.5c0 30.667 4 58 12 82s20.333 43.667 37 59c26.667 25.333 61.334 38 104.001 38c45.333 0 81 -13 107 -39
c17.333 -17.333 28.833 -36.833 34.5 -58.5s8.5 -48.167 8.5 -79.5h-59c0 22.667 -1.83301 41.667 -5.5 57s-10.834 29 -21.501 41c-7.33301 8 -16.166 14.333 -26.499 19s-23.166 7 -38.499 7c-14 0 -26 -2 -36 -6s-18.667 -9.66699 -26 -17
c-11.333 -11.333 -19.333 -25.666 -24 -42.999s-7 -37 -7 -59c0 -20.667 1 -37.834 3 -51.501s5.66699 -25.5 11 -35.5s13.166 -18.5 23.499 -25.5s23.5 -13.833 39.5 -20.5l76 -31c19.333 -8 35 -17.5 47 -28.5s21.333 -24.167 28 -39.5s11.167 -33 13.5 -53
s3.5 -43 3.5 -69zM231.995 758h-50l-87 129h52l60 -91l59 91h52z" />
    <glyph glyph-name="scaron" unicode="&#x161;" horiz-adv-x="336" 
d="M303 130c0 -20 -3.66504 -38.498 -10.998 -55.498s-17 -31.5 -29 -43.5c-26 -26 -58.333 -39 -97 -39c-38 0 -69 12 -93 36c-14.667 15.333 -25 32.166 -31 50.499s-9 38.166 -9 59.499h56c0 -16 2 -30.167 6 -42.5s10.667 -23.166 20 -32.499c14 -14 31 -21 51 -21
c23.333 0 42.666 7.66699 57.999 23s23 36.333 23 63c0 22 -4.66699 40.333 -14 55c-10.667 16.667 -27.667 31.334 -51 44.001l-64 35c-16 9.33301 -29.667 19.333 -41 30s-19.666 20.667 -24.999 30c-9.33301 18 -14 39.333 -14 64c0 19.333 3.66699 37.166 11 53.499
s17 30.5 29 42.5c23.333 23.333 53.666 35 90.999 35c38 0 68.333 -11.333 91 -34c24.667 -24.667 37 -61.334 37 -110.001h-56c0 19.333 -1.66699 34.333 -5 45s-9 20.334 -17 29.001c-7.33301 7.33301 -15.166 12.5 -23.499 15.5s-17.166 4.5 -26.499 4.5
c-22.667 0 -40.334 -6.33301 -53.001 -19c-8 -7.33301 -13.667 -16.5 -17 -27.5s-5 -21.833 -5 -32.5c0 -18 3.33301 -32.667 10 -44c3.33301 -6.66699 9.16602 -13 17.499 -19s18.166 -12.333 29.499 -19l63 -36c32.667 -18 55.667 -38 69 -60
c7.33301 -11.333 12.5 -23.833 15.5 -37.5s4.5 -27.834 4.5 -42.501zM199.002 580.002h-50l-87 129h52l60 -91l60 91h51z" />
    <glyph glyph-name="Ydieresis" unicode="&#x178;" horiz-adv-x="315" 
d="M187 298v-298h-59v298l-125 414h65l89 -326l90 326h65zM197 784v63h63v-63h-63zM59 784v63h63v-63h-63z" />
    <glyph glyph-name="Zcaron" unicode="&#x17d;" horiz-adv-x="324" 
d="M30 0v46l203 613h-189v53h250v-46l-202 -613h202v-53h-264zM194 758h-50l-87 129h52l60 -91l59 91h52z" />
    <glyph glyph-name="zcaron" unicode="&#x17e;" horiz-adv-x="276" 
d="M22 0v44l172 415h-162v50h223v-44l-172 -415h172v-50h-233zM170 580h-50l-87 129h52l60 -91l60 91h51z" />
    <glyph glyph-name="longs" unicode="&#x17f;" horiz-adv-x="181" 
d="M118 0l-56 0.00195312v578c0 45.333 12.667 79.666 38 102.999c14.667 13.333 31 22.166 49 26.499s36.667 6.5 56 6.5v-51c-58 0 -87 -28.333 -87 -85v-578z" />
    <glyph glyph-name="florin" unicode="&#x192;" horiz-adv-x="337" 
d="M297 664c-23.333 0 -43.168 -6.83203 -59.501 -20.499s-27.166 -33.834 -32.499 -60.501l-37 -201h83v-44h-91l-104 -542h-56l104 542h-57v44h65l37 202c8 42.667 25.333 75 52 97s60 33 100 33h15v-50h-19z" />
    <glyph glyph-name="uni02BB" unicode="&#x2bb;" horiz-adv-x="184" 
d="M58 620v92l69 51v-143h-69z" />
    <glyph glyph-name="uni02BC" unicode="&#x2bc;" horiz-adv-x="184" 
d="M58 570v142h69v-92z" />
    <glyph glyph-name="circumflex" unicode="&#x2c6;" horiz-adv-x="354" 
d="M237 586l-60 92l-60 -92h-52l87 130h50l86 -130h-51z" />
    <glyph glyph-name="caron" unicode="&#x2c7;" horiz-adv-x="354" 
d="M202 580h-50l-87 129h52l60 -91l60 91h51z" />
    <glyph glyph-name="breve" unicode="&#x2d8;" horiz-adv-x="354" 
d="M287 684c-6 -69.333 -42.668 -104 -110.001 -104s-104.333 34.667 -111 104h46c4.66699 -40 26.334 -60 65.001 -60c37.333 0 59 20 65 60h45v0z" />
    <glyph glyph-name="dotaccent" unicode="&#x2d9;" horiz-adv-x="354" 
d="M145 610v63h63v-63h-63z" />
    <glyph glyph-name="ring" unicode="&#x2da;" horiz-adv-x="354" 
d="M268 672c0 -25.333 -8.83301 -46.833 -26.5 -64.5s-39.167 -26.5 -64.5 -26.5s-46.833 8.83301 -64.5 26.5s-26.5 39.167 -26.5 64.5s8.83301 46.833 26.5 64.5s39.167 26.5 64.5 26.5s46.833 -8.83301 64.5 -26.5s26.5 -39.167 26.5 -64.5zM229 672
c0 14.667 -5.16699 27.167 -15.5 37.5s-22.5 15.5 -36.5 15.5c-14.667 0 -27.167 -5.16699 -37.5 -15.5s-15.5 -22.833 -15.5 -37.5c0 -14 5.16699 -26.167 15.5 -36.5s22.833 -15.5 37.5 -15.5c14 0 26.167 5.16699 36.5 15.5s15.5 22.5 15.5 36.5z" />
    <glyph glyph-name="ogonek" unicode="&#x2db;" horiz-adv-x="354" 
d="M163 -171h-53l53 134h46z" />
    <glyph glyph-name="tilde" unicode="&#x2dc;" horiz-adv-x="354" 
d="M297 635c-17.333 -16.667 -31.167 -27.167 -41.5 -31.5s-20.166 -6.5 -29.499 -6.5c-10.667 0 -20 1.5 -28 4.5s-16.667 7.16699 -26 12.5c-7.33301 4.66699 -14.333 8.5 -21 11.5s-13.667 4.5 -21 4.5c-6 0 -11.833 -1.16699 -17.5 -3.5s-14.167 -9.16602 -25.5 -20.499
l-28 29c16.667 16.667 30.167 27.167 40.5 31.5s20.166 6.5 29.499 6.5c11.333 0 20.833 -1.5 28.5 -4.5s16.167 -7.16699 25.5 -12.5c7.33301 -4.66699 14.333 -8.5 21 -11.5s13.667 -4.5 21 -4.5c5.33301 0 11 1.16699 17 3.5s14.667 9.16602 26 20.499l29 -29v0z" />
    <glyph glyph-name="hungarumlaut" unicode="&#x2dd;" horiz-adv-x="354" 
d="M136 586h-48l59 130h58zM262 586h-47l58 130h58z" />
    <glyph glyph-name="uni0394" unicode="&#x394;" horiz-adv-x="379" 
d="M4 0l159 712h56l156 -712h-371zM189 606l-110 -553h222z" />
    <glyph glyph-name="uni03A9" unicode="&#x3a9;" horiz-adv-x="429" 
d="M238 0v44c13.333 6.66699 25.5 15.334 36.5 26.001s19.167 23.667 24.5 39c6 17.333 9.66699 45.333 11 84s2 93 2 163c0 53.333 -0.5 96.666 -1.5 129.999s-2.66699 60.166 -5 80.499s-5.83301 35.833 -10.5 46.5s-10.667 20 -18 28c-15.333 17.333 -36.333 26 -63 26
s-47.667 -8.66699 -63 -26c-7.33301 -8 -13.333 -17.333 -18 -28s-8.16699 -26.167 -10.5 -46.5s-4 -47.166 -5 -80.499s-1.5 -76.666 -1.5 -129.999c0 -70 0.666992 -124.333 2 -163s5 -66.667 11 -84c5.33301 -15.333 13.5 -28.333 24.5 -39s23.5 -19.334 37.5 -26.001
v-44h-139v49h73c-10 6 -19.5 13.333 -28.5 22s-16.5 20 -22.5 34c-4 9.33301 -7 20.833 -9 34.5s-3.66699 30.5 -5 50.5s-2.16602 43.5 -2.49902 70.5s-0.5 58.833 -0.5 95.5c0 56 0.666992 102 2 138s3.66602 65.833 6.99902 89.5s8.33301 42.5 15 56.5
s15.667 26.667 27 38c12 13.333 26.833 23.666 44.5 30.999s38.167 11 61.5 11s43.833 -3.66699 61.5 -11s32.5 -17.666 44.5 -30.999c10.667 -11.333 19.5 -24 26.5 -38s12.167 -32.833 15.5 -56.5s5.66602 -53.5 6.99902 -89.5s2 -82 2 -138
c0 -36.667 -0.166992 -68.5 -0.5 -95.5s-1.16602 -50.5 -2.49902 -70.5s-3 -36.833 -5 -50.5s-5 -25.167 -9 -34.5c-5.33301 -14 -12.5 -25.333 -21.5 -34s-18.833 -16 -29.5 -22h73v-49h-138z" />
    <glyph glyph-name="uni03BC" unicode="&#x3bc;" horiz-adv-x="378" 
d="M260 0l0.00195312 41c-3.33301 -5.33301 -7.83301 -11 -13.5 -17s-10.834 -10.667 -15.501 -14c-8 -5.33301 -16.667 -9.66602 -26 -12.999s-20 -5 -32 -5c-12.667 0 -24.334 2.16699 -35.001 6.5s-17.667 9.16602 -21 14.499v-217h-55v713h56v-384
c0 -28 6.83301 -48.833 20.5 -62.5s30.167 -20.5 49.5 -20.5s36 6.83301 50 20.5s21 34.5 21 62.5v384h56v-509h-55z" />
    <glyph glyph-name="pi" unicode="&#x3c0;" horiz-adv-x="391" 
d="M322 0h-56v461h-141v-461h-56v509h253v-509z" />
    <glyph glyph-name="uni2007" unicode="&#x2007;" horiz-adv-x="361" 
 />
    <glyph glyph-name="uni2008" unicode="&#x2008;" horiz-adv-x="199" 
 />
    <glyph glyph-name="uni200B" unicode="&#x200b;" horiz-adv-x="0" 
 />
    <glyph glyph-name="endash" unicode="&#x2013;" horiz-adv-x="432" 
d="M48 250v54h335v-54h-335z" />
    <glyph glyph-name="emdash" unicode="&#x2014;" horiz-adv-x="671" 
d="M55 250v54h561v-54h-561z" />
    <glyph glyph-name="quoteleft" unicode="&#x2018;" horiz-adv-x="184" 
d="M58 620v92l69 51v-143h-69z" />
    <glyph glyph-name="quoteright" unicode="&#x2019;" horiz-adv-x="184" 
d="M58 570v142h69v-92z" />
    <glyph glyph-name="quotesinglbase" unicode="&#x201a;" horiz-adv-x="184" 
d="M58 -51v143h69v-92z" />
    <glyph glyph-name="quotedblleft" unicode="&#x201c;" horiz-adv-x="329" 
d="M202 620v92l69 51v-143h-69zM58 620v92l69 51v-143h-69z" />
    <glyph glyph-name="quotedblright" unicode="&#x201d;" horiz-adv-x="329" 
d="M202 570v142h69v-92zM58 570v142h69v-92z" />
    <glyph glyph-name="quotedblbase" unicode="&#x201e;" horiz-adv-x="329" 
d="M202 -67v143h69v-92zM58 -67v143h69v-92z" />
    <glyph glyph-name="dagger" unicode="&#x2020;" horiz-adv-x="437" 
d="M245 460v-460h-54v460h-143v49h143v203h54v-203h143v-49h-143z" />
    <glyph glyph-name="daggerdbl" unicode="&#x2021;" horiz-adv-x="437" 
d="M245 0v-203h-54v203h-143v49h143v411h-143v49h143v203h54v-203h143v-49h-143v-411h143v-49h-143z" />
    <glyph glyph-name="bullet" unicode="&#x2022;" horiz-adv-x="464" 
d="M395 334c0 -22.667 -4.33301 -43.834 -13 -63.501s-20.334 -36.834 -35.001 -51.501s-31.834 -26.334 -51.501 -35.001s-40.834 -13 -63.501 -13s-43.834 4.33301 -63.501 13s-36.834 20.334 -51.501 35.001s-26.334 31.834 -35.001 51.501s-13 40.834 -13 63.501
s4.33301 43.834 13 63.501s20.334 36.834 35.001 51.501s31.834 26.334 51.501 35.001s40.834 13 63.501 13s43.834 -4.33301 63.501 -13s36.834 -20.334 51.501 -35.001s26.334 -31.834 35.001 -51.501s13 -40.834 13 -63.501z" />
    <glyph glyph-name="ellipsis" unicode="&#x2026;" horiz-adv-x="549" 
d="M412 0v75h75v-75h-75zM62 0v75h75v-75h-75zM237 0v75h75v-75h-75z" />
    <glyph glyph-name="perthousand" unicode="&#x2030;" horiz-adv-x="890" 
d="M252 446c0 -30.667 -9.33301 -55 -28 -73s-42.334 -27 -71.001 -27s-52.167 9 -70.5 27s-27.5 42.333 -27.5 73v175c0 30.667 9.16699 54.834 27.5 72.501s41.833 26.5 70.5 26.5s52.334 -8.83301 71.001 -26.5s28 -41.834 28 -72.501v-175zM835 92
c0 -30.667 -9.33301 -55 -28 -73s-42.334 -27 -71.001 -27s-52.167 9 -70.5 27s-27.5 42.333 -27.5 73v174c0 30.667 9.16699 55 27.5 73s41.833 27 70.5 27s52.334 -9 71.001 -27s28 -42.333 28 -73v-174zM562 92c0 -30.667 -9.16699 -55 -27.5 -73s-41.833 -27 -70.5 -27
s-52.167 9 -70.5 27s-27.5 42.333 -27.5 73v174c0 30.667 9.16699 55 27.5 73s41.833 27 70.5 27s52.167 -9 70.5 -27s27.5 -42.333 27.5 -73v-174zM208 0h-47l248 712h47zM514 266c0 17.333 -4.33301 31.166 -13 41.499s-21 15.5 -37 15.5s-28.333 -5.16699 -37 -15.5
s-13 -24.166 -13 -41.499v-174c0 -17.333 4.33301 -31.166 13 -41.499s21 -15.5 37 -15.5s28.333 5.16699 37 15.5s13 24.166 13 41.499v174zM786 266c0 17.333 -4.33301 31.166 -13 41.499s-21 15.5 -37 15.5s-28.167 -5.16699 -36.5 -15.5s-12.5 -24.166 -12.5 -41.499
v-174c0 -17.333 4.16699 -31.166 12.5 -41.499s20.5 -15.5 36.5 -15.5s28.333 5.16699 37 15.5s13 24.166 13 41.499v174zM203 620c0 17.333 -4.33301 31.166 -13 41.499s-21 15.5 -37 15.5s-28.167 -5.16699 -36.5 -15.5s-12.5 -24.166 -12.5 -41.499v-174
c0 -17.333 4.16699 -31.166 12.5 -41.499s20.5 -15.5 36.5 -15.5s28.333 5.16699 37 15.5s13 24.166 13 41.499v174z" />
    <glyph glyph-name="guilsinglleft" unicode="&#x2039;" horiz-adv-x="219" 
d="M28 268l136 210v-96l-75 -114l75 -115v-95z" />
    <glyph glyph-name="guilsinglright" unicode="&#x203a;" horiz-adv-x="219" 
d="M55 58v95l75 115l-75 114v96l136 -210z" />
    <glyph glyph-name="fraction" unicode="&#x2044;" horiz-adv-x="154" 
d="M-23 0h-47l247 712h47z" />
    <glyph glyph-name="uni2070" unicode="&#x2070;" horiz-adv-x="278" 
d="M237 369c0 -15.333 -2.33301 -28.333 -7 -39s-11 -19.667 -19 -27c-8.66699 -7.33301 -19.5 -13 -32.5 -17s-26.167 -6 -39.5 -6s-26.666 2 -39.999 6s-23.666 9.66699 -30.999 17c-8.66699 7.33301 -15.334 16.333 -20.001 27s-7 23.667 -7 39v259
c0 16 2.33301 29.167 7 39.5s11.334 19.166 20.001 26.499c7.33301 7.33301 17.166 13 29.499 17s26.166 6 41.499 6s29 -2 41 -6s22.333 -9.66699 31 -17c8 -7.33301 14.333 -16.166 19 -26.499s7 -23.5 7 -39.5v-259zM194 630c0 16.667 -5.16699 29 -15.5 37
s-23.5 12 -39.5 12s-29 -4 -39 -12s-15 -20.333 -15 -37v-263c0 -16.667 5 -29 15 -37s23 -12 39 -12s29.167 4 39.5 12s15.5 20.333 15.5 37v263z" />
    <glyph glyph-name="uni2074" unicode="&#x2074;" 
d="M219 349v-64h-43v64h-148v38l125 325h43l-124 -325h104v103h43v-103h32v-38h-32z" />
    <glyph glyph-name="uni2075" unicode="&#x2075;" 
d="M235 422c0 -33.333 -2.16016 -58.501 -6.49316 -75.501s-11.833 -30.833 -22.5 -41.5c-7.33301 -7.33301 -17 -13.333 -29 -18s-24.667 -7 -38 -7c-26.667 0 -48.334 7.33301 -65.001 22c-8.66699 7.33301 -15 16.166 -19 26.499s-6 23.5 -6 39.5v25h44v-25
c0 -16.667 4.66699 -29.167 14 -37.5s20 -12.5 32 -12.5c9.33301 0 17.166 1.5 23.499 4.5s11.166 6.5 14.499 10.5c5.33301 6.66699 9.16602 16 11.499 28s3.5 32.333 3.5 61c0 28 -1.16699 48 -3.5 60s-6.16602 21.333 -11.499 28c-3.33301 4 -7.83301 7.33301 -13.5 10
s-13.5 4 -23.5 4c-12.667 0 -23.334 -4.16699 -32.001 -12.5s-13 -19.166 -13 -32.499v-16h-44v249h178v-38h-135v-138l10 10c3.33301 3.33301 7.66602 6.33301 12.999 9c10.667 6 22.667 9 36 9s24.666 -2.16699 33.999 -6.5s17.666 -10.166 24.999 -17.499
c4 -4.66699 7.5 -10 10.5 -16s5.5 -13.5 7.5 -22.5s3.33301 -20 4 -33s1 -28.5 1 -46.5z" />
    <glyph glyph-name="uni2076" unicode="&#x2076;" 
d="M232 412c0 -29.333 -1.83691 -51.165 -5.50391 -65.498s-9.83398 -26.833 -18.501 -37.5c-7.33301 -9.33301 -17.166 -16.5 -29.499 -21.5s-26.166 -7.5 -41.499 -7.5c-31.333 0 -54.666 9.66699 -69.999 29c-9.33301 11.333 -15.666 24.166 -18.999 38.499
s-5 35.833 -5 64.5c0 22.667 1.5 42.667 4.5 60s7.5 33.666 13.5 48.999l77 191h46l-74 -180c10.667 7.33301 23.334 11 38.001 11c26 0 45.667 -7.66699 59 -23c4.66699 -4.66699 8.5 -9.66699 11.5 -15s5.5 -12 7.5 -20s3.5 -17.833 4.5 -29.5s1.5 -26.167 1.5 -43.5z
M188.996 413.001c0 26.667 -1.33301 46.167 -4 58.5s-7.33398 21.166 -14.001 26.499c-3.33301 2.66699 -7.83301 5 -13.5 7s-12.167 3 -19.5 3c-8 0 -14.833 -1 -20.5 -3s-10.167 -4.33301 -13.5 -7c-6.66699 -5.33301 -11.334 -14.166 -14.001 -26.499
s-4 -31.833 -4 -58.5s1.33301 -46.167 4 -58.5s7.33398 -21.166 14.001 -26.499c3.33301 -2.66699 7.83301 -5 13.5 -7s12.5 -3 20.5 -3c7.33301 0 13.833 1 19.5 3s10.167 4.33301 13.5 7c6.66699 5.33301 11.334 14.166 14.001 26.499s4 31.833 4 58.5z" />
    <glyph glyph-name="uni2077" unicode="&#x2077;" 
d="M135 285h-46l101 389h-109v-71h-43v109h198v-38z" />
    <glyph glyph-name="uni2078" unicode="&#x2078;" 
d="M233 404c0 -26.667 -2 -47.333 -6 -62s-11.667 -27.334 -23 -38.001c-17.333 -16 -39.333 -24 -66 -24c-13.333 0 -26 2.16699 -38 6.5s-21.667 10.166 -29 17.499c-12 10.667 -19.667 23.334 -23 38.001s-5 35.334 -5 62.001c0 12 0.166992 22.333 0.5 31
s1.16602 16 2.49902 22s2.83301 11.333 4.5 16s4.16699 9.33398 7.5 14.001c3.33301 5.33301 7.5 9.83301 12.5 13.5s10.167 7.16699 15.5 10.5c-12.667 6.66699 -21.667 14.667 -27 24c-5.33301 8.66699 -8.66602 18 -9.99902 28s-2 24 -2 42
c0 23.333 1.83301 41.833 5.5 55.5s10.834 25.167 21.501 34.5c15.333 14.667 36.666 22 63.999 22c12.667 0 24.5 -1.83301 35.5 -5.5s20.5 -9.16699 28.5 -16.5c11.333 -9.33301 18.833 -20.833 22.5 -34.5s5.5 -32.167 5.5 -55.5c0 -18 -1 -32 -3 -42
s-5.66699 -19.333 -11 -28c-5.33301 -9.33301 -13.666 -17.333 -24.999 -24l16 -10.5c5.33301 -3.66699 9.66602 -8.16699 12.999 -13.5c2.66699 -4.66699 5 -9.33398 7 -14.001s3.33301 -10 4 -16s1.16699 -13.333 1.5 -22s0.5 -19 0.5 -31zM190 404.001
c0 23.333 -1.16699 40 -3.5 50s-6.5 18 -12.5 24c-8.66699 8.66699 -20.667 13 -36 13c-16 0 -28.333 -4.33301 -37 -13c-6 -6 -10 -14 -12 -24s-3 -26.667 -3 -50s1 -39.833 3 -49.5s6 -17.5 12 -23.5c8.66699 -8.66699 21 -13 37 -13c15.333 0 27.333 4.33301 36 13
c6 6 10.167 13.833 12.5 23.5s3.5 26.167 3.5 49.5zM187 605.001c0 19.333 -1.33301 33.333 -4 42s-6.66699 15.667 -12 21c-6 7.33301 -17 11 -33 11c-14.667 0 -25.667 -3.66699 -33 -11c-5.33301 -5.33301 -9.16602 -12.333 -11.499 -21s-3.5 -22.667 -3.5 -42
s1.16699 -33.5 3.5 -42.5s6.16602 -16.167 11.499 -21.5c7.33301 -7.33301 18.333 -11 33 -11c16 0 27 3.66699 33 11c5.33301 5.33301 9.33301 12.5 12 21.5s4 23.167 4 42.5z" />
    <glyph glyph-name="uni2079" unicode="&#x2079;" 
d="M232 585c0 -22.667 -1.49805 -42.668 -4.49805 -60.001s-7.5 -33.666 -13.5 -48.999l-77 -191h-47l75 180c-10.667 -7.33301 -23.334 -11 -38.001 -11c-26 0 -45.667 7.66699 -59 23c-4.66699 4.66699 -8.5 9.66699 -11.5 15s-5.5 12 -7.5 20s-3.5 17.833 -4.5 29.5
s-1.5 26.167 -1.5 43.5c0 29.333 1.66699 51.166 5 65.499s9.33301 26.833 18 37.5c16 19.333 39.667 29 71 29c32 0 55.667 -9.66699 71 -29c9.33301 -11.333 15.666 -24.166 18.999 -38.499s5 -35.833 5 -64.5zM189.002 583.999c0 26.667 -1.33301 46.167 -4 58.5
s-7.66699 21.166 -15 26.499c-3.33301 2.66699 -7.83301 5 -13.5 7s-12.167 3 -19.5 3s-13.833 -1 -19.5 -3s-10.167 -4.33301 -13.5 -7c-6.66699 -5.33301 -11.334 -14.166 -14.001 -26.499s-4 -31.833 -4 -58.5s1.33301 -46.167 4 -58.5s7.33398 -21.166 14.001 -26.499
c3.33301 -2.66699 7.83301 -5 13.5 -7s12.167 -3 19.5 -3s13.833 1 19.5 3s10.167 4.33301 13.5 7c7.33301 5.33301 12.333 14.166 15 26.499s4 31.833 4 58.5z" />
    <glyph glyph-name="uni2080" unicode="&#x2080;" horiz-adv-x="278" 
d="M237 -65c0 -15.333 -2.33301 -28.333 -7 -39s-11 -19.667 -19 -27c-8.66699 -7.33301 -19.5 -13 -32.5 -17s-26.167 -6 -39.5 -6s-26.666 2 -39.999 6s-23.666 9.66699 -30.999 17c-8.66699 7.33301 -15.334 16.333 -20.001 27s-7 23.667 -7 39v259
c0 16 2.33301 29.167 7 39.5s11.334 19.166 20.001 26.499c7.33301 7.33301 17.166 13 29.499 17s26.166 6 41.499 6s29 -2 41 -6s22.333 -9.66699 31 -17c8 -7.33301 14.333 -16.166 19 -26.499s7 -23.5 7 -39.5v-259zM194 196c0 16.667 -5.16699 29 -15.5 37
s-23.5 12 -39.5 12s-29 -4 -39 -12s-15 -20.333 -15 -37v-263c0 -16.667 5 -29 15 -37s23 -12 39 -12s29.167 4 39.5 12s15.5 20.333 15.5 37v263z" />
    <glyph glyph-name="uni2081" unicode="&#x2081;" 
d="M131 -149v379l-69 -47v47l69 48h43v-427h-43z" />
    <glyph glyph-name="uni2082" unicode="&#x2082;" 
d="M38 -149l0.000976562 36.998l137 218c8 13.333 14 25.666 18 36.999s6 25.333 6 42c0 18 -5.5 32.5 -16.5 43.5s-25.5 16.5 -43.5 16.5c-20.667 0 -35.667 -6.16699 -45 -18.5s-14 -29.166 -14 -50.499v-18h-43v17c0 19.333 2 35.333 6 48s11 23.667 21 33
c19.333 18 44.333 27 75 27c16.667 0 30.5 -2 41.5 -6s21.5 -10 31.5 -18c20 -16 30 -40.667 30 -74c0 -17.333 -2.33301 -33.666 -7 -48.999s-12.334 -31.666 -23.001 -48.999l-124 -198h154v-38h-204z" />
    <glyph glyph-name="uni2083" unicode="&#x2083;" 
d="M245 -35c0 -24.667 -2.16699 -43.5078 -6.5 -56.5078s-12.166 -25.167 -23.499 -36.5c-8 -8 -18.667 -14.333 -32 -19s-27.666 -7 -42.999 -7c-32.667 0 -58.334 9 -77.001 27c-8 8.66699 -14.167 18.834 -18.5 30.501s-6.5 29.834 -6.5 54.501v13h43v-13
c0 -17.333 1.33301 -30.166 4 -38.499s7.33398 -15.166 14.001 -20.499c10 -10 23.667 -15 41 -15c18 0 32 5 42 15c6 6 10.833 13.833 14.5 23.5s5.5 24.167 5.5 43.5c0 20.667 -1.5 35.667 -4.5 45s-7.16699 17 -12.5 23c-10.667 12.667 -25.667 19 -45 19h-29v38h29
c15.333 0 28.666 4.66699 39.999 14c9.33301 8.66699 14.833 18.834 16.5 30.501s2.5 24.167 2.5 37.5c0 12.667 -1.33301 24 -4 34s-7.66699 18 -15 24c-8.66699 9.33301 -22 14 -40 14s-32 -5 -42 -15c-10.667 -10.667 -16 -28.667 -16 -54v-13h-43v12
c0 21.333 2 38.166 6 50.499s10.333 22.5 19 30.5c9.33301 8.66699 20 15.334 32 20.001s26.667 7 44 7s32 -2.5 44 -7.5s22 -11.167 30 -18.5c10 -9.33301 17.167 -21.166 21.5 -35.499s6.5 -30.5 6.5 -48.5c0 -17.333 -1.33301 -31.5 -4 -42.5
s-7.33398 -20.833 -14.001 -29.5c-10.667 -13.333 -23.667 -23 -39 -29c18 -5.33301 32 -15.666 42 -30.999c6 -8.66699 10.5 -18.667 13.5 -30s4.5 -26.666 4.5 -45.999z" />
    <glyph glyph-name="uni2084" unicode="&#x2084;" 
d="M219 -85v-64h-43v64h-148v38l125 325h43l-124 -325h104v103h43v-103h32v-38h-32z" />
    <glyph glyph-name="uni2085" unicode="&#x2085;" 
d="M235 -12c0 -33.333 -2.16016 -58.501 -6.49316 -75.501s-11.833 -30.833 -22.5 -41.5c-7.33301 -7.33301 -17 -13.333 -29 -18s-24.667 -7 -38 -7c-26.667 0 -48.334 7.33301 -65.001 22c-8.66699 7.33301 -15 16.166 -19 26.499s-6 23.5 -6 39.5v25h44v-25
c0 -16.667 4.66699 -29.167 14 -37.5s20 -12.5 32 -12.5c9.33301 0 17.166 1.5 23.499 4.5s11.166 6.5 14.499 10.5c5.33301 6.66699 9.16602 16 11.499 28s3.5 32.333 3.5 61c0 28 -1.16699 48 -3.5 60s-6.16602 21.333 -11.499 28c-3.33301 4 -7.83301 7.33301 -13.5 10
s-13.5 4 -23.5 4c-12.667 0 -23.334 -4.16699 -32.001 -12.5s-13 -19.166 -13 -32.499v-16h-44v249h178v-38h-135v-138l10 10c3.33301 3.33301 7.66602 6.33301 12.999 9c10.667 6 22.667 9 36 9s24.666 -2.16699 33.999 -6.5s17.666 -10.166 24.999 -17.499
c4 -4.66699 7.5 -10 10.5 -16s5.5 -13.5 7.5 -22.5s3.33301 -20 4 -33s1 -28.5 1 -46.5z" />
    <glyph glyph-name="uni2086" unicode="&#x2086;" 
d="M232 -22c0 -29.333 -1.83691 -51.165 -5.50391 -65.498s-9.83398 -26.833 -18.501 -37.5c-7.33301 -9.33301 -17.166 -16.5 -29.499 -21.5s-26.166 -7.5 -41.499 -7.5c-31.333 0 -54.666 9.66699 -69.999 29c-9.33301 11.333 -15.666 24.166 -18.999 38.499
s-5 35.833 -5 64.5c0 22.667 1.5 42.667 4.5 60s7.5 33.666 13.5 48.999l77 191h46l-74 -180c10.667 7.33301 23.334 11 38.001 11c26 0 45.667 -7.66699 59 -23c4.66699 -4.66699 8.5 -9.66699 11.5 -15s5.5 -12 7.5 -20s3.5 -17.833 4.5 -29.5s1.5 -26.167 1.5 -43.5z
M188.996 -20.999c0 26.667 -1.33301 46.167 -4 58.5s-7.33398 21.166 -14.001 26.499c-3.33301 2.66699 -7.83301 5 -13.5 7s-12.167 3 -19.5 3c-8 0 -14.833 -1 -20.5 -3s-10.167 -4.33301 -13.5 -7c-6.66699 -5.33301 -11.334 -14.166 -14.001 -26.499
s-4 -31.833 -4 -58.5s1.33301 -46.167 4 -58.5s7.33398 -21.166 14.001 -26.499c3.33301 -2.66699 7.83301 -5 13.5 -7s12.5 -3 20.5 -3c7.33301 0 13.833 1 19.5 3s10.167 4.33301 13.5 7c6.66699 5.33301 11.334 14.166 14.001 26.499s4 31.833 4 58.5z" />
    <glyph glyph-name="uni2087" unicode="&#x2087;" 
d="M135 -149h-46l101 389h-109v-71h-43v109h198v-38z" />
    <glyph glyph-name="uni2088" unicode="&#x2088;" 
d="M233 -30c0 -26.667 -2 -47.333 -6 -62s-11.667 -27.334 -23 -38.001c-17.333 -16 -39.333 -24 -66 -24c-13.333 0 -26 2.16699 -38 6.5s-21.667 10.166 -29 17.499c-12 10.667 -19.667 23.334 -23 38.001s-5 35.334 -5 62.001c0 12 0.166992 22.333 0.5 31
s1.16602 16 2.49902 22s2.83301 11.333 4.5 16s4.16699 9.33398 7.5 14.001c3.33301 5.33301 7.5 9.83301 12.5 13.5s10.167 7.16699 15.5 10.5c-12.667 6.66699 -21.667 14.667 -27 24c-5.33301 8.66699 -8.66602 18 -9.99902 28s-2 24 -2 42
c0 23.333 1.83301 41.833 5.5 55.5s10.834 25.167 21.501 34.5c15.333 14.667 36.666 22 63.999 22c12.667 0 24.5 -1.83301 35.5 -5.5s20.5 -9.16699 28.5 -16.5c11.333 -9.33301 18.833 -20.833 22.5 -34.5s5.5 -32.167 5.5 -55.5c0 -18 -1 -32 -3 -42
s-5.66699 -19.333 -11 -28c-5.33301 -9.33301 -13.666 -17.333 -24.999 -24l16 -10.5c5.33301 -3.66699 9.66602 -8.16699 12.999 -13.5c2.66699 -4.66699 5 -9.33398 7 -14.001s3.33301 -10 4 -16s1.16699 -13.333 1.5 -22s0.5 -19 0.5 -31zM190 -29.999
c0 23.333 -1.16699 40 -3.5 50s-6.5 18 -12.5 24c-8.66699 8.66699 -20.667 13 -36 13c-16 0 -28.333 -4.33301 -37 -13c-6 -6 -10 -14 -12 -24s-3 -26.667 -3 -50s1 -39.833 3 -49.5s6 -17.5 12 -23.5c8.66699 -8.66699 21 -13 37 -13c15.333 0 27.333 4.33301 36 13
c6 6 10.167 13.833 12.5 23.5s3.5 26.167 3.5 49.5zM187 171.001c0 19.333 -1.33301 33.333 -4 42s-6.66699 15.667 -12 21c-6 7.33301 -17 11 -33 11c-14.667 0 -25.667 -3.66699 -33 -11c-5.33301 -5.33301 -9.16602 -12.333 -11.499 -21s-3.5 -22.667 -3.5 -42
s1.16699 -33.5 3.5 -42.5s6.16602 -16.167 11.499 -21.5c7.33301 -7.33301 18.333 -11 33 -11c16 0 27 3.66699 33 11c5.33301 5.33301 9.33301 12.5 12 21.5s4 23.167 4 42.5z" />
    <glyph glyph-name="uni2089" unicode="&#x2089;" 
d="M232 151c0 -22.667 -1.49805 -42.668 -4.49805 -60.001s-7.5 -33.666 -13.5 -48.999l-77 -191h-47l75 180c-10.667 -7.33301 -23.334 -11 -38.001 -11c-26 0 -45.667 7.66699 -59 23c-4.66699 4.66699 -8.5 9.66699 -11.5 15s-5.5 12 -7.5 20s-3.5 17.833 -4.5 29.5
s-1.5 26.167 -1.5 43.5c0 29.333 1.66699 51.166 5 65.499s9.33301 26.833 18 37.5c16 19.333 39.667 29 71 29c32 0 55.667 -9.66699 71 -29c9.33301 -11.333 15.666 -24.166 18.999 -38.499s5 -35.833 5 -64.5zM189.002 149.999c0 26.667 -1.33301 46.167 -4 58.5
s-7.66699 21.166 -15 26.499c-3.33301 2.66699 -7.83301 5 -13.5 7s-12.167 3 -19.5 3s-13.833 -1 -19.5 -3s-10.167 -4.33301 -13.5 -7c-6.66699 -5.33301 -11.334 -14.166 -14.001 -26.499s-4 -31.833 -4 -58.5s1.33301 -46.167 4 -58.5s7.33398 -21.166 14.001 -26.499
c3.33301 -2.66699 7.83301 -5 13.5 -7s12.167 -3 19.5 -3s13.833 1 19.5 3s10.167 4.33301 13.5 7c7.33301 5.33301 12.333 14.166 15 26.499s4 31.833 4 58.5z" />
    <glyph glyph-name="Euro" unicode="&#x20ac;" horiz-adv-x="448" 
d="M402 163c-0.666992 -28.667 -4.83691 -54.832 -12.5039 -78.499s-20.167 -43.167 -37.5 -58.5c-12 -10.667 -26 -19 -42 -25s-34.667 -9 -56 -9c-23.333 0 -43.833 3.66699 -61.5 11s-32.5 17.666 -44.5 30.999c-9.33301 9.33301 -17 19.5 -23 30.5s-11 24.833 -15 41.5
s-6.83301 37.5 -8.5 62.5s-2.83398 56.167 -3.50098 93.5h-63v44h63v100h-63v44h63c0.666992 37.333 1.83398 68.5 3.50098 93.5s4.5 45.833 8.5 62.5s9 30.5 15 41.5s13.667 21.167 23 30.5c12 13.333 26.833 23.666 44.5 30.999s38.167 11 61.5 11
c22.667 0 42.334 -3.33301 59.001 -10s31 -16 43 -28c15.333 -15.333 26.5 -34.5 33.5 -57.5s10.833 -48.167 11.5 -75.5h-59c0 14.667 -1.33301 29.167 -4 43.5s-7.16699 27 -13.5 38s-15.166 19.833 -26.499 26.5s-26 10 -44 10c-27.333 0 -48.666 -8.66699 -63.999 -26
c-6 -7.33301 -11 -15 -15 -23s-7.16699 -18.667 -9.5 -32s-4 -30.833 -5 -52.5s-1.83301 -49.5 -2.5 -83.5h133v-44h-134v-100h134v-44h-133c0.666992 -34 1.5 -61.833 2.5 -83.5s2.83301 -39.167 5.5 -52.5s6 -24.166 10 -32.499s9 -15.833 15 -22.5
c7.33301 -8 16 -14.333 26 -19s22.333 -7 37 -7c18 0 32.667 3.33301 44 10s20.333 15.5 27 26.5s11.334 23.667 14.001 38s4 28.833 4 43.5h59z" />
    <glyph glyph-name="uni20B4" unicode="&#x20b4;" horiz-adv-x="396" 
d="M17 262l-0.00683594 44.0029h40c6.66699 16 16 29.667 28 41s28 21 48 29l73 30h-189v44h253c6 10 10.167 22.167 12.5 36.5s3.5 32.166 3.5 53.499c0 22 -2.33301 41.667 -7 59s-12.667 31.666 -24 42.999c-7.33301 7.33301 -16 13 -26 17s-22 6 -36 6
c-15.333 0 -28.166 -2.33301 -38.499 -7s-19.166 -11 -26.499 -19c-10.667 -12 -17.834 -25.667 -21.501 -41s-5.5 -34.333 -5.5 -57h-59c0 31.333 2.83301 57.833 8.5 79.5s17.167 41.167 34.5 58.5c26 26 61.667 39 107 39c42.667 0 77.334 -12.667 104.001 -38
c16.667 -15.333 29 -35 37 -59s12 -51.333 12 -82c0 -36.667 -3 -66.334 -9 -89.001h33v-44h-54c-13.333 -18 -34.666 -33 -63.999 -45l-76 -31c-16.667 -6.66699 -30.334 -14.667 -41.001 -24h235v-44h-262c-4.66699 -18.667 -7 -44.667 -7 -78
c0 -28 1.83301 -50.667 5.5 -68s11.167 -32.333 22.5 -45c7.33301 -7.33301 16.333 -13.166 27 -17.499s24.334 -6.5 41.001 -6.5c28.667 0 51 8 67 24c11.333 11.333 18.833 25 22.5 41s5.5 38 5.5 66h59c0 -19.333 -0.666992 -36.333 -2 -51
s-3.66602 -27.667 -6.99902 -39s-7.66602 -21.5 -12.999 -30.5s-12 -17.5 -20 -25.5c-25.333 -25.333 -62.666 -38 -111.999 -38c-25.333 0 -47.166 3.33301 -65.499 10s-33.5 16 -45.5 28c-16 16 -27.333 36.167 -34 60.5s-10 55.5 -10 93.5
c0 14.667 0.333008 28.167 1 40.5s1.66699 24.166 3 35.499h-28z" />
    <glyph glyph-name="uni2116" unicode="&#x2116;" horiz-adv-x="656" 
d="M600 541c0 -39.333 -1.50293 -69.8311 -4.50293 -91.498s-9.83301 -39.5 -20.5 -53.5c-7.33301 -9.33301 -16.5 -16.5 -27.5 -21.5s-23.833 -7.5 -38.5 -7.5s-27.667 2.5 -39 7.5s-20.666 12.167 -27.999 21.5c-11.333 14 -18.166 31.833 -20.499 53.5
s-3.5 52.167 -3.5 91.5c0 20 0.333008 37.5 1 52.5s1.83398 28.167 3.50098 39.5s4 21.166 7 29.499s7.16699 16.166 12.5 23.499c14.667 20 37 30 67 30c29.333 0 51.333 -10 66 -30c11.333 -13.333 18.333 -30.833 21 -52.5s4 -52.5 4 -92.5zM554.997 541.002
c0 33.333 -0.998047 59.501 -2.99805 78.501s-6.33301 33.167 -13 42.5c-3.33301 5.33301 -7.66602 9.16602 -12.999 11.499s-11 3.5 -17 3.5c-12.667 0 -23 -5 -31 -15c-6.66699 -9.33301 -10.834 -23.5 -12.501 -42.5s-2.5 -45.167 -2.5 -78.5s1 -59.5 3 -78.5
s6.33301 -33.167 13 -42.5c3.33301 -4.66699 7.66602 -8.16699 12.999 -10.5s11 -3.5 17 -3.5s11.667 1.16699 17 3.5s9.66602 5.83301 12.999 10.5c6.66699 9.33301 11 23.5 13 42.5s3 45.167 3 78.5zM421.999 288.003v41h175v-41h-175zM306.999 0.00292969l-182 555v-555
h-56v712h55l181 -555v555h56v-712h-54z" />
    <glyph glyph-name="trademark" unicode="&#x2122;" horiz-adv-x="602" 
d="M501 282v323l-73 -206h-31l-74 199v-316h-43v430h42l90 -241l91 241h41v-430h-43zM149 673v-391h-42v391h-74v39h190v-39h-74z" />
    <glyph glyph-name="Omega" unicode="&#x2126;" horiz-adv-x="429" 
d="M238 0v44c13.333 6.66699 25.5 15.334 36.5 26.001s19.167 23.667 24.5 39c6 17.333 9.66699 45.333 11 84s2 93 2 163c0 53.333 -0.5 96.666 -1.5 129.999s-2.66699 60.166 -5 80.499s-5.83301 35.833 -10.5 46.5s-10.667 20 -18 28c-15.333 17.333 -36.333 26 -63 26
s-47.667 -8.66699 -63 -26c-7.33301 -8 -13.333 -17.333 -18 -28s-8.16699 -26.167 -10.5 -46.5s-4 -47.166 -5 -80.499s-1.5 -76.666 -1.5 -129.999c0 -70 0.666992 -124.333 2 -163s5 -66.667 11 -84c5.33301 -15.333 13.5 -28.333 24.5 -39s23.5 -19.334 37.5 -26.001
v-44h-139v49h73c-10 6 -19.5 13.333 -28.5 22s-16.5 20 -22.5 34c-4 9.33301 -7 20.833 -9 34.5s-3.66699 30.5 -5 50.5s-2.16602 43.5 -2.49902 70.5s-0.5 58.833 -0.5 95.5c0 56 0.666992 102 2 138s3.66602 65.833 6.99902 89.5s8.33301 42.5 15 56.5
s15.667 26.667 27 38c12 13.333 26.833 23.666 44.5 30.999s38.167 11 61.5 11s43.833 -3.66699 61.5 -11s32.5 -17.666 44.5 -30.999c10.667 -11.333 19.5 -24 26.5 -38s12.167 -32.833 15.5 -56.5s5.66602 -53.5 6.99902 -89.5s2 -82 2 -138
c0 -36.667 -0.166992 -68.5 -0.5 -95.5s-1.16602 -50.5 -2.49902 -70.5s-3 -36.833 -5 -50.5s-5 -25.167 -9 -34.5c-5.33301 -14 -12.5 -25.333 -21.5 -34s-18.833 -16 -29.5 -22h73v-49h-138z" />
    <glyph glyph-name="uni2150" unicode="&#x2150;" horiz-adv-x="708" 
d="M131 285v379l-69 -47v47l69 48h43v-427h-43zM254 0h-47l247 712h47zM566 0h-46l101 389h-109v-71h-43v109h198v-38z" />
    <glyph glyph-name="uni2151" unicode="&#x2151;" horiz-adv-x="708" 
d="M131 285v379l-69 -47v47l69 48h43v-427h-43zM254 0h-47l247 712h47zM663 300c0 -22.667 -1.49805 -42.668 -4.49805 -60.001s-7.5 -33.666 -13.5 -48.999l-77 -191h-47l75 180c-10.667 -7.33301 -23.334 -11 -38.001 -11c-26 0 -45.667 7.66699 -59 23
c-4.66699 4.66699 -8.5 9.66699 -11.5 15s-5.5 12 -7.5 20s-3.5 17.833 -4.5 29.5s-1.5 26.167 -1.5 43.5c0 29.333 1.66699 51.166 5 65.499s9.33301 26.833 18 37.5c16 19.333 39.667 29 71 29c32 0 55.667 -9.66699 71 -29
c9.33301 -11.333 15.666 -24.166 18.999 -38.499s5 -35.833 5 -64.5zM620.002 298.999c0 26.667 -1.33301 46.167 -4 58.5s-7.66699 21.166 -15 26.499c-3.33301 2.66699 -7.83301 5 -13.5 7s-12.167 3 -19.5 3s-13.833 -1 -19.5 -3s-10.167 -4.33301 -13.5 -7
c-6.66699 -5.33301 -11.334 -14.166 -14.001 -26.499s-4 -31.833 -4 -58.5s1.33301 -46.167 4 -58.5s7.33398 -21.166 14.001 -26.499c3.33301 -2.66699 7.83301 -5 13.5 -7s12.167 -3 19.5 -3s13.833 1 19.5 3s10.167 4.33301 13.5 7
c7.33301 5.33301 12.333 14.166 15 26.499s4 31.833 4 58.5z" />
    <glyph glyph-name="uni2152" unicode="&#x2152;" horiz-adv-x="986" 
d="M131 285v379l-69 -47v47l69 48h43v-427h-43zM254 0h-47l247 712h47zM562 0v379l-69 -47v47l69 48h43v-427h-43zM945 84c0 -15.333 -2.33301 -28.333 -7 -39s-11 -19.667 -19 -27c-8.66699 -7.33301 -19.5 -13 -32.5 -17s-26.167 -6 -39.5 -6s-26.666 2 -39.999 6
s-23.666 9.66699 -30.999 17c-8.66699 7.33301 -15.334 16.333 -20.001 27s-7 23.667 -7 39v259c0 16 2.33301 29.167 7 39.5s11.334 19.166 20.001 26.499c7.33301 7.33301 17.166 13 29.499 17s26.166 6 41.499 6s29 -2 41 -6s22.333 -9.66699 31 -17
c8 -7.33301 14.333 -16.166 19 -26.499s7 -23.5 7 -39.5v-259zM902 345c0 16.667 -5.16699 29 -15.5 37s-23.5 12 -39.5 12s-29 -4 -39 -12s-15 -20.333 -15 -37v-263c0 -16.667 5 -29 15 -37s23 -12 39 -12s29.167 4 39.5 12s15.5 20.333 15.5 37v263z" />
    <glyph glyph-name="onethird" unicode="&#x2153;" horiz-adv-x="708" 
d="M131 285v379l-69 -47v47l69 48h43v-427h-43zM254 0h-47l247 712h47zM676 114c0 -24.667 -2.16699 -43.5078 -6.5 -56.5078s-12.166 -25.167 -23.499 -36.5c-8 -8 -18.667 -14.333 -32 -19s-27.666 -7 -42.999 -7c-32.667 0 -58.334 9 -77.001 27
c-8 8.66699 -14.167 18.834 -18.5 30.501s-6.5 29.834 -6.5 54.501v13h43v-13c0 -17.333 1.33301 -30.166 4 -38.499s7.33398 -15.166 14.001 -20.499c10 -10 23.667 -15 41 -15c18 0 32 5 42 15c6 6 10.833 13.833 14.5 23.5s5.5 24.167 5.5 43.5
c0 20.667 -1.5 35.667 -4.5 45s-7.16699 17 -12.5 23c-10.667 12.667 -25.667 19 -45 19h-29v38h29c15.333 0 28.666 4.66699 39.999 14c9.33301 8.66699 14.833 18.834 16.5 30.501s2.5 24.167 2.5 37.5c0 12.667 -1.33301 24 -4 34s-7.66699 18 -15 24
c-8.66699 9.33301 -22 14 -40 14s-32 -5 -42 -15c-10.667 -10.667 -16 -28.667 -16 -54v-13h-43v12c0 21.333 2 38.166 6 50.499s10.333 22.5 19 30.5c9.33301 8.66699 20 15.334 32 20.001s26.667 7 44 7s32 -2.5 44 -7.5s22 -11.167 30 -18.5
c10 -9.33301 17.167 -21.166 21.5 -35.499s6.5 -30.5 6.5 -48.5c0 -17.333 -1.33301 -31.5 -4 -42.5s-7.33398 -20.833 -14.001 -29.5c-10.667 -13.333 -23.667 -23 -39 -29c18 -5.33301 32 -15.666 42 -30.999c6 -8.66699 10.5 -18.667 13.5 -30s4.5 -26.666 4.5 -45.999z
" />
    <glyph glyph-name="twothirds" unicode="&#x2154;" horiz-adv-x="708" 
d="M38 285l0.000976562 36.998l137 218c8 13.333 14 25.666 18 36.999s6 25.333 6 42c0 18 -5.5 32.5 -16.5 43.5s-25.5 16.5 -43.5 16.5c-20.667 0 -35.667 -6.16699 -45 -18.5s-14 -29.166 -14 -50.499v-18h-43v17c0 19.333 2 35.333 6 48s11 23.667 21 33
c19.333 18 44.333 27 75 27c16.667 0 30.5 -2 41.5 -6s21.5 -10 31.5 -18c20 -16 30 -40.667 30 -74c0 -17.333 -2.33301 -33.666 -7 -48.999s-12.334 -31.666 -23.001 -48.999l-124 -198h154v-38h-204zM254.001 -0.00195312h-47l247 712h47zM676.001 113.998
c0 -24.667 -2.16699 -43.5078 -6.5 -56.5078s-12.166 -25.167 -23.499 -36.5c-8 -8 -18.667 -14.333 -32 -19s-27.666 -7 -42.999 -7c-32.667 0 -58.334 9 -77.001 27c-8 8.66699 -14.167 18.834 -18.5 30.501s-6.5 29.834 -6.5 54.501v13h43v-13
c0 -17.333 1.33301 -30.166 4 -38.499s7.33398 -15.166 14.001 -20.499c10 -10 23.667 -15 41 -15c18 0 32 5 42 15c6 6 10.833 13.833 14.5 23.5s5.5 24.167 5.5 43.5c0 20.667 -1.5 35.667 -4.5 45s-7.16699 17 -12.5 23c-10.667 12.667 -25.667 19 -45 19h-29v38h29
c15.333 0 28.666 4.66699 39.999 14c9.33301 8.66699 14.833 18.834 16.5 30.501s2.5 24.167 2.5 37.5c0 12.667 -1.33301 24 -4 34s-7.66699 18 -15 24c-8.66699 9.33301 -22 14 -40 14s-32 -5 -42 -15c-10.667 -10.667 -16 -28.667 -16 -54v-13h-43v12
c0 21.333 2 38.166 6 50.499s10.333 22.5 19 30.5c9.33301 8.66699 20 15.334 32 20.001s26.667 7 44 7s32 -2.5 44 -7.5s22 -11.167 30 -18.5c10 -9.33301 17.167 -21.166 21.5 -35.499s6.5 -30.5 6.5 -48.5c0 -17.333 -1.33301 -31.5 -4 -42.5
s-7.33398 -20.833 -14.001 -29.5c-10.667 -13.333 -23.667 -23 -39 -29c18 -5.33301 32 -15.666 42 -30.999c6 -8.66699 10.5 -18.667 13.5 -30s4.5 -26.666 4.5 -45.999z" />
    <glyph glyph-name="uni2155" unicode="&#x2155;" horiz-adv-x="708" 
d="M131 285v379l-69 -47v47l69 48h43v-427h-43zM254 0h-47l247 712h47zM666 137c0 -33.333 -2.16016 -58.501 -6.49316 -75.501s-11.833 -30.833 -22.5 -41.5c-7.33301 -7.33301 -17 -13.333 -29 -18s-24.667 -7 -38 -7c-26.667 0 -48.334 7.33301 -65.001 22
c-8.66699 7.33301 -15 16.166 -19 26.499s-6 23.5 -6 39.5v25h44v-25c0 -16.667 4.66699 -29.167 14 -37.5s20 -12.5 32 -12.5c9.33301 0 17.166 1.5 23.499 4.5s11.166 6.5 14.499 10.5c5.33301 6.66699 9.16602 16 11.499 28s3.5 32.333 3.5 61c0 28 -1.16699 48 -3.5 60
s-6.16602 21.333 -11.499 28c-3.33301 4 -7.83301 7.33301 -13.5 10s-13.5 4 -23.5 4c-12.667 0 -23.334 -4.16699 -32.001 -12.5s-13 -19.166 -13 -32.499v-16h-44v249h178v-38h-135v-138l10 10c3.33301 3.33301 7.66602 6.33301 12.999 9c10.667 6 22.667 9 36 9
s24.666 -2.16699 33.999 -6.5s17.666 -10.166 24.999 -17.499c4 -4.66699 7.5 -10 10.5 -16s5.5 -13.5 7.5 -22.5s3.33301 -20 4 -33s1 -28.5 1 -46.5z" />
    <glyph glyph-name="uni2156" unicode="&#x2156;" horiz-adv-x="708" 
d="M38 285l0.000976562 36.998l137 218c8 13.333 14 25.666 18 36.999s6 25.333 6 42c0 18 -5.5 32.5 -16.5 43.5s-25.5 16.5 -43.5 16.5c-20.667 0 -35.667 -6.16699 -45 -18.5s-14 -29.166 -14 -50.499v-18h-43v17c0 19.333 2 35.333 6 48s11 23.667 21 33
c19.333 18 44.333 27 75 27c16.667 0 30.5 -2 41.5 -6s21.5 -10 31.5 -18c20 -16 30 -40.667 30 -74c0 -17.333 -2.33301 -33.666 -7 -48.999s-12.334 -31.666 -23.001 -48.999l-124 -198h154v-38h-204zM254.001 -0.00195312h-47l247 712h47zM666.001 136.998
c0 -33.333 -2.16016 -58.501 -6.49316 -75.501s-11.833 -30.833 -22.5 -41.5c-7.33301 -7.33301 -17 -13.333 -29 -18s-24.667 -7 -38 -7c-26.667 0 -48.334 7.33301 -65.001 22c-8.66699 7.33301 -15 16.166 -19 26.499s-6 23.5 -6 39.5v25h44v-25
c0 -16.667 4.66699 -29.167 14 -37.5s20 -12.5 32 -12.5c9.33301 0 17.166 1.5 23.499 4.5s11.166 6.5 14.499 10.5c5.33301 6.66699 9.16602 16 11.499 28s3.5 32.333 3.5 61c0 28 -1.16699 48 -3.5 60s-6.16602 21.333 -11.499 28c-3.33301 4 -7.83301 7.33301 -13.5 10
s-13.5 4 -23.5 4c-12.667 0 -23.334 -4.16699 -32.001 -12.5s-13 -19.166 -13 -32.499v-16h-44v249h178v-38h-135v-138l10 10c3.33301 3.33301 7.66602 6.33301 12.999 9c10.667 6 22.667 9 36 9s24.666 -2.16699 33.999 -6.5s17.666 -10.166 24.999 -17.499
c4 -4.66699 7.5 -10 10.5 -16s5.5 -13.5 7.5 -22.5s3.33301 -20 4 -33s1 -28.5 1 -46.5z" />
    <glyph glyph-name="uni2157" unicode="&#x2157;" horiz-adv-x="708" 
d="M245 399c0 -24.667 -2.16699 -43.5078 -6.5 -56.5078s-12.166 -25.167 -23.499 -36.5c-8 -8 -18.667 -14.333 -32 -19s-27.666 -7 -42.999 -7c-32.667 0 -58.334 9 -77.001 27c-8 8.66699 -14.167 18.834 -18.5 30.501s-6.5 29.834 -6.5 54.501v13h43v-13
c0 -17.333 1.33301 -30.166 4 -38.499s7.33398 -15.166 14.001 -20.499c10 -10 23.667 -15 41 -15c18 0 32 5 42 15c6 6 10.833 13.833 14.5 23.5s5.5 24.167 5.5 43.5c0 20.667 -1.5 35.667 -4.5 45s-7.16699 17 -12.5 23c-10.667 12.667 -25.667 19 -45 19h-29v38h29
c15.333 0 28.666 4.66699 39.999 14c9.33301 8.66699 14.833 18.834 16.5 30.501s2.5 24.167 2.5 37.5c0 12.667 -1.33301 24 -4 34s-7.66699 18 -15 24c-8.66699 9.33301 -22 14 -40 14s-32 -5 -42 -15c-10.667 -10.667 -16 -28.667 -16 -54v-13h-43v12
c0 21.333 2 38.166 6 50.499s10.333 22.5 19 30.5c9.33301 8.66699 20 15.334 32 20.001s26.667 7 44 7s32 -2.5 44 -7.5s22 -11.167 30 -18.5c10 -9.33301 17.167 -21.166 21.5 -35.499s6.5 -30.5 6.5 -48.5c0 -17.333 -1.33301 -31.5 -4 -42.5
s-7.33398 -20.833 -14.001 -29.5c-10.667 -13.333 -23.667 -23 -39 -29c18 -5.33301 32 -15.666 42 -30.999c6 -8.66699 10.5 -18.667 13.5 -30s4.5 -26.666 4.5 -45.999zM254 -0.0078125h-47l247 712h47zM666 136.992c0 -33.333 -2.16016 -58.501 -6.49316 -75.501
s-11.833 -30.833 -22.5 -41.5c-7.33301 -7.33301 -17 -13.333 -29 -18s-24.667 -7 -38 -7c-26.667 0 -48.334 7.33301 -65.001 22c-8.66699 7.33301 -15 16.166 -19 26.499s-6 23.5 -6 39.5v25h44v-25c0 -16.667 4.66699 -29.167 14 -37.5s20 -12.5 32 -12.5
c9.33301 0 17.166 1.5 23.499 4.5s11.166 6.5 14.499 10.5c5.33301 6.66699 9.16602 16 11.499 28s3.5 32.333 3.5 61c0 28 -1.16699 48 -3.5 60s-6.16602 21.333 -11.499 28c-3.33301 4 -7.83301 7.33301 -13.5 10s-13.5 4 -23.5 4
c-12.667 0 -23.334 -4.16699 -32.001 -12.5s-13 -19.166 -13 -32.499v-16h-44v249h178v-38h-135v-138l10 10c3.33301 3.33301 7.66602 6.33301 12.999 9c10.667 6 22.667 9 36 9s24.666 -2.16699 33.999 -6.5s17.666 -10.166 24.999 -17.499c4 -4.66699 7.5 -10 10.5 -16
s5.5 -13.5 7.5 -22.5s3.33301 -20 4 -33s1 -28.5 1 -46.5z" />
    <glyph glyph-name="uni2158" unicode="&#x2158;" horiz-adv-x="708" 
d="M219 349v-64h-43v64h-148v38l125 325h43l-124 -325h104v103h43v-103h32v-38h-32zM254 0h-47l247 712h47zM666 137c0 -33.333 -2.16016 -58.501 -6.49316 -75.501s-11.833 -30.833 -22.5 -41.5c-7.33301 -7.33301 -17 -13.333 -29 -18s-24.667 -7 -38 -7
c-26.667 0 -48.334 7.33301 -65.001 22c-8.66699 7.33301 -15 16.166 -19 26.499s-6 23.5 -6 39.5v25h44v-25c0 -16.667 4.66699 -29.167 14 -37.5s20 -12.5 32 -12.5c9.33301 0 17.166 1.5 23.499 4.5s11.166 6.5 14.499 10.5c5.33301 6.66699 9.16602 16 11.499 28
s3.5 32.333 3.5 61c0 28 -1.16699 48 -3.5 60s-6.16602 21.333 -11.499 28c-3.33301 4 -7.83301 7.33301 -13.5 10s-13.5 4 -23.5 4c-12.667 0 -23.334 -4.16699 -32.001 -12.5s-13 -19.166 -13 -32.499v-16h-44v249h178v-38h-135v-138l10 10
c3.33301 3.33301 7.66602 6.33301 12.999 9c10.667 6 22.667 9 36 9s24.666 -2.16699 33.999 -6.5s17.666 -10.166 24.999 -17.499c4 -4.66699 7.5 -10 10.5 -16s5.5 -13.5 7.5 -22.5s3.33301 -20 4 -33s1 -28.5 1 -46.5z" />
    <glyph glyph-name="uni2159" unicode="&#x2159;" horiz-adv-x="708" 
d="M131 285v379l-69 -47v47l69 48h43v-427h-43zM254 0h-47l247 712h47zM663 127c0 -29.333 -1.83691 -51.165 -5.50391 -65.498s-9.83398 -26.833 -18.501 -37.5c-7.33301 -9.33301 -17.166 -16.5 -29.499 -21.5s-26.166 -7.5 -41.499 -7.5
c-31.333 0 -54.666 9.66699 -69.999 29c-9.33301 11.333 -15.666 24.166 -18.999 38.499s-5 35.833 -5 64.5c0 22.667 1.5 42.667 4.5 60s7.5 33.666 13.5 48.999l77 191h46l-74 -180c10.667 7.33301 23.334 11 38.001 11c26 0 45.667 -7.66699 59 -23
c4.66699 -4.66699 8.5 -9.66699 11.5 -15s5.5 -12 7.5 -20s3.5 -17.833 4.5 -29.5s1.5 -26.167 1.5 -43.5zM619.996 128.001c0 26.667 -1.33301 46.167 -4 58.5s-7.33398 21.166 -14.001 26.499c-3.33301 2.66699 -7.83301 5 -13.5 7s-12.167 3 -19.5 3
c-8 0 -14.833 -1 -20.5 -3s-10.167 -4.33301 -13.5 -7c-6.66699 -5.33301 -11.334 -14.166 -14.001 -26.499s-4 -31.833 -4 -58.5s1.33301 -46.167 4 -58.5s7.33398 -21.166 14.001 -26.499c3.33301 -2.66699 7.83301 -5 13.5 -7s12.5 -3 20.5 -3c7.33301 0 13.833 1 19.5 3
s10.167 4.33301 13.5 7c6.66699 5.33301 11.334 14.166 14.001 26.499s4 31.833 4 58.5z" />
    <glyph glyph-name="uni215A" unicode="&#x215a;" horiz-adv-x="708" 
d="M235 422c0 -33.333 -2.16016 -58.501 -6.49316 -75.501s-11.833 -30.833 -22.5 -41.5c-7.33301 -7.33301 -17 -13.333 -29 -18s-24.667 -7 -38 -7c-26.667 0 -48.334 7.33301 -65.001 22c-8.66699 7.33301 -15 16.166 -19 26.499s-6 23.5 -6 39.5v25h44v-25
c0 -16.667 4.66699 -29.167 14 -37.5s20 -12.5 32 -12.5c9.33301 0 17.166 1.5 23.499 4.5s11.166 6.5 14.499 10.5c5.33301 6.66699 9.16602 16 11.499 28s3.5 32.333 3.5 61c0 28 -1.16699 48 -3.5 60s-6.16602 21.333 -11.499 28c-3.33301 4 -7.83301 7.33301 -13.5 10
s-13.5 4 -23.5 4c-12.667 0 -23.334 -4.16699 -32.001 -12.5s-13 -19.166 -13 -32.499v-16h-44v249h178v-38h-135v-138l10 10c3.33301 3.33301 7.66602 6.33301 12.999 9c10.667 6 22.667 9 36 9s24.666 -2.16699 33.999 -6.5s17.666 -10.166 24.999 -17.499
c4 -4.66699 7.5 -10 10.5 -16s5.5 -13.5 7.5 -22.5s3.33301 -20 4 -33s1 -28.5 1 -46.5zM254.007 -0.000976562h-47l247 712h47zM663.007 126.999c0 -29.333 -1.83691 -51.165 -5.50391 -65.498s-9.83398 -26.833 -18.501 -37.5
c-7.33301 -9.33301 -17.166 -16.5 -29.499 -21.5s-26.166 -7.5 -41.499 -7.5c-31.333 0 -54.666 9.66699 -69.999 29c-9.33301 11.333 -15.666 24.166 -18.999 38.499s-5 35.833 -5 64.5c0 22.667 1.5 42.667 4.5 60s7.5 33.666 13.5 48.999l77 191h46l-74 -180
c10.667 7.33301 23.334 11 38.001 11c26 0 45.667 -7.66699 59 -23c4.66699 -4.66699 8.5 -9.66699 11.5 -15s5.5 -12 7.5 -20s3.5 -17.833 4.5 -29.5s1.5 -26.167 1.5 -43.5zM620.003 128c0 26.667 -1.33301 46.167 -4 58.5s-7.33398 21.166 -14.001 26.499
c-3.33301 2.66699 -7.83301 5 -13.5 7s-12.167 3 -19.5 3c-8 0 -14.833 -1 -20.5 -3s-10.167 -4.33301 -13.5 -7c-6.66699 -5.33301 -11.334 -14.166 -14.001 -26.499s-4 -31.833 -4 -58.5s1.33301 -46.167 4 -58.5s7.33398 -21.166 14.001 -26.499
c3.33301 -2.66699 7.83301 -5 13.5 -7s12.5 -3 20.5 -3c7.33301 0 13.833 1 19.5 3s10.167 4.33301 13.5 7c6.66699 5.33301 11.334 14.166 14.001 26.499s4 31.833 4 58.5z" />
    <glyph glyph-name="oneeighth" unicode="&#x215b;" horiz-adv-x="708" 
d="M131 285v379l-69 -47v47l69 48h43v-427h-43zM254 0h-47l247 712h47zM664 119c0 -26.667 -2 -47.333 -6 -62s-11.667 -27.334 -23 -38.001c-17.333 -16 -39.333 -24 -66 -24c-13.333 0 -26 2.16699 -38 6.5s-21.667 10.166 -29 17.499
c-12 10.667 -19.667 23.334 -23 38.001s-5 35.334 -5 62.001c0 12 0.166992 22.333 0.5 31s1.16602 16 2.49902 22s2.83301 11.333 4.5 16s4.16699 9.33398 7.5 14.001c3.33301 5.33301 7.5 9.83301 12.5 13.5s10.167 7.16699 15.5 10.5
c-12.667 6.66699 -21.667 14.667 -27 24c-5.33301 8.66699 -8.66602 18 -9.99902 28s-2 24 -2 42c0 23.333 1.83301 41.833 5.5 55.5s10.834 25.167 21.501 34.5c15.333 14.667 36.666 22 63.999 22c12.667 0 24.5 -1.83301 35.5 -5.5s20.5 -9.16699 28.5 -16.5
c11.333 -9.33301 18.833 -20.833 22.5 -34.5s5.5 -32.167 5.5 -55.5c0 -18 -1 -32 -3 -42s-5.66699 -19.333 -11 -28c-5.33301 -9.33301 -13.666 -17.333 -24.999 -24l16 -10.5c5.33301 -3.66699 9.66602 -8.16699 12.999 -13.5c2.66699 -4.66699 5 -9.33398 7 -14.001
s3.33301 -10 4 -16s1.16699 -13.333 1.5 -22s0.5 -19 0.5 -31zM621 119.001c0 23.333 -1.16699 40 -3.5 50s-6.5 18 -12.5 24c-8.66699 8.66699 -20.667 13 -36 13c-16 0 -28.333 -4.33301 -37 -13c-6 -6 -10 -14 -12 -24s-3 -26.667 -3 -50s1 -39.833 3 -49.5
s6 -17.5 12 -23.5c8.66699 -8.66699 21 -13 37 -13c15.333 0 27.333 4.33301 36 13c6 6 10.167 13.833 12.5 23.5s3.5 26.167 3.5 49.5zM618 320.001c0 19.333 -1.33301 33.333 -4 42s-6.66699 15.667 -12 21c-6 7.33301 -17 11 -33 11c-14.667 0 -25.667 -3.66699 -33 -11
c-5.33301 -5.33301 -9.16602 -12.333 -11.499 -21s-3.5 -22.667 -3.5 -42s1.16699 -33.5 3.5 -42.5s6.16602 -16.167 11.499 -21.5c7.33301 -7.33301 18.333 -11 33 -11c16 0 27 3.66699 33 11c5.33301 5.33301 9.33301 12.5 12 21.5s4 23.167 4 42.5z" />
    <glyph glyph-name="threeeighths" unicode="&#x215c;" horiz-adv-x="708" 
d="M245 399c0 -24.667 -2.16699 -43.5078 -6.5 -56.5078s-12.166 -25.167 -23.499 -36.5c-8 -8 -18.667 -14.333 -32 -19s-27.666 -7 -42.999 -7c-32.667 0 -58.334 9 -77.001 27c-8 8.66699 -14.167 18.834 -18.5 30.501s-6.5 29.834 -6.5 54.501v13h43v-13
c0 -17.333 1.33301 -30.166 4 -38.499s7.33398 -15.166 14.001 -20.499c10 -10 23.667 -15 41 -15c18 0 32 5 42 15c6 6 10.833 13.833 14.5 23.5s5.5 24.167 5.5 43.5c0 20.667 -1.5 35.667 -4.5 45s-7.16699 17 -12.5 23c-10.667 12.667 -25.667 19 -45 19h-29v38h29
c15.333 0 28.666 4.66699 39.999 14c9.33301 8.66699 14.833 18.834 16.5 30.501s2.5 24.167 2.5 37.5c0 12.667 -1.33301 24 -4 34s-7.66699 18 -15 24c-8.66699 9.33301 -22 14 -40 14s-32 -5 -42 -15c-10.667 -10.667 -16 -28.667 -16 -54v-13h-43v12
c0 21.333 2 38.166 6 50.499s10.333 22.5 19 30.5c9.33301 8.66699 20 15.334 32 20.001s26.667 7 44 7s32 -2.5 44 -7.5s22 -11.167 30 -18.5c10 -9.33301 17.167 -21.166 21.5 -35.499s6.5 -30.5 6.5 -48.5c0 -17.333 -1.33301 -31.5 -4 -42.5
s-7.33398 -20.833 -14.001 -29.5c-10.667 -13.333 -23.667 -23 -39 -29c18 -5.33301 32 -15.666 42 -30.999c6 -8.66699 10.5 -18.667 13.5 -30s4.5 -26.666 4.5 -45.999zM254 -0.0078125h-47l247 712h47zM664 118.992c0 -26.667 -2 -47.333 -6 -62
s-11.667 -27.334 -23 -38.001c-17.333 -16 -39.333 -24 -66 -24c-13.333 0 -26 2.16699 -38 6.5s-21.667 10.166 -29 17.499c-12 10.667 -19.667 23.334 -23 38.001s-5 35.334 -5 62.001c0 12 0.166992 22.333 0.5 31s1.16602 16 2.49902 22s2.83301 11.333 4.5 16
s4.16699 9.33398 7.5 14.001c3.33301 5.33301 7.5 9.83301 12.5 13.5s10.167 7.16699 15.5 10.5c-12.667 6.66699 -21.667 14.667 -27 24c-5.33301 8.66699 -8.66602 18 -9.99902 28s-2 24 -2 42c0 23.333 1.83301 41.833 5.5 55.5s10.834 25.167 21.501 34.5
c15.333 14.667 36.666 22 63.999 22c12.667 0 24.5 -1.83301 35.5 -5.5s20.5 -9.16699 28.5 -16.5c11.333 -9.33301 18.833 -20.833 22.5 -34.5s5.5 -32.167 5.5 -55.5c0 -18 -1 -32 -3 -42s-5.66699 -19.333 -11 -28c-5.33301 -9.33301 -13.666 -17.333 -24.999 -24
l16 -10.5c5.33301 -3.66699 9.66602 -8.16699 12.999 -13.5c2.66699 -4.66699 5 -9.33398 7 -14.001s3.33301 -10 4 -16s1.16699 -13.333 1.5 -22s0.5 -19 0.5 -31zM621 118.993c0 23.333 -1.16699 40 -3.5 50s-6.5 18 -12.5 24c-8.66699 8.66699 -20.667 13 -36 13
c-16 0 -28.333 -4.33301 -37 -13c-6 -6 -10 -14 -12 -24s-3 -26.667 -3 -50s1 -39.833 3 -49.5s6 -17.5 12 -23.5c8.66699 -8.66699 21 -13 37 -13c15.333 0 27.333 4.33301 36 13c6 6 10.167 13.833 12.5 23.5s3.5 26.167 3.5 49.5zM618 319.993
c0 19.333 -1.33301 33.333 -4 42s-6.66699 15.667 -12 21c-6 7.33301 -17 11 -33 11c-14.667 0 -25.667 -3.66699 -33 -11c-5.33301 -5.33301 -9.16602 -12.333 -11.499 -21s-3.5 -22.667 -3.5 -42s1.16699 -33.5 3.5 -42.5s6.16602 -16.167 11.499 -21.5
c7.33301 -7.33301 18.333 -11 33 -11c16 0 27 3.66699 33 11c5.33301 5.33301 9.33301 12.5 12 21.5s4 23.167 4 42.5z" />
    <glyph glyph-name="fiveeighths" unicode="&#x215d;" horiz-adv-x="708" 
d="M235 422c0 -33.333 -2.16016 -58.501 -6.49316 -75.501s-11.833 -30.833 -22.5 -41.5c-7.33301 -7.33301 -17 -13.333 -29 -18s-24.667 -7 -38 -7c-26.667 0 -48.334 7.33301 -65.001 22c-8.66699 7.33301 -15 16.166 -19 26.499s-6 23.5 -6 39.5v25h44v-25
c0 -16.667 4.66699 -29.167 14 -37.5s20 -12.5 32 -12.5c9.33301 0 17.166 1.5 23.499 4.5s11.166 6.5 14.499 10.5c5.33301 6.66699 9.16602 16 11.499 28s3.5 32.333 3.5 61c0 28 -1.16699 48 -3.5 60s-6.16602 21.333 -11.499 28c-3.33301 4 -7.83301 7.33301 -13.5 10
s-13.5 4 -23.5 4c-12.667 0 -23.334 -4.16699 -32.001 -12.5s-13 -19.166 -13 -32.499v-16h-44v249h178v-38h-135v-138l10 10c3.33301 3.33301 7.66602 6.33301 12.999 9c10.667 6 22.667 9 36 9s24.666 -2.16699 33.999 -6.5s17.666 -10.166 24.999 -17.499
c4 -4.66699 7.5 -10 10.5 -16s5.5 -13.5 7.5 -22.5s3.33301 -20 4 -33s1 -28.5 1 -46.5zM254.007 -0.000976562h-47l247 712h47zM664.007 118.999c0 -26.667 -2 -47.333 -6 -62s-11.667 -27.334 -23 -38.001c-17.333 -16 -39.333 -24 -66 -24c-13.333 0 -26 2.16699 -38 6.5
s-21.667 10.166 -29 17.499c-12 10.667 -19.667 23.334 -23 38.001s-5 35.334 -5 62.001c0 12 0.166992 22.333 0.5 31s1.16602 16 2.49902 22s2.83301 11.333 4.5 16s4.16699 9.33398 7.5 14.001c3.33301 5.33301 7.5 9.83301 12.5 13.5s10.167 7.16699 15.5 10.5
c-12.667 6.66699 -21.667 14.667 -27 24c-5.33301 8.66699 -8.66602 18 -9.99902 28s-2 24 -2 42c0 23.333 1.83301 41.833 5.5 55.5s10.834 25.167 21.501 34.5c15.333 14.667 36.666 22 63.999 22c12.667 0 24.5 -1.83301 35.5 -5.5s20.5 -9.16699 28.5 -16.5
c11.333 -9.33301 18.833 -20.833 22.5 -34.5s5.5 -32.167 5.5 -55.5c0 -18 -1 -32 -3 -42s-5.66699 -19.333 -11 -28c-5.33301 -9.33301 -13.666 -17.333 -24.999 -24l16 -10.5c5.33301 -3.66699 9.66602 -8.16699 12.999 -13.5c2.66699 -4.66699 5 -9.33398 7 -14.001
s3.33301 -10 4 -16s1.16699 -13.333 1.5 -22s0.5 -19 0.5 -31zM621.007 119c0 23.333 -1.16699 40 -3.5 50s-6.5 18 -12.5 24c-8.66699 8.66699 -20.667 13 -36 13c-16 0 -28.333 -4.33301 -37 -13c-6 -6 -10 -14 -12 -24s-3 -26.667 -3 -50s1 -39.833 3 -49.5
s6 -17.5 12 -23.5c8.66699 -8.66699 21 -13 37 -13c15.333 0 27.333 4.33301 36 13c6 6 10.167 13.833 12.5 23.5s3.5 26.167 3.5 49.5zM618.007 320c0 19.333 -1.33301 33.333 -4 42s-6.66699 15.667 -12 21c-6 7.33301 -17 11 -33 11c-14.667 0 -25.667 -3.66699 -33 -11
c-5.33301 -5.33301 -9.16602 -12.333 -11.499 -21s-3.5 -22.667 -3.5 -42s1.16699 -33.5 3.5 -42.5s6.16602 -16.167 11.499 -21.5c7.33301 -7.33301 18.333 -11 33 -11c16 0 27 3.66699 33 11c5.33301 5.33301 9.33301 12.5 12 21.5s4 23.167 4 42.5z" />
    <glyph glyph-name="seveneighths" unicode="&#x215e;" horiz-adv-x="708" 
d="M135 285h-46l101 389h-109v-71h-43v109h198v-38zM254 0h-47l247 712h47zM664 119c0 -26.667 -2 -47.333 -6 -62s-11.667 -27.334 -23 -38.001c-17.333 -16 -39.333 -24 -66 -24c-13.333 0 -26 2.16699 -38 6.5s-21.667 10.166 -29 17.499
c-12 10.667 -19.667 23.334 -23 38.001s-5 35.334 -5 62.001c0 12 0.166992 22.333 0.5 31s1.16602 16 2.49902 22s2.83301 11.333 4.5 16s4.16699 9.33398 7.5 14.001c3.33301 5.33301 7.5 9.83301 12.5 13.5s10.167 7.16699 15.5 10.5
c-12.667 6.66699 -21.667 14.667 -27 24c-5.33301 8.66699 -8.66602 18 -9.99902 28s-2 24 -2 42c0 23.333 1.83301 41.833 5.5 55.5s10.834 25.167 21.501 34.5c15.333 14.667 36.666 22 63.999 22c12.667 0 24.5 -1.83301 35.5 -5.5s20.5 -9.16699 28.5 -16.5
c11.333 -9.33301 18.833 -20.833 22.5 -34.5s5.5 -32.167 5.5 -55.5c0 -18 -1 -32 -3 -42s-5.66699 -19.333 -11 -28c-5.33301 -9.33301 -13.666 -17.333 -24.999 -24l16 -10.5c5.33301 -3.66699 9.66602 -8.16699 12.999 -13.5c2.66699 -4.66699 5 -9.33398 7 -14.001
s3.33301 -10 4 -16s1.16699 -13.333 1.5 -22s0.5 -19 0.5 -31zM621 119.001c0 23.333 -1.16699 40 -3.5 50s-6.5 18 -12.5 24c-8.66699 8.66699 -20.667 13 -36 13c-16 0 -28.333 -4.33301 -37 -13c-6 -6 -10 -14 -12 -24s-3 -26.667 -3 -50s1 -39.833 3 -49.5
s6 -17.5 12 -23.5c8.66699 -8.66699 21 -13 37 -13c15.333 0 27.333 4.33301 36 13c6 6 10.167 13.833 12.5 23.5s3.5 26.167 3.5 49.5zM618 320.001c0 19.333 -1.33301 33.333 -4 42s-6.66699 15.667 -12 21c-6 7.33301 -17 11 -33 11c-14.667 0 -25.667 -3.66699 -33 -11
c-5.33301 -5.33301 -9.16602 -12.333 -11.499 -21s-3.5 -22.667 -3.5 -42s1.16699 -33.5 3.5 -42.5s6.16602 -16.167 11.499 -21.5c7.33301 -7.33301 18.333 -11 33 -11c16 0 27 3.66699 33 11c5.33301 5.33301 9.33301 12.5 12 21.5s4 23.167 4 42.5z" />
    <glyph glyph-name="uni215F" unicode="&#x215f;" horiz-adv-x="431" 
d="M131 285v379l-69 -47v47l69 48h43v-427h-43zM254 0h-47l247 712h47z" />
    <glyph glyph-name="uni2189" unicode="&#x2189;" horiz-adv-x="709" 
d="M237 369c0 -15.333 -2.33301 -28.333 -7 -39s-11 -19.667 -19 -27c-8.66699 -7.33301 -19.5 -13 -32.5 -17s-26.167 -6 -39.5 -6s-26.666 2 -39.999 6s-23.666 9.66699 -30.999 17c-8.66699 7.33301 -15.334 16.333 -20.001 27s-7 23.667 -7 39v259
c0 16 2.33301 29.167 7 39.5s11.334 19.166 20.001 26.499c7.33301 7.33301 17.166 13 29.499 17s26.166 6 41.499 6s29 -2 41 -6s22.333 -9.66699 31 -17c8 -7.33301 14.333 -16.166 19 -26.499s7 -23.5 7 -39.5v-259zM194 630c0 16.667 -5.16699 29 -15.5 37
s-23.5 12 -39.5 12s-29 -4 -39 -12s-15 -20.333 -15 -37v-263c0 -16.667 5 -29 15 -37s23 -12 39 -12s29.167 4 39.5 12s15.5 20.333 15.5 37v263zM255 0h-47l247 712h47zM677 114c0 -24.667 -2.16699 -43.5078 -6.5 -56.5078s-12.166 -25.167 -23.499 -36.5
c-8 -8 -18.667 -14.333 -32 -19s-27.666 -7 -42.999 -7c-32.667 0 -58.334 9 -77.001 27c-8 8.66699 -14.167 18.834 -18.5 30.501s-6.5 29.834 -6.5 54.501v13h43v-13c0 -17.333 1.33301 -30.166 4 -38.499s7.33398 -15.166 14.001 -20.499c10 -10 23.667 -15 41 -15
c18 0 32 5 42 15c6 6 10.833 13.833 14.5 23.5s5.5 24.167 5.5 43.5c0 20.667 -1.5 35.667 -4.5 45s-7.16699 17 -12.5 23c-10.667 12.667 -25.667 19 -45 19h-29v38h29c15.333 0 28.666 4.66699 39.999 14c9.33301 8.66699 14.833 18.834 16.5 30.501s2.5 24.167 2.5 37.5
c0 12.667 -1.33301 24 -4 34s-7.66699 18 -15 24c-8.66699 9.33301 -22 14 -40 14s-32 -5 -42 -15c-10.667 -10.667 -16 -28.667 -16 -54v-13h-43v12c0 21.333 2 38.166 6 50.499s10.333 22.5 19 30.5c9.33301 8.66699 20 15.334 32 20.001s26.667 7 44 7s32 -2.5 44 -7.5
s22 -11.167 30 -18.5c10 -9.33301 17.167 -21.166 21.5 -35.499s6.5 -30.5 6.5 -48.5c0 -17.333 -1.33301 -31.5 -4 -42.5s-7.33398 -20.833 -14.001 -29.5c-10.667 -13.333 -23.667 -23 -39 -29c18 -5.33301 32 -15.666 42 -30.999c6 -8.66699 10.5 -18.667 13.5 -30
s4.5 -26.666 4.5 -45.999z" />
    <glyph glyph-name="arrowleft" unicode="&#x2190;" horiz-adv-x="632" 
d="M131 241l214 -214h-75l-242 241l242 240h75l-214 -212h445v-55h-445z" />
    <glyph glyph-name="arrowup" unicode="&#x2191;" horiz-adv-x="632" 
d="M344 449v-445h-56v445l-212 -214v75l240 242l240 -242v-75z" />
    <glyph glyph-name="arrowright" unicode="&#x2192;" horiz-adv-x="632" 
d="M362 27h-75l214 214h-445v55h445l-214 212h75l241 -240z" />
    <glyph glyph-name="arrowdown" unicode="&#x2193;" horiz-adv-x="632" 
d="M316 -16l-240 241v76l212 -215v446h56v-446l212 215v-76z" />
    <glyph glyph-name="uni2196" unicode="&#x2196;" horiz-adv-x="632" 
d="M214 419l315 -316l-39 -39l-316 316l2 -302l-54 52v341h341l53 -53z" />
    <glyph glyph-name="uni2197" unicode="&#x2197;" horiz-adv-x="632" 
d="M457 380l-315 -316l-39 39l315 316l-302 -1l53 53h340v-341l-53 -52z" />
    <glyph glyph-name="uni2198" unicode="&#x2198;" horiz-adv-x="632" 
d="M509 64h-340l-54 54l303 -1l-315 315l38 38l316 -314l-2 302l54 -54v-340z" />
    <glyph glyph-name="uni2199" unicode="&#x2199;" horiz-adv-x="632" 
d="M123 64v340l53 54l-1 -302l316 314l38 -38l-315 -315l303 1l-54 -54h-340z" />
    <glyph glyph-name="partialdiff" unicode="&#x2202;" horiz-adv-x="363" 
d="M304 254c0 -60 -2.5 -107.499 -7.5 -142.499s-15.5 -61.5 -31.5 -79.5c-22.667 -26.667 -52.667 -40 -90 -40c-19.333 0 -36.333 3.5 -51 10.5s-27.667 16.5 -39 28.5c-16 17.333 -26.667 43.333 -32 78s-8 81.667 -8 141c0 62 2.5 110.167 7.5 144.5
s15.167 60.166 30.5 77.499c21.333 23.333 48.333 35 81 35c22 0 40.667 -5.33301 56 -16c5.33301 -3.33301 10.833 -7.83301 16.5 -13.5s9.5 -10.834 11.5 -15.501v112c0 17.333 -1.66699 31.833 -5 43.5s-8 21.167 -14 28.5c-12 14.667 -29.667 22 -53 22
c-28.667 0 -52 -11 -70 -33l-40 35c28.667 32 65.667 48 111 48c40 0 70.333 -10.333 91 -31c12 -12 21 -26.167 27 -42.5s9 -41.166 9 -74.499v-316zM248 250.001c0 53.333 -1.33301 94.166 -4 122.499s-9.66699 49.166 -21 62.499c-5.33301 6.66699 -12.166 12 -20.499 16
s-17.5 6 -27.5 6s-19.167 -2 -27.5 -6s-15.166 -9.33301 -20.499 -16c-11.333 -13.333 -18.5 -34.166 -21.5 -62.499s-4.5 -69.166 -4.5 -122.499c0 -54 1.5 -95.167 4.5 -123.5s10.167 -49.166 21.5 -62.499c5.33301 -6.66699 12.166 -12 20.499 -16s17.5 -6 27.5 -6
s19.167 2 27.5 6s15.166 9.33301 20.499 16c11.333 13.333 18.333 34.166 21 62.499s4 69.5 4 123.5z" />
    <glyph glyph-name="Delta" unicode="&#x2206;" horiz-adv-x="379" 
d="M4 0l159 712h56l156 -712h-371zM189 606l-110 -553h222z" />
    <glyph glyph-name="product" unicode="&#x220f;" horiz-adv-x="433" 
d="M304 -219v926h-176v-926h-59v979h295v-979h-60z" />
    <glyph glyph-name="summation" unicode="&#x2211;" horiz-adv-x="353" 
d="M30 -220v46l142 458l-129 430v46h258v-53h-193l113 -396v-57l-125 -420h205v-54h-271z" />
    <glyph glyph-name="minus" unicode="&#x2212;" horiz-adv-x="431" 
d="M48 250v54h335v-54h-335z" />
    <glyph glyph-name="uni2219" unicode="&#x2219;" horiz-adv-x="431" 
d="M379 278c0 -22.667 -4.33301 -43.834 -13 -63.501s-20.334 -36.834 -35.001 -51.501s-31.834 -26.334 -51.501 -35.001s-40.834 -13 -63.501 -13s-43.834 4.33301 -63.501 13s-36.834 20.334 -51.501 35.001s-26.334 31.834 -35.001 51.501s-13 40.834 -13 63.501
s4.33301 43.834 13 63.501s20.334 36.834 35.001 51.501s31.834 26.334 51.501 35.001s40.834 13 63.501 13s43.834 -4.33301 63.501 -13s36.834 -20.334 51.501 -35.001s26.334 -31.834 35.001 -51.501s13 -40.834 13 -63.501z" />
    <glyph glyph-name="radical" unicode="&#x221a;" horiz-adv-x="441" 
d="M335 659l-153 -659h-61l-117 493h64l83 -405l133 624h129v-53h-78z" />
    <glyph glyph-name="infinity" unicode="&#x221e;" horiz-adv-x="615" 
d="M564 275c0 -34.667 -11.001 -63.5 -33.001 -86.5s-51.333 -34.5 -88 -34.5c-26 0 -49.5 6.16699 -70.5 18.5s-42.833 32.5 -65.5 60.5c-22 -28 -43.5 -48.333 -64.5 -61s-44.5 -19 -70.5 -19c-36.667 0 -66 11.667 -88 35s-33 52.333 -33 87s11 63.667 33 87
s51.333 35 88 35c25.333 0 48.666 -6.33301 69.999 -19s43 -33 65 -61c22.667 28 44.334 48.333 65.001 61s44.334 19 71.001 19c36.667 0 66 -11.667 88 -35s33 -52.333 33 -87zM510.999 274c0 21.333 -6.66699 38.333 -20 51s-30.333 19 -51 19
c-18.667 0 -35.167 -6.33301 -49.5 -19s-30.166 -29.667 -47.499 -51c17.333 -21.333 33.166 -38.166 47.499 -50.499s30.833 -18.5 49.5 -18.5c20.667 0 37.667 6.16699 51 18.5s20 29.166 20 50.499zM271.999 274c-17.333 21.333 -33.166 38.666 -47.499 51.999
s-30.833 20 -49.5 20c-20.667 0 -37.667 -6.66699 -51 -20s-20 -30.666 -20 -51.999s6.66699 -38.166 20 -50.499s30.333 -18.5 51 -18.5c18.667 0 35.167 6.16699 49.5 18.5s30.166 29.166 47.499 50.499z" />
    <glyph glyph-name="integral" unicode="&#x222b;" horiz-adv-x="282" 
d="M237 664c-19.333 0 -35.5 -6.66504 -48.5 -19.998s-19.5 -33 -19.5 -59v-657c0 -22.667 -2.66699 -41.334 -8 -56.001s-14 -28.334 -26 -41.001c-22.667 -22.667 -51 -34 -85 -34h-20v51h16c19.333 0 35.333 6.5 48 19.5s19 32.833 19 59.5v656
c0 24 3.16699 43.667 9.5 59s14.5 28.333 24.5 39c10 10 22.667 18 38 24s31.333 9 48 9h19v-50h-15z" />
    <glyph glyph-name="approxequal" unicode="&#x2248;" horiz-adv-x="431" 
d="M385 347c-21.333 -21.333 -39.002 -35.667 -53.002 -43s-29.333 -11 -46 -11c-14 0 -27.5 2.5 -40.5 7.5s-26.5 10.833 -40.5 17.5l-29.5 12.5c-9 3.66699 -19.167 5.5 -30.5 5.5s-21.166 -2 -29.499 -6s-19.833 -13.333 -34.5 -28l-35 34c21.333 21.333 39 35.5 53 42.5
s29.333 10.5 46 10.5c14 0 27.5 -2.33301 40.5 -7s26.5 -10.334 40.5 -17.001c11.333 -5.33301 21.5 -9.66602 30.5 -12.999s18.833 -5 29.5 -5c11.333 0 21.333 2 30 6s20.334 13.333 35.001 28zM384.998 201.999c-21.333 -21.333 -39.002 -35.499 -53.002 -42.499
s-29.333 -10.5 -46 -10.5c-14 0 -27.5 2.33301 -40.5 7s-26.5 10.334 -40.5 17.001c-10.667 5.33301 -20.5 9.66602 -29.5 12.999s-19.167 5 -30.5 5s-21.166 -2 -29.499 -6s-19.833 -13.333 -34.5 -28l-35 34c21.333 21.333 39 35.666 53 42.999s29.333 11 46 11
c14 0 27.5 -2.5 40.5 -7.5s26.5 -10.833 40.5 -17.5l30.5 -12.5c9 -3.66699 18.833 -5.5 29.5 -5.5c11.333 0 21.333 2 30 6s20.334 13.333 35.001 28z" />
    <glyph glyph-name="notequal" unicode="&#x2260;" horiz-adv-x="432" 
d="M171 179l-75 -94l-40 30l52 64h-62v53h102l74 91h-176v53h215l74 94l40 -30l-51 -64h62v-53h-101l-74 -91h175v-53h-215z" />
    <glyph glyph-name="lessequal" unicode="&#x2264;" horiz-adv-x="361" 
d="M34 328v49l293 170v-63l-229 -132l229 -131v-63zM34 167v62l293 -170v-62z" />
    <glyph glyph-name="greaterequal" unicode="&#x2265;" horiz-adv-x="361" 
d="M34 158v63l229 131l-229 132v63l293 -170v-49zM34 -3v62l293 170v-62z" />
    <glyph glyph-name="dotmath" unicode="&#x22c5;" horiz-adv-x="431" 
d="M154 217v123h123v-123h-123z" />
    <glyph glyph-name="lozenge" unicode="&#x25ca;" horiz-adv-x="500" 
d="M250 55l-197 279l197 279l197 -279zM250 527l-135 -193l135 -195l135 195z" />
    <glyph glyph-name="fi" unicode="&#xfb01;" horiz-adv-x="400" 
d="M134 465v-464.998h-56v465h-62v44h62v69c0 45.333 12.667 79.666 38 102.999c14.667 13.333 31 22.166 49 26.499s36.667 6.5 56 6.5v-51c-58 0 -87 -28.333 -87 -85v-69h87v-44h-87zM281 0.00195312v509h56v-509h-56zM273 626.002v72h72v-72h-72z" />
    <glyph glyph-name="fl" unicode="&#xfb02;" horiz-adv-x="436" 
d="M134 465v-464.998h-56v465h-62v44h62v69c0 45.333 12.667 79.666 38 102.999c14.667 13.333 31 22.166 49 26.499s36.667 6.5 56 6.5v-51c-58 0 -87 -28.333 -87 -85v-69h87v-44h-87zM420 0.00195312c-19.333 0 -37.5 2.00195 -54.5 6.00195s-32.5 12.667 -46.5 26
c-12 11.333 -21.333 25.166 -28 41.499s-10 37.166 -10 62.499v576h56v-576c0 -28 6.83301 -49.333 20.5 -64s34.5 -22 62.5 -22v-50z" />
    <glyph glyph-name="uniFEFF" unicode="&#xfeff;" horiz-adv-x="0" 
 />
    <glyph glyph-name=".null" horiz-adv-x="0" 
 />
    <glyph glyph-name="nonmarkingreturn" horiz-adv-x="194" 
 />
    <glyph glyph-name="zero.numr" horiz-adv-x="278" 
d="M237 369c0 -15.333 -2.33301 -28.333 -7 -39s-11 -19.667 -19 -27c-8.66699 -7.33301 -19.5 -13 -32.5 -17s-26.167 -6 -39.5 -6s-26.666 2 -39.999 6s-23.666 9.66699 -30.999 17c-8.66699 7.33301 -15.334 16.333 -20.001 27s-7 23.667 -7 39v259
c0 16 2.33301 29.167 7 39.5s11.334 19.166 20.001 26.499c7.33301 7.33301 17.166 13 29.499 17s26.166 6 41.499 6s29 -2 41 -6s22.333 -9.66699 31 -17c8 -7.33301 14.333 -16.166 19 -26.499s7 -23.5 7 -39.5v-259zM194 630c0 16.667 -5.16699 29 -15.5 37
s-23.5 12 -39.5 12s-29 -4 -39 -12s-15 -20.333 -15 -37v-263c0 -16.667 5 -29 15 -37s23 -12 39 -12s29.167 4 39.5 12s15.5 20.333 15.5 37v263z" />
    <glyph glyph-name="one.numr" 
d="M131 285v379l-69 -47v47l69 48h43v-427h-43z" />
    <glyph glyph-name="two.numr" 
d="M38 285l0.000976562 36.998l137 218c8 13.333 14 25.666 18 36.999s6 25.333 6 42c0 18 -5.5 32.5 -16.5 43.5s-25.5 16.5 -43.5 16.5c-20.667 0 -35.667 -6.16699 -45 -18.5s-14 -29.166 -14 -50.499v-18h-43v17c0 19.333 2 35.333 6 48s11 23.667 21 33
c19.333 18 44.333 27 75 27c16.667 0 30.5 -2 41.5 -6s21.5 -10 31.5 -18c20 -16 30 -40.667 30 -74c0 -17.333 -2.33301 -33.666 -7 -48.999s-12.334 -31.666 -23.001 -48.999l-124 -198h154v-38h-204z" />
    <glyph glyph-name="three.numr" 
d="M245 399c0 -24.667 -2.16699 -43.5078 -6.5 -56.5078s-12.166 -25.167 -23.499 -36.5c-8 -8 -18.667 -14.333 -32 -19s-27.666 -7 -42.999 -7c-32.667 0 -58.334 9 -77.001 27c-8 8.66699 -14.167 18.834 -18.5 30.501s-6.5 29.834 -6.5 54.501v13h43v-13
c0 -17.333 1.33301 -30.166 4 -38.499s7.33398 -15.166 14.001 -20.499c10 -10 23.667 -15 41 -15c18 0 32 5 42 15c6 6 10.833 13.833 14.5 23.5s5.5 24.167 5.5 43.5c0 20.667 -1.5 35.667 -4.5 45s-7.16699 17 -12.5 23c-10.667 12.667 -25.667 19 -45 19h-29v38h29
c15.333 0 28.666 4.66699 39.999 14c9.33301 8.66699 14.833 18.834 16.5 30.501s2.5 24.167 2.5 37.5c0 12.667 -1.33301 24 -4 34s-7.66699 18 -15 24c-8.66699 9.33301 -22 14 -40 14s-32 -5 -42 -15c-10.667 -10.667 -16 -28.667 -16 -54v-13h-43v12
c0 21.333 2 38.166 6 50.499s10.333 22.5 19 30.5c9.33301 8.66699 20 15.334 32 20.001s26.667 7 44 7s32 -2.5 44 -7.5s22 -11.167 30 -18.5c10 -9.33301 17.167 -21.166 21.5 -35.499s6.5 -30.5 6.5 -48.5c0 -17.333 -1.33301 -31.5 -4 -42.5
s-7.33398 -20.833 -14.001 -29.5c-10.667 -13.333 -23.667 -23 -39 -29c18 -5.33301 32 -15.666 42 -30.999c6 -8.66699 10.5 -18.667 13.5 -30s4.5 -26.666 4.5 -45.999z" />
    <glyph glyph-name="four.numr" 
d="M219 349v-64h-43v64h-148v38l125 325h43l-124 -325h104v103h43v-103h32v-38h-32z" />
    <glyph glyph-name="five.numr" 
d="M235 422c0 -33.333 -2.16016 -58.501 -6.49316 -75.501s-11.833 -30.833 -22.5 -41.5c-7.33301 -7.33301 -17 -13.333 -29 -18s-24.667 -7 -38 -7c-26.667 0 -48.334 7.33301 -65.001 22c-8.66699 7.33301 -15 16.166 -19 26.499s-6 23.5 -6 39.5v25h44v-25
c0 -16.667 4.66699 -29.167 14 -37.5s20 -12.5 32 -12.5c9.33301 0 17.166 1.5 23.499 4.5s11.166 6.5 14.499 10.5c5.33301 6.66699 9.16602 16 11.499 28s3.5 32.333 3.5 61c0 28 -1.16699 48 -3.5 60s-6.16602 21.333 -11.499 28c-3.33301 4 -7.83301 7.33301 -13.5 10
s-13.5 4 -23.5 4c-12.667 0 -23.334 -4.16699 -32.001 -12.5s-13 -19.166 -13 -32.499v-16h-44v249h178v-38h-135v-138l10 10c3.33301 3.33301 7.66602 6.33301 12.999 9c10.667 6 22.667 9 36 9s24.666 -2.16699 33.999 -6.5s17.666 -10.166 24.999 -17.499
c4 -4.66699 7.5 -10 10.5 -16s5.5 -13.5 7.5 -22.5s3.33301 -20 4 -33s1 -28.5 1 -46.5z" />
    <glyph glyph-name="six.numr" 
d="M232 412c0 -29.333 -1.83691 -51.165 -5.50391 -65.498s-9.83398 -26.833 -18.501 -37.5c-7.33301 -9.33301 -17.166 -16.5 -29.499 -21.5s-26.166 -7.5 -41.499 -7.5c-31.333 0 -54.666 9.66699 -69.999 29c-9.33301 11.333 -15.666 24.166 -18.999 38.499
s-5 35.833 -5 64.5c0 22.667 1.5 42.667 4.5 60s7.5 33.666 13.5 48.999l77 191h46l-74 -180c10.667 7.33301 23.334 11 38.001 11c26 0 45.667 -7.66699 59 -23c4.66699 -4.66699 8.5 -9.66699 11.5 -15s5.5 -12 7.5 -20s3.5 -17.833 4.5 -29.5s1.5 -26.167 1.5 -43.5z
M188.996 413.001c0 26.667 -1.33301 46.167 -4 58.5s-7.33398 21.166 -14.001 26.499c-3.33301 2.66699 -7.83301 5 -13.5 7s-12.167 3 -19.5 3c-8 0 -14.833 -1 -20.5 -3s-10.167 -4.33301 -13.5 -7c-6.66699 -5.33301 -11.334 -14.166 -14.001 -26.499
s-4 -31.833 -4 -58.5s1.33301 -46.167 4 -58.5s7.33398 -21.166 14.001 -26.499c3.33301 -2.66699 7.83301 -5 13.5 -7s12.5 -3 20.5 -3c7.33301 0 13.833 1 19.5 3s10.167 4.33301 13.5 7c6.66699 5.33301 11.334 14.166 14.001 26.499s4 31.833 4 58.5z" />
    <glyph glyph-name="seven.numr" 
d="M135 285h-46l101 389h-109v-71h-43v109h198v-38z" />
    <glyph glyph-name="eight.numr" 
d="M233 404c0 -26.667 -2 -47.333 -6 -62s-11.667 -27.334 -23 -38.001c-17.333 -16 -39.333 -24 -66 -24c-13.333 0 -26 2.16699 -38 6.5s-21.667 10.166 -29 17.499c-12 10.667 -19.667 23.334 -23 38.001s-5 35.334 -5 62.001c0 12 0.166992 22.333 0.5 31
s1.16602 16 2.49902 22s2.83301 11.333 4.5 16s4.16699 9.33398 7.5 14.001c3.33301 5.33301 7.5 9.83301 12.5 13.5s10.167 7.16699 15.5 10.5c-12.667 6.66699 -21.667 14.667 -27 24c-5.33301 8.66699 -8.66602 18 -9.99902 28s-2 24 -2 42
c0 23.333 1.83301 41.833 5.5 55.5s10.834 25.167 21.501 34.5c15.333 14.667 36.666 22 63.999 22c12.667 0 24.5 -1.83301 35.5 -5.5s20.5 -9.16699 28.5 -16.5c11.333 -9.33301 18.833 -20.833 22.5 -34.5s5.5 -32.167 5.5 -55.5c0 -18 -1 -32 -3 -42
s-5.66699 -19.333 -11 -28c-5.33301 -9.33301 -13.666 -17.333 -24.999 -24l16 -10.5c5.33301 -3.66699 9.66602 -8.16699 12.999 -13.5c2.66699 -4.66699 5 -9.33398 7 -14.001s3.33301 -10 4 -16s1.16699 -13.333 1.5 -22s0.5 -19 0.5 -31zM190 404.001
c0 23.333 -1.16699 40 -3.5 50s-6.5 18 -12.5 24c-8.66699 8.66699 -20.667 13 -36 13c-16 0 -28.333 -4.33301 -37 -13c-6 -6 -10 -14 -12 -24s-3 -26.667 -3 -50s1 -39.833 3 -49.5s6 -17.5 12 -23.5c8.66699 -8.66699 21 -13 37 -13c15.333 0 27.333 4.33301 36 13
c6 6 10.167 13.833 12.5 23.5s3.5 26.167 3.5 49.5zM187 605.001c0 19.333 -1.33301 33.333 -4 42s-6.66699 15.667 -12 21c-6 7.33301 -17 11 -33 11c-14.667 0 -25.667 -3.66699 -33 -11c-5.33301 -5.33301 -9.16602 -12.333 -11.499 -21s-3.5 -22.667 -3.5 -42
s1.16699 -33.5 3.5 -42.5s6.16602 -16.167 11.499 -21.5c7.33301 -7.33301 18.333 -11 33 -11c16 0 27 3.66699 33 11c5.33301 5.33301 9.33301 12.5 12 21.5s4 23.167 4 42.5z" />
    <glyph glyph-name="nine.numr" 
d="M232 585c0 -22.667 -1.49805 -42.668 -4.49805 -60.001s-7.5 -33.666 -13.5 -48.999l-77 -191h-47l75 180c-10.667 -7.33301 -23.334 -11 -38.001 -11c-26 0 -45.667 7.66699 -59 23c-4.66699 4.66699 -8.5 9.66699 -11.5 15s-5.5 12 -7.5 20s-3.5 17.833 -4.5 29.5
s-1.5 26.167 -1.5 43.5c0 29.333 1.66699 51.166 5 65.499s9.33301 26.833 18 37.5c16 19.333 39.667 29 71 29c32 0 55.667 -9.66699 71 -29c9.33301 -11.333 15.666 -24.166 18.999 -38.499s5 -35.833 5 -64.5zM189.002 583.999c0 26.667 -1.33301 46.167 -4 58.5
s-7.66699 21.166 -15 26.499c-3.33301 2.66699 -7.83301 5 -13.5 7s-12.167 3 -19.5 3s-13.833 -1 -19.5 -3s-10.167 -4.33301 -13.5 -7c-6.66699 -5.33301 -11.334 -14.166 -14.001 -26.499s-4 -31.833 -4 -58.5s1.33301 -46.167 4 -58.5s7.33398 -21.166 14.001 -26.499
c3.33301 -2.66699 7.83301 -5 13.5 -7s12.167 -3 19.5 -3s13.833 1 19.5 3s10.167 4.33301 13.5 7c7.33301 5.33301 12.333 14.166 15 26.499s4 31.833 4 58.5z" />
    <glyph glyph-name="zero.dnom" horiz-adv-x="278" 
d="M237 84c0 -15.333 -2.33301 -28.333 -7 -39s-11 -19.667 -19 -27c-8.66699 -7.33301 -19.5 -13 -32.5 -17s-26.167 -6 -39.5 -6s-26.666 2 -39.999 6s-23.666 9.66699 -30.999 17c-8.66699 7.33301 -15.334 16.333 -20.001 27s-7 23.667 -7 39v259
c0 16 2.33301 29.167 7 39.5s11.334 19.166 20.001 26.499c7.33301 7.33301 17.166 13 29.499 17s26.166 6 41.499 6s29 -2 41 -6s22.333 -9.66699 31 -17c8 -7.33301 14.333 -16.166 19 -26.499s7 -23.5 7 -39.5v-259zM194 345c0 16.667 -5.16699 29 -15.5 37
s-23.5 12 -39.5 12s-29 -4 -39 -12s-15 -20.333 -15 -37v-263c0 -16.667 5 -29 15 -37s23 -12 39 -12s29.167 4 39.5 12s15.5 20.333 15.5 37v263z" />
    <glyph glyph-name="one.dnom" 
d="M131 0v379l-69 -47v47l69 48h43v-427h-43z" />
    <glyph glyph-name="two.dnom" 
d="M38 0l0.000976562 36.998l137 218c8 13.333 14 25.666 18 36.999s6 25.333 6 42c0 18 -5.5 32.5 -16.5 43.5s-25.5 16.5 -43.5 16.5c-20.667 0 -35.667 -6.16699 -45 -18.5s-14 -29.166 -14 -50.499v-18h-43v17c0 19.333 2 35.333 6 48s11 23.667 21 33
c19.333 18 44.333 27 75 27c16.667 0 30.5 -2 41.5 -6s21.5 -10 31.5 -18c20 -16 30 -40.667 30 -74c0 -17.333 -2.33301 -33.666 -7 -48.999s-12.334 -31.666 -23.001 -48.999l-124 -198h154v-38h-204z" />
    <glyph glyph-name="three.dnom" 
d="M245 114c0 -24.667 -2.16699 -43.5078 -6.5 -56.5078s-12.166 -25.167 -23.499 -36.5c-8 -8 -18.667 -14.333 -32 -19s-27.666 -7 -42.999 -7c-32.667 0 -58.334 9 -77.001 27c-8 8.66699 -14.167 18.834 -18.5 30.501s-6.5 29.834 -6.5 54.501v13h43v-13
c0 -17.333 1.33301 -30.166 4 -38.499s7.33398 -15.166 14.001 -20.499c10 -10 23.667 -15 41 -15c18 0 32 5 42 15c6 6 10.833 13.833 14.5 23.5s5.5 24.167 5.5 43.5c0 20.667 -1.5 35.667 -4.5 45s-7.16699 17 -12.5 23c-10.667 12.667 -25.667 19 -45 19h-29v38h29
c15.333 0 28.666 4.66699 39.999 14c9.33301 8.66699 14.833 18.834 16.5 30.501s2.5 24.167 2.5 37.5c0 12.667 -1.33301 24 -4 34s-7.66699 18 -15 24c-8.66699 9.33301 -22 14 -40 14s-32 -5 -42 -15c-10.667 -10.667 -16 -28.667 -16 -54v-13h-43v12
c0 21.333 2 38.166 6 50.499s10.333 22.5 19 30.5c9.33301 8.66699 20 15.334 32 20.001s26.667 7 44 7s32 -2.5 44 -7.5s22 -11.167 30 -18.5c10 -9.33301 17.167 -21.166 21.5 -35.499s6.5 -30.5 6.5 -48.5c0 -17.333 -1.33301 -31.5 -4 -42.5
s-7.33398 -20.833 -14.001 -29.5c-10.667 -13.333 -23.667 -23 -39 -29c18 -5.33301 32 -15.666 42 -30.999c6 -8.66699 10.5 -18.667 13.5 -30s4.5 -26.666 4.5 -45.999z" />
    <glyph glyph-name="four.dnom" 
d="M219 64v-64h-43v64h-148v38l125 325h43l-124 -325h104v103h43v-103h32v-38h-32z" />
    <glyph glyph-name="five.dnom" 
d="M235 137c0 -33.333 -2.16016 -58.501 -6.49316 -75.501s-11.833 -30.833 -22.5 -41.5c-7.33301 -7.33301 -17 -13.333 -29 -18s-24.667 -7 -38 -7c-26.667 0 -48.334 7.33301 -65.001 22c-8.66699 7.33301 -15 16.166 -19 26.499s-6 23.5 -6 39.5v25h44v-25
c0 -16.667 4.66699 -29.167 14 -37.5s20 -12.5 32 -12.5c9.33301 0 17.166 1.5 23.499 4.5s11.166 6.5 14.499 10.5c5.33301 6.66699 9.16602 16 11.499 28s3.5 32.333 3.5 61c0 28 -1.16699 48 -3.5 60s-6.16602 21.333 -11.499 28c-3.33301 4 -7.83301 7.33301 -13.5 10
s-13.5 4 -23.5 4c-12.667 0 -23.334 -4.16699 -32.001 -12.5s-13 -19.166 -13 -32.499v-16h-44v249h178v-38h-135v-138l10 10c3.33301 3.33301 7.66602 6.33301 12.999 9c10.667 6 22.667 9 36 9s24.666 -2.16699 33.999 -6.5s17.666 -10.166 24.999 -17.499
c4 -4.66699 7.5 -10 10.5 -16s5.5 -13.5 7.5 -22.5s3.33301 -20 4 -33s1 -28.5 1 -46.5z" />
    <glyph glyph-name="six.dnom" 
d="M232 127c0 -29.333 -1.83691 -51.165 -5.50391 -65.498s-9.83398 -26.833 -18.501 -37.5c-7.33301 -9.33301 -17.166 -16.5 -29.499 -21.5s-26.166 -7.5 -41.499 -7.5c-31.333 0 -54.666 9.66699 -69.999 29c-9.33301 11.333 -15.666 24.166 -18.999 38.499
s-5 35.833 -5 64.5c0 22.667 1.5 42.667 4.5 60s7.5 33.666 13.5 48.999l77 191h46l-74 -180c10.667 7.33301 23.334 11 38.001 11c26 0 45.667 -7.66699 59 -23c4.66699 -4.66699 8.5 -9.66699 11.5 -15s5.5 -12 7.5 -20s3.5 -17.833 4.5 -29.5s1.5 -26.167 1.5 -43.5z
M188.996 128.001c0 26.667 -1.33301 46.167 -4 58.5s-7.33398 21.166 -14.001 26.499c-3.33301 2.66699 -7.83301 5 -13.5 7s-12.167 3 -19.5 3c-8 0 -14.833 -1 -20.5 -3s-10.167 -4.33301 -13.5 -7c-6.66699 -5.33301 -11.334 -14.166 -14.001 -26.499
s-4 -31.833 -4 -58.5s1.33301 -46.167 4 -58.5s7.33398 -21.166 14.001 -26.499c3.33301 -2.66699 7.83301 -5 13.5 -7s12.5 -3 20.5 -3c7.33301 0 13.833 1 19.5 3s10.167 4.33301 13.5 7c6.66699 5.33301 11.334 14.166 14.001 26.499s4 31.833 4 58.5z" />
    <glyph glyph-name="seven.dnom" 
d="M135 0h-46l101 389h-109v-71h-43v109h198v-38z" />
    <glyph glyph-name="eight.dnom" 
d="M233 119c0 -26.667 -2 -47.333 -6 -62s-11.667 -27.334 -23 -38.001c-17.333 -16 -39.333 -24 -66 -24c-13.333 0 -26 2.16699 -38 6.5s-21.667 10.166 -29 17.499c-12 10.667 -19.667 23.334 -23 38.001s-5 35.334 -5 62.001c0 12 0.166992 22.333 0.5 31
s1.16602 16 2.49902 22s2.83301 11.333 4.5 16s4.16699 9.33398 7.5 14.001c3.33301 5.33301 7.5 9.83301 12.5 13.5s10.167 7.16699 15.5 10.5c-12.667 6.66699 -21.667 14.667 -27 24c-5.33301 8.66699 -8.66602 18 -9.99902 28s-2 24 -2 42
c0 23.333 1.83301 41.833 5.5 55.5s10.834 25.167 21.501 34.5c15.333 14.667 36.666 22 63.999 22c12.667 0 24.5 -1.83301 35.5 -5.5s20.5 -9.16699 28.5 -16.5c11.333 -9.33301 18.833 -20.833 22.5 -34.5s5.5 -32.167 5.5 -55.5c0 -18 -1 -32 -3 -42
s-5.66699 -19.333 -11 -28c-5.33301 -9.33301 -13.666 -17.333 -24.999 -24l16 -10.5c5.33301 -3.66699 9.66602 -8.16699 12.999 -13.5c2.66699 -4.66699 5 -9.33398 7 -14.001s3.33301 -10 4 -16s1.16699 -13.333 1.5 -22s0.5 -19 0.5 -31zM190 119.001
c0 23.333 -1.16699 40 -3.5 50s-6.5 18 -12.5 24c-8.66699 8.66699 -20.667 13 -36 13c-16 0 -28.333 -4.33301 -37 -13c-6 -6 -10 -14 -12 -24s-3 -26.667 -3 -50s1 -39.833 3 -49.5s6 -17.5 12 -23.5c8.66699 -8.66699 21 -13 37 -13c15.333 0 27.333 4.33301 36 13
c6 6 10.167 13.833 12.5 23.5s3.5 26.167 3.5 49.5zM187 320.001c0 19.333 -1.33301 33.333 -4 42s-6.66699 15.667 -12 21c-6 7.33301 -17 11 -33 11c-14.667 0 -25.667 -3.66699 -33 -11c-5.33301 -5.33301 -9.16602 -12.333 -11.499 -21s-3.5 -22.667 -3.5 -42
s1.16699 -33.5 3.5 -42.5s6.16602 -16.167 11.499 -21.5c7.33301 -7.33301 18.333 -11 33 -11c16 0 27 3.66699 33 11c5.33301 5.33301 9.33301 12.5 12 21.5s4 23.167 4 42.5z" />
    <glyph glyph-name="nine.dnom" 
d="M232 300c0 -22.667 -1.49805 -42.668 -4.49805 -60.001s-7.5 -33.666 -13.5 -48.999l-77 -191h-47l75 180c-10.667 -7.33301 -23.334 -11 -38.001 -11c-26 0 -45.667 7.66699 -59 23c-4.66699 4.66699 -8.5 9.66699 -11.5 15s-5.5 12 -7.5 20s-3.5 17.833 -4.5 29.5
s-1.5 26.167 -1.5 43.5c0 29.333 1.66699 51.166 5 65.499s9.33301 26.833 18 37.5c16 19.333 39.667 29 71 29c32 0 55.667 -9.66699 71 -29c9.33301 -11.333 15.666 -24.166 18.999 -38.499s5 -35.833 5 -64.5zM189.002 298.999c0 26.667 -1.33301 46.167 -4 58.5
s-7.66699 21.166 -15 26.499c-3.33301 2.66699 -7.83301 5 -13.5 7s-12.167 3 -19.5 3s-13.833 -1 -19.5 -3s-10.167 -4.33301 -13.5 -7c-6.66699 -5.33301 -11.334 -14.166 -14.001 -26.499s-4 -31.833 -4 -58.5s1.33301 -46.167 4 -58.5s7.33398 -21.166 14.001 -26.499
c3.33301 -2.66699 7.83301 -5 13.5 -7s12.167 -3 19.5 -3s13.833 1 19.5 3s10.167 4.33301 13.5 7c7.33301 5.33301 12.333 14.166 15 26.499s4 31.833 4 58.5z" />
    <glyph glyph-name="space.frac" horiz-adv-x="38" 
 />
    <glyph glyph-name="zero.osf" horiz-adv-x="344" 
d="M172 -8c-36.667 0 -66.668 11.665 -90.001 34.998c-11.333 11.333 -20.166 24.666 -26.499 39.999s-9.5 35.666 -9.5 60.999v338c0 25.333 3 45.5 9 60.5s15 28.5 27 40.5c23.333 23.333 53.333 35 90 35c17.333 0 34 -3 50 -9s29.667 -14.667 41 -26
s20.166 -24.666 26.499 -39.999s9.5 -35.666 9.5 -60.999v-338c0 -25.333 -3.16699 -45.666 -9.5 -60.999s-15.166 -28.666 -26.499 -39.999s-25 -20 -41 -26s-32.667 -9 -50 -9zM241.999 468.998c0 28 -6.66699 48.833 -20 62.5s-30 20.5 -50 20.5
c-19.333 0 -35.833 -6.83301 -49.5 -20.5s-20.5 -34.5 -20.5 -62.5v-344c0 -28 6.83301 -48.833 20.5 -62.5s30.167 -20.5 49.5 -20.5c20 0 36.667 6.83301 50 20.5s20 34.5 20 62.5v344z" />
    <glyph glyph-name="one.osf" horiz-adv-x="291" 
d="M146 0v529l-102 -89v67l102 87h56v-594h-56z" />
    <glyph glyph-name="two.osf" horiz-adv-x="344" 
d="M39 0l0.000976562 47l166 281c8 12.667 14.167 24.5 18.5 35.5s7.83301 21.667 10.5 32s4.33398 21.333 5.00098 33s1 24.834 1 39.501c0 28 -6.83301 49 -20.5 63s-30.167 21 -49.5 21c-20 0 -36.833 -6.83301 -50.5 -20.5s-20.5 -34.5 -20.5 -62.5v-46h-56v45
c0 23.333 3.16699 42.833 9.5 58.5s15.166 29.167 26.499 40.5s25 20 41 26s32.667 9 50 9s33.833 -2.83301 49.5 -8.5s28.834 -13.834 39.501 -24.501c11.333 -10.667 20.333 -24 27 -40s10 -36.667 10 -62c0 -17.333 -0.666992 -33 -2 -47s-3.83301 -27.167 -7.5 -39.5
s-8.33398 -24.5 -14.001 -36.5s-12.834 -24.667 -21.501 -38l-150 -256h200v-50h-262z" />
    <glyph glyph-name="three.osf" horiz-adv-x="342" 
d="M295 78c0 -24.667 -0.665039 -45.8301 -1.99805 -63.4971s-3.5 -32.834 -6.5 -45.501s-7 -23.667 -12 -33s-11.5 -18.333 -19.5 -27c-10.667 -10.667 -24.167 -19.167 -40.5 -25.5s-33.166 -9.5 -50.499 -9.5s-34 3 -50 9s-29.333 14.333 -40 25
c-11.333 11.333 -20.333 24.666 -27 39.999s-10 35.666 -10 60.999v49h56v-50c0 -28 7 -49 21 -63s30.667 -21 50 -21c21.333 0 37.666 7 48.999 21c4.66699 5.33301 8.66699 11.166 12 17.499s6 14.5 8 24.5s3.5 22.333 4.5 37s1.5 32.667 1.5 54
c0 24.667 -0.333008 45 -1 61s-2 29 -4 39s-4.66699 17.833 -8 23.5s-7.33301 11.167 -12 16.5c-13.333 14 -30 21 -50 21h-41v49h41c20.667 0 35.667 5.66699 45 17c9.33301 9.33301 15.666 22.166 18.999 38.499s5 41.833 5 76.5c0 17.333 -0.5 32.166 -1.5 44.499
s-2.33301 22.833 -4 31.5s-3.83398 15.834 -6.50098 21.501s-6 10.834 -10 15.501c-10.667 12.667 -26.334 19 -47.001 19c-19.333 0 -35.166 -6.83301 -47.499 -20.5s-18.5 -34.5 -18.5 -62.5v-51h-56v49c0 24.667 3 45 9 61s14.667 29.333 26 40
c22.667 22.667 51.667 34 87 34c36.667 0 66 -11 88 -33c6.66699 -6.66699 12.334 -14 17.001 -22s8.5 -17.833 11.5 -29.5s5.16699 -25.167 6.5 -40.5s2 -33.666 2 -54.999c0 -34.667 -1.5 -60.334 -4.5 -77.001s-8.16699 -31.334 -15.5 -44.001
c-8.66699 -16 -22 -28.667 -40 -38c17.333 -9.33301 30.666 -20.666 39.999 -33.999c4.66699 -7.33301 8.66699 -14.666 12 -21.999s6 -16.5 8 -27.5s3.5 -24.5 4.5 -40.5s1.5 -36.333 1.5 -61z" />
    <glyph glyph-name="four.osf" horiz-adv-x="365" 
d="M276 30v-153h-56v153h-189v50l181 549h55l-179 -549h132v200h56v-200h58v-50h-58z" />
    <glyph glyph-name="five.osf" horiz-adv-x="351" 
d="M307 106c0 -28 -0.501953 -51.999 -1.50195 -71.999s-3 -37.333 -6 -52s-7.16699 -27.334 -12.5 -38.001s-12 -20.667 -20 -30c-10.667 -12.667 -24.167 -22.5 -40.5 -29.5s-33.166 -10.5 -50.499 -10.5s-34 2.83301 -50 8.5s-29.333 13.834 -40 24.501
c-11.333 11.333 -20.5 24.833 -27.5 40.5s-10.5 36.167 -10.5 61.5v47h56v-45c0 -30 7 -52 21 -66s31.333 -21 52 -21s37 8.33301 49 25c4.66699 6 8.5 12.667 11.5 20s5.5 16.833 7.5 28.5s3.5 26.167 4.5 43.5s1.5 39 1.5 65c0 25.333 -0.5 46.666 -1.5 63.999
s-2.5 32 -4.5 44s-4.66699 21.833 -8 29.5s-7 14.5 -11 20.5c-6 9.33301 -13.333 16 -22 20s-18 6 -28 6c-20 0 -37 -7.5 -51 -22.5s-21 -35.167 -21 -60.5v-33h-52v420h245v-50h-194v-252c7.33301 12.667 18.333 23.667 33 33c16 9.33301 34 14 54 14
c17.333 0 32.833 -3.5 46.5 -10.5s25.167 -16.5 34.5 -28.5c6.66699 -8 12.334 -17 17.001 -27s8.5 -22.333 11.5 -37s5 -32.5 6 -53.5s1.5 -46.5 1.5 -76.5z" />
    <glyph glyph-name="six.osf" horiz-adv-x="349" 
d="M305 210c0 -26.667 -0.499023 -49.335 -1.49902 -68.002s-2.83301 -34.667 -5.5 -48s-6.33398 -25 -11.001 -35s-10.667 -19.333 -18 -28c-10 -12 -23.5 -21.5 -40.5 -28.5s-34.833 -10.5 -53.5 -10.5c-19.333 0 -37.166 3.33301 -53.499 10s-29.5 16.334 -39.5 29.001
c-7.33301 8.66699 -13.5 18 -18.5 28s-8.83301 21.667 -11.5 35s-4.5 29.333 -5.5 48s-1.5 41.334 -1.5 68.001c0 40 2.33301 75 7 105s12 58.667 22 86l115 311h56l-114 -306c17.333 14 36.666 21 57.999 21c33.333 0 60.333 -12 81 -36
c6.66699 -7.33301 12.167 -15 16.5 -23s7.83301 -18.5 10.5 -31.5s4.66699 -29.667 6 -50s2 -45.833 2 -76.5zM249.001 210.999c0 42.667 -1.49805 75 -4.49805 97s-9.5 38.667 -19.5 50c-6.66699 7.33301 -14.334 12.666 -23.001 15.999s-17.667 5 -27 5
s-18.333 -1.66699 -27 -5s-16.334 -8.66602 -23.001 -15.999c-10 -11.333 -16.5 -28 -19.5 -50s-4.5 -54.333 -4.5 -97c0 -43.333 1.66699 -76 5 -98s9.66602 -38.667 18.999 -50c6.66699 -7.33301 14.334 -12.666 23.001 -15.999s17.667 -5 27 -5s18.333 1.66699 27 5
s16.334 8.66602 23.001 15.999c9.33301 11.333 15.666 28 18.999 50s5 54.667 5 98z" />
    <glyph glyph-name="seven.osf" horiz-adv-x="333" 
d="M110 -118h-56l190 662h-153v-116h-56v166h267v-46z" />
    <glyph glyph-name="eight.osf" horiz-adv-x="351" 
d="M307 196c0 -24.667 -0.49707 -45.668 -1.49707 -63.001s-3 -32.5 -6 -45.5s-7 -24.167 -12 -33.5s-11.5 -18.333 -19.5 -27c-10.667 -10.667 -24.167 -19.167 -40.5 -25.5s-33.166 -9.5 -50.499 -9.5s-34 3.16699 -50 9.5s-29.333 14.833 -40 25.5
c-8 8.66699 -14.667 17.667 -20 27s-9.5 20.5 -12.5 33.5s-5 28.167 -6 45.5s-1.5 38.333 -1.5 63s0.5 45 1.5 61s2.5 29.333 4.5 40s4.66699 19.5 8 26.5s7.33301 14.167 12 21.5c8.66699 14 22 25.667 40 35c-8.66699 4.66699 -16.334 10.334 -23.001 17.001
s-12.334 13.667 -17.001 21c-3.33301 6 -6.33301 12.5 -9 19.5s-4.83398 15 -6.50098 24s-3 19.833 -4 32.5s-1.5 27.667 -1.5 45c0 42 2.83301 73.667 8.5 95s15.5 39 29.5 53c23.333 22 52.333 33 87 33c36 0 65 -11 87 -33c14 -14 23.833 -31.667 29.5 -53
s8.5 -53 8.5 -95c0 -17.333 -0.333008 -32.333 -1 -45s-1.83398 -23.5 -3.50098 -32.5s-3.83398 -17 -6.50098 -24s-5.66699 -13.5 -9 -19.5c-9.33301 -15.333 -22.666 -28 -39.999 -38c18 -9.33301 31.333 -21 40 -35c4.66699 -7.33301 8.66699 -14.5 12 -21.5
s6 -15.833 8 -26.5s3.33301 -24 4 -40s1 -36.333 1 -61zM251.003 196.999c0 24 -0.333008 43.5 -1 58.5s-2 27.5 -4 37.5s-4.66699 18.167 -8 24.5s-7.33301 12.166 -12 17.499c-12 14 -28.333 21 -49 21s-37 -7 -49 -21c-4.66699 -5.33301 -8.66699 -11.166 -12 -17.499
s-6 -14.5 -8 -24.5s-3.33301 -22.5 -4 -37.5s-1 -34.5 -1 -58.5c0 -21.333 0.333008 -39.166 1 -53.499s2 -26.5 4 -36.5s4.66699 -18.5 8 -25.5s7.33301 -13.167 12 -18.5c12 -14 28.333 -21 49 -21s37 7 49 21c4.66699 5.33301 8.66699 11.5 12 18.5s6 15.5 8 25.5
s3.33301 22.167 4 36.5s1 32.166 1 53.499zM246.003 536.999c0 18 -0.334961 33.333 -1.00195 46s-2 23.334 -4 32.001s-4.5 15.834 -7.5 21.501s-6.5 10.834 -10.5 15.501c-12 12 -27.333 18 -46 18c-18 0 -33 -6 -45 -18c-4 -4.66699 -7.5 -9.83398 -10.5 -15.501
s-5.5 -12.834 -7.5 -21.501s-3.5 -19.334 -4.5 -32.001s-1.5 -28 -1.5 -46c0 -36 2 -62 6 -78s10.333 -28.333 19 -37c10.667 -11.333 25.334 -17 44.001 -17c19.333 0 34.333 5.66699 45 17c8.66699 8.66699 14.834 21 18.501 37s5.5 42 5.5 78z" />
    <glyph glyph-name="nine.osf" horiz-adv-x="349" 
d="M304 384c0 -40 -2.33398 -74.999 -7.00098 -104.999s-12 -58.667 -22 -86l-114 -311h-57l115 306c-17.333 -14 -36.666 -21 -57.999 -21c-33.333 0 -60.333 12 -81 36c-6.66699 7.33301 -12.167 15.166 -16.5 23.499s-8 19 -11 32s-5.16699 29.5 -6.5 49.5
s-2 45.333 -2 76c0 26.667 0.5 49.5 1.5 68.5s3 35.167 6 48.5s6.83301 24.833 11.5 34.5s10.667 18.834 18 27.501c10.667 12.667 24.167 22.334 40.5 29.001s34.166 10 53.499 10s37 -3.33301 53 -10s29.333 -16.334 40 -29.001c7.33301 -9.33301 13.333 -18.833 18 -28.5
s8.33398 -21.334 11.001 -35.001s4.5 -29.667 5.5 -48s1.5 -40.833 1.5 -67.5zM247.999 383.001c0 43.333 -1.5 76 -4.5 98s-9.5 38.667 -19.5 50c-13.333 14 -30 21 -50 21c-20.667 0 -37.334 -7 -50.001 -21c-10 -11.333 -16.5 -28 -19.5 -50s-4.5 -54.667 -4.5 -98
s1.5 -75.833 4.5 -97.5s9.5 -38.167 19.5 -49.5c12.667 -14 29.334 -21 50.001 -21c20 0 36.667 7 50 21c10 11.333 16.5 27.833 19.5 49.5s4.5 54.167 4.5 97.5z" />
    <glyph glyph-name="zero.lf" horiz-adv-x="361" 
d="M307 128c0 -25.333 -3.16699 -45.666 -9.5 -60.999s-15.166 -28.666 -26.499 -39.999s-25 -20 -41 -26s-32.667 -9 -50 -9s-34 3 -50 9s-29.333 14.667 -40 26c-11.333 11.333 -20.166 24.666 -26.499 39.999s-9.5 35.666 -9.5 60.999v456
c0 25.333 3.16699 45.666 9.5 60.999s15.166 28.666 26.499 39.999c10.667 11.333 24 20 40 26s32.667 9 50 9s34 -3 50 -9s29.667 -14.667 41 -26s20.166 -24.666 26.499 -39.999s9.5 -35.666 9.5 -60.999v-456zM251 587c0 28 -6.83301 48.833 -20.5 62.5
s-30.5 20.5 -50.5 20.5c-19.333 0 -35.833 -6.83301 -49.5 -20.5s-20.5 -34.5 -20.5 -62.5v-462c0 -28 6.83301 -48.833 20.5 -62.5s30.167 -20.5 49.5 -20.5c20 0 36.833 6.83301 50.5 20.5s20.5 34.5 20.5 62.5v462z" />
    <glyph glyph-name="one.lf" horiz-adv-x="257" 
d="M120 0v646l-102 -88v67l102 87h56v-712h-56z" />
    <glyph glyph-name="two.lf" horiz-adv-x="323" 
d="M32 0v47l169 390c8.66699 19.333 16.667 41.5 24 66.5s11 52.5 11 82.5c0 28 -6.83301 49 -20.5 63s-30.5 21 -50.5 21c-19.333 0 -35.833 -6.83301 -49.5 -20.5s-20.5 -34.5 -20.5 -62.5v-51h-56v50c0 23.333 3 42.5 9 57.5s15 28.833 27 41.5
c10.667 11.333 24 20 40 26s32.667 9 50 9s33.833 -3 49.5 -9s29.167 -14.333 40.5 -25s20.333 -24 27 -40s10 -36.667 10 -62c0 -27.333 -4 -55.5 -12 -84.5s-17.667 -56.167 -29 -81.5l-159 -368h200v-50h-260z" />
    <glyph glyph-name="three.lf" horiz-adv-x="326" 
d="M290 196c0 -24.667 -0.665039 -45.8301 -1.99805 -63.4971s-3.5 -32.834 -6.5 -45.501s-7 -23.667 -12 -33s-11.5 -18.333 -19.5 -27c-10.667 -10.667 -24.167 -19.167 -40.5 -25.5s-33.166 -9.5 -50.499 -9.5s-34 3 -50 9s-29.333 14.333 -40 25
c-11.333 11.333 -20.333 24.666 -27 39.999s-10 35.666 -10 60.999v49h56v-50c0 -28 7 -49 21 -63s30.667 -21 50 -21c21.333 0 37.666 7 48.999 21c4.66699 5.33301 8.66699 11.166 12 17.499s6 14.5 8 24.5s3.5 22.333 4.5 37s1.5 32.667 1.5 54
c0 24.667 -0.333008 45 -1 61s-2 29 -4 39s-4.66699 17.833 -8 23.5s-7.33301 11.167 -12 16.5c-13.333 14 -30 21 -50 21h-41v49h41c20.667 0 35.667 5.66699 45 17c9.33301 9.33301 15.666 22.166 18.999 38.499s5 41.833 5 76.5c0 17.333 -0.5 32.166 -1.5 44.499
s-2.33301 22.833 -4 31.5s-3.83398 15.834 -6.50098 21.501s-6 10.834 -10 15.501c-10.667 12.667 -26.334 19 -47.001 19c-19.333 0 -35.166 -6.83301 -47.499 -20.5s-18.5 -34.5 -18.5 -62.5v-51h-56v49c0 24.667 3 45 9 61s14.667 29.333 26 40
c22.667 22.667 51.667 34 87 34c36.667 0 66 -11 88 -33c6.66699 -6.66699 12.334 -14 17.001 -22s8.5 -17.833 11.5 -29.5s5.16699 -25.167 6.5 -40.5s2 -33.666 2 -54.999c0 -34.667 -1.5 -60.334 -4.5 -77.001s-8.16699 -31.334 -15.5 -44.001
c-8.66699 -16 -22 -28.667 -40 -38c17.333 -9.33301 30.666 -20.666 39.999 -33.999c4.66699 -7.33301 8.66699 -14.666 12 -21.999s6 -16.5 8 -27.5s3.5 -24.5 4.5 -40.5s1.5 -36.333 1.5 -61z" />
    <glyph glyph-name="four.lf" horiz-adv-x="346" 
d="M266 123v-123h-56v123h-189v51l181 538h55l-179 -538h132v199h56v-199h50v-51h-50z" />
    <glyph glyph-name="five.lf" horiz-adv-x="341" 
d="M306 224c0 -28 -0.501953 -51.999 -1.50195 -71.999s-3 -37.333 -6 -52s-7.16699 -27.334 -12.5 -38.001s-12 -20.667 -20 -30c-10.667 -12.667 -24.167 -22.5 -40.5 -29.5s-33.166 -10.5 -50.499 -10.5s-34 2.83301 -50 8.5s-29.333 13.834 -40 24.501
c-11.333 11.333 -20.5 24.833 -27.5 40.5s-10.5 36.167 -10.5 61.5v47h56v-45c0 -30 7 -52 21 -66s31.333 -21 52 -21s37 8.33301 49 25c4.66699 6 8.5 12.667 11.5 20s5.5 16.833 7.5 28.5s3.5 26.167 4.5 43.5s1.5 39 1.5 65c0 25.333 -0.5 46.666 -1.5 63.999
s-2.5 32 -4.5 44s-4.66699 21.833 -8 29.5s-7 14.5 -11 20.5c-6 9.33301 -13.333 16 -22 20s-18 6 -28 6c-20 0 -37 -7.5 -51 -22.5s-21 -35.167 -21 -60.5v-33h-52v420h245v-50h-194v-252c7.33301 12.667 18.333 23.667 33 33c16 9.33301 34 14 54 14
c17.333 0 32.833 -3.5 46.5 -10.5s25.167 -16.5 34.5 -28.5c6.66699 -8 12.334 -17 17.001 -27s8.5 -22.333 11.5 -37s5 -32.5 6 -53.5s1.5 -46.5 1.5 -76.5z" />
    <glyph glyph-name="six.lf" horiz-adv-x="342" 
d="M301 210c0 -27.333 -0.49707 -50.3359 -1.49707 -69.0029s-2.83301 -34.834 -5.5 -48.501s-6.33398 -25.167 -11.001 -34.5s-10.667 -18.333 -18 -27c-10.667 -13.333 -24.334 -23.166 -41.001 -29.499s-34.334 -9.5 -53.001 -9.5c-19.333 0 -37.166 3.33301 -53.499 10
s-29.5 16.334 -39.5 29.001c-7.33301 8.66699 -13.5 18 -18.5 28s-8.83301 21.667 -11.5 35s-4.5 29.333 -5.5 48s-1.5 41.334 -1.5 68.001c0 40 2.33301 75 7 105s12 58.667 22 86l115 311h56l-114 -306c17.333 14 36.666 21 57.999 21c33.333 0 60.333 -12 81 -36
c6.66699 -7.33301 12.167 -15.166 16.5 -23.499s7.83301 -19 10.5 -32s4.66699 -29.5 6 -49.5s2 -45.333 2 -76zM245.003 209.997c0 41.333 -1.33301 73.5 -4 96.5s-9.33398 40.167 -20.001 51.5c-13.333 14 -30 21 -50 21c-20.667 0 -37.334 -7 -50.001 -21
c-10.667 -12 -17.334 -29.333 -20.001 -52s-4 -54.667 -4 -96c0 -40.667 1.33301 -72.334 4 -95.001s9.33398 -40 20.001 -52c12.667 -14 29.334 -21 50.001 -21c20 0 36.667 7 50 21c10.667 12 17.334 29.333 20.001 52s4 54.334 4 95.001z" />
    <glyph glyph-name="seven.lf" horiz-adv-x="324" 
d="M128 0h-59l175 662h-154v-116h-56v166h267v-46z" />
    </font>
</defs>
</svg>
